<svg width="200" height="201" viewBox="0 0 200 201" fill="none" xmlns="http://www.w3.org/2000/svg">
<g clip-path="url(#clip0_8597_54265)">
<path d="M125.53 4.9075C72.9037 -9.19381 18.8086 22.0424 4.70729 74.6692C-9.39402 127.296 21.837 181.39 74.4638 195.491C127.091 209.592 181.189 178.363 195.291 125.736C209.392 73.1091 178.157 19.0088 125.53 4.9075ZM85.403 154.665C55.3223 146.605 37.4728 115.689 45.5329 85.6084C53.5929 55.5277 84.5107 37.673 114.591 45.7331C144.672 53.7932 162.525 84.7161 154.465 114.797C146.405 144.877 115.484 162.726 85.403 154.665Z" fill="white"/>
<path d="M74.1152 196.792C20.8552 182.521 -10.8645 127.581 3.40646 74.3206C17.6781 21.058 72.619 -10.6643 125.879 3.60666C179.142 17.8783 210.864 72.8219 196.592 126.085C182.321 179.345 127.378 211.064 74.1152 196.792ZM125.182 6.20834C73.3565 -7.67825 19.8954 23.1897 6.00814 75.0177C-7.87845 126.843 22.9869 180.304 74.8124 194.19C126.64 208.077 180.104 177.213 193.99 125.387C207.878 73.5594 177.01 20.0956 125.182 6.20834ZM85.0544 155.966C54.3057 147.727 35.9929 116.009 44.232 85.2598C52.4718 54.5085 84.1911 36.1931 114.94 44.4322C145.692 52.6722 164.006 84.3941 155.767 115.145C147.527 145.894 115.806 164.206 85.0544 155.966ZM114.243 47.0339C84.9286 39.1792 54.6891 56.6402 46.8337 85.9569C38.979 115.271 56.4374 145.51 85.7515 153.365C115.069 161.22 145.31 143.762 153.165 114.448C161.02 85.1315 143.56 54.8895 114.243 47.0339Z" fill="black"/>
<path d="M97.71 106.985C93.7247 105.917 90.6829 104.142 88.5858 101.659C86.488 99.1778 85.3659 96.0161 85.2195 92.1751L95.5505 92.886C96.052 95.2539 97.583 96.7812 100.143 97.467C101.824 97.9175 103.305 97.8733 104.587 97.3349C105.867 96.7963 106.714 95.7594 107.125 94.2239C107.507 92.7982 107.348 91.5604 106.65 90.5113C105.951 89.4623 104.779 88.7167 103.135 88.276C101.744 87.9034 100.586 87.7308 99.6588 87.7562C98.7305 87.7824 97.6788 88.0879 96.5029 88.674L89.5077 84.507L97.4276 64.8216L121.942 71.3902L119.444 80.7136L102.607 76.2023L100.656 80.852C101.955 80.5343 103.126 80.4075 104.168 80.4701C105.208 80.5343 106.368 80.7363 107.648 81.0793C112.036 82.2551 115.078 84.2458 116.776 87.0519C118.473 89.8578 118.812 93.1627 117.793 96.9648C117.205 99.1585 116.29 101.039 115.047 102.607C113.804 104.175 112.303 105.389 110.544 106.25C108.785 107.112 106.818 107.613 104.645 107.755C102.471 107.897 100.159 107.641 97.71 106.985Z" fill="#3F69FF"/>
<path d="M56.98 115.803L58.2283 116.137C58.6424 115.535 59.0547 114.593 59.4649 113.312C59.8749 112.032 60.3513 110.379 60.8942 108.353L70.7182 110.985L68.5934 118.915L70.1336 119.327L68.6445 124.885L64.7529 123.842L65.4668 121.178L60.0969 119.739L59.3831 122.403L55.4915 121.36L56.9805 115.803L56.98 115.803ZM64.4931 117.816L65.8483 112.758L63.9335 112.245C63.5869 113.372 63.2522 114.357 62.9299 115.2C62.6069 116.043 62.2818 116.688 61.9539 117.136L64.4931 117.816Z" fill="#3F69FF"/>
<path d="M73.5904 111.754L76.879 112.636C76.9073 112.807 76.9149 113.013 76.9025 113.255C76.8896 113.497 76.867 113.733 76.8357 113.963C77.4102 113.596 78.0418 113.36 78.7319 113.255C79.422 113.15 80.1342 113.196 80.87 113.393L81.0365 113.437C81.7717 113.634 82.4155 113.952 82.9674 114.39C83.5193 114.828 83.9555 115.35 84.2765 115.956C84.5969 116.563 84.7979 117.23 84.8779 117.958C84.9578 118.686 84.8939 119.438 84.6858 120.215L84.5296 120.798C84.3213 121.575 84.0004 122.259 83.5673 122.849C83.1342 123.439 82.6265 123.917 82.0458 124.282C81.4649 124.647 80.8262 124.881 80.1288 124.984C79.4314 125.087 78.7155 125.04 77.9803 124.843L77.8138 124.798C77.231 124.642 76.7037 124.404 76.2316 124.085C75.7595 123.765 75.3582 123.39 75.0275 122.959L73.7169 127.85L69.575 126.74L73.5904 111.754ZM77.6565 121.722C77.9198 121.793 78.1844 121.79 78.4511 121.712C78.7168 121.635 78.9692 121.498 79.2081 121.302C79.4463 121.106 79.6588 120.854 79.8449 120.547C80.0309 120.239 80.1764 119.892 80.2806 119.503L80.3586 119.212C80.4626 118.824 80.5105 118.449 80.5029 118.091C80.4949 117.731 80.4372 117.408 80.329 117.118C80.2202 116.829 80.07 116.584 79.8788 116.384C79.687 116.184 79.459 116.048 79.1957 115.978L78.946 115.911C78.6821 115.84 78.4179 115.844 78.1513 115.921C77.8856 115.999 77.6331 116.136 77.3944 116.332C77.156 116.528 76.9431 116.78 76.7576 117.087C76.5705 117.394 76.426 117.742 76.3219 118.13L76.2438 118.422C76.1396 118.81 76.0914 119.184 76.0995 119.543C76.107 119.902 76.1651 120.226 76.2734 120.515C76.3821 120.805 76.5324 121.049 76.7236 121.249C76.9153 121.45 77.1429 121.585 77.4067 121.656L77.6565 121.722Z" fill="#3F69FF"/>
<path d="M90.3851 128.167C89.4969 127.929 88.7157 127.571 88.0407 127.093C87.3657 126.614 86.8146 126.061 86.3882 125.434C85.9612 124.807 85.6812 124.118 85.5474 123.368C85.4132 122.619 85.449 121.862 85.6535 121.099L85.8097 120.516C86.0179 119.739 86.3664 119.063 86.8552 118.488C87.3439 117.913 87.9299 117.459 88.6134 117.129C89.2958 116.799 90.0495 116.596 90.8738 116.519C91.6968 116.443 92.5531 116.523 93.4413 116.761L93.6911 116.828C94.5788 117.066 95.3637 117.425 96.0454 117.905C96.727 118.386 97.2783 118.938 97.6984 119.564C98.1181 120.189 98.3959 120.874 98.531 121.616C98.6666 122.359 98.6303 123.119 98.4221 123.896L98.266 124.479C98.0614 125.242 97.7134 125.914 97.2232 126.497C96.7326 127.079 96.1489 127.536 95.4732 127.868C94.7965 128.2 94.0427 128.404 93.2123 128.478C92.3819 128.553 91.5226 128.472 90.6349 128.234L90.3851 128.167ZM91.3934 125.403C91.6566 125.474 91.9213 125.471 92.188 125.393C92.4537 125.315 92.7061 125.179 92.9444 124.982C93.1832 124.786 93.3957 124.534 93.5817 124.227C93.7678 123.92 93.9133 123.573 94.0174 123.184L94.0955 122.893C94.1995 122.504 94.2474 122.13 94.2398 121.771C94.2318 121.412 94.1741 121.088 94.0654 120.799C93.9571 120.51 93.8069 120.265 93.6157 120.065C93.4238 119.865 93.1959 119.729 92.9326 119.659L92.6828 119.592C92.419 119.521 92.1547 119.525 91.8882 119.602C91.622 119.68 91.3695 119.817 91.1312 120.013C90.8923 120.209 90.6799 120.461 90.4939 120.768C90.3074 121.075 90.1629 121.422 90.0587 121.811L89.9807 122.102C89.8765 122.491 89.8283 122.865 89.8358 123.224C89.8434 123.583 89.9014 123.907 90.0103 124.196C90.1184 124.486 90.2688 124.73 90.4605 124.93C90.6522 125.13 90.8798 125.266 91.1436 125.336L91.3934 125.403Z" fill="#3F69FF"/>
<path d="M101.438 119.216L112.511 122.183L109.611 133.006L105.469 131.896L107.561 124.091L104.772 123.344L102.68 131.149L98.5383 130.039L101.438 119.216Z" fill="#3F69FF"/>
<path d="M116.973 122.263C116.293 122.081 115.791 121.761 115.468 121.302C115.145 120.844 115.063 120.317 115.223 119.72C115.379 119.137 115.714 118.718 116.229 118.461C116.744 118.205 117.342 118.168 118.021 118.35C118.729 118.54 119.252 118.878 119.591 119.362C119.929 119.847 120.02 120.381 119.864 120.963C119.704 121.56 119.359 121.974 118.829 122.203C118.299 122.433 117.681 122.453 116.973 122.263ZM114.676 122.763L118.818 123.873L115.918 134.696L111.776 133.586L114.676 122.763Z" fill="#3F69FF"/>
<path d="M120.982 124.453L127.622 126.232C128.121 126.366 128.564 126.559 128.95 126.811C129.336 127.063 129.65 127.348 129.892 127.666C130.134 127.984 130.297 128.332 130.382 128.712C130.466 129.091 130.456 129.476 130.352 129.864L130.235 130.301C130.016 131.12 129.424 131.69 128.461 132.011C128.952 132.396 129.292 132.833 129.481 133.322C129.67 133.812 129.695 134.313 129.558 134.826L129.43 135.305C129.203 136.152 128.684 136.741 127.874 137.074C127.063 137.407 126.109 137.427 125.014 137.133L118.083 135.276L120.983 124.453L120.982 124.453ZM124.563 129.986C125.576 130.257 126.148 130.15 126.278 129.664L126.356 129.373C126.423 129.123 126.345 128.901 126.122 128.708C125.899 128.514 125.544 128.352 125.058 128.222L124.184 127.988L123.71 129.757L124.563 129.986ZM123.976 134.178C124.447 134.305 124.829 134.337 125.121 134.273C125.413 134.21 125.596 134.04 125.671 133.762L125.749 133.471C125.823 133.194 125.752 132.944 125.537 132.723C125.321 132.501 124.991 132.331 124.547 132.212L123.152 131.838L122.622 133.816L123.976 134.178Z" fill="#3F69FF"/>
<path d="M19.0868 55.9812L22.2896 50.7979L29.2422 55.0948L29.4115 54.8204L25.2307 46.0383L28.7115 40.4066L33.0702 51.296L46.2778 50.9869L42.6281 56.8928L32.1123 56.5236L31.9583 56.773L39.7335 61.5777L36.5303 66.7605L19.0868 55.9812Z" fill="#3F69FF"/>
<path d="M47.8809 50.3711C47.5567 50.6821 47.2365 50.941 46.9219 51.1481C46.6064 51.3558 46.2539 51.5382 45.8642 51.696L42.8637 48.5665C43.0869 48.4887 43.2955 48.3825 43.4916 48.2481C43.688 48.1142 43.821 48.0138 43.8917 47.9456C44.1172 47.7296 44.2328 47.4968 44.2382 47.2486C44.2436 47.0004 44.1189 46.6799 43.8646 46.288C43.6108 45.8959 43.2234 45.4079 42.7044 44.8237C42.185 44.2397 41.5065 43.5105 40.6685 42.6365L37.2017 39.0204L46.7172 29.8978L57.2593 40.8934L53.0511 44.9279L45.4487 36.9985L44.011 38.3771L45.7333 40.2161C46.8134 41.3715 47.6649 42.4219 48.2879 43.3672C48.9103 44.3129 49.306 45.191 49.4754 46.0026C49.6448 46.8142 49.5979 47.5766 49.3341 48.2887C49.0691 49.0009 48.5854 49.695 47.8809 50.3711Z" fill="#3F69FF"/>
<path d="M65.6607 36.1642C64.5886 36.8068 63.513 37.2343 62.4347 37.4482C61.356 37.6623 60.3252 37.6709 59.3425 37.4738C58.3595 37.2774 57.4462 36.8742 56.6025 36.264C55.7591 35.6543 55.031 34.8381 54.4189 33.8156L54.1177 33.3134C53.5555 32.3752 53.2137 31.3963 53.0919 30.3762C52.9703 29.3566 53.0479 28.3651 53.3248 27.4022C53.6016 26.44 54.0693 25.5392 54.7283 24.7003C55.3868 23.8617 56.2102 23.1462 57.199 22.5542L57.5761 22.3283C58.5143 21.7662 59.4799 21.3928 60.4733 21.2074C61.4662 21.0223 62.4139 21.0175 63.3165 21.1943C64.2188 21.3707 65.0514 21.7148 65.8128 22.2256C66.5745 22.7369 67.2061 23.4117 67.7081 24.249L68.9878 26.3846L59.7407 31.9255L59.7557 31.9504C60.2378 32.5268 60.8219 32.8371 61.5085 32.8811C62.1951 32.9251 62.9235 32.716 63.6939 32.2544L63.9702 32.0887C64.6735 31.6671 65.2518 31.1497 65.7045 30.5375C66.1569 29.9248 66.4873 29.3173 66.6954 28.7145L70.723 30.7066C70.5451 31.1322 70.3041 31.5842 69.9986 32.0623C69.6931 32.5416 69.3375 33.0107 68.9302 33.471C68.5232 33.9317 68.0894 34.3676 67.6306 34.7786C67.1717 35.1904 66.699 35.5417 66.2132 35.8327L65.6607 36.1642ZM62.7475 26.5718C62.3461 26.0155 61.8449 25.6442 61.2437 25.4583C60.6425 25.2723 60.0405 25.3599 59.4373 25.7212L59.3369 25.781C58.8009 26.1023 58.4353 26.5659 58.241 27.172C58.0461 27.7784 58.066 28.4667 58.3002 29.2365L62.7475 26.5718Z" fill="#3F69FF"/>
<path d="M80.9505 29.4969C79.7747 29.8597 78.6408 30.0106 77.5488 29.9487C76.4569 29.8868 75.4557 29.6394 74.5448 29.2049C73.634 28.7704 72.8462 28.1709 72.1807 27.405C71.5155 26.6395 71.0244 25.7437 70.7074 24.7174L70.4483 23.8774C70.1375 22.8694 70.0471 21.866 70.1779 20.8643C70.3084 19.8634 70.6301 18.9368 71.1443 18.0832C71.6576 17.2302 72.3341 16.4745 73.1731 15.8171C74.0126 15.1595 74.9921 14.6581 76.1119 14.3126L76.3918 14.2263C77.7915 13.7945 79.1303 13.6473 80.4094 13.7834C81.6878 13.9205 82.8783 14.3503 83.9802 15.0726L81.0824 19.0938C80.44 18.536 79.8643 18.1929 79.3543 18.0637C78.8446 17.935 78.3002 17.9595 77.722 18.1378L77.5817 18.1815C76.2195 18.6016 75.6444 19.5868 75.8568 21.1355L79.8315 19.9094L80.7385 22.8485L76.7912 24.0663C77.1666 24.6862 77.6231 25.1075 78.1623 25.3292C78.7006 25.5515 79.2779 25.5678 79.894 25.3776L80.1738 25.2913C80.752 25.113 81.2179 24.8005 81.5705 24.3543C81.9231 23.9081 82.192 23.2889 82.3768 22.4961L87.0304 24.4627C86.0934 26.8573 84.1692 28.5032 81.258 29.4015L80.9505 29.4969Z" fill="#3F69FF"/>
<path d="M87.7882 11.5386L94.3729 11.2476L97.2041 18.248L97.3798 18.2399L99.5534 11.0185L106.138 10.7275L106.81 25.9454L101.367 26.1857L101.015 18.2254L100.84 18.2335L98.5153 24.0248L96.5543 24.1114L93.7154 18.2549L93.5398 18.2631L93.9043 26.5159L88.461 26.7562L87.7882 11.5386Z" fill="#3F69FF"/>
<path d="M116.274 28.4359C115.056 28.1564 113.977 27.7079 113.036 27.0915C112.096 26.4751 111.32 25.751 110.709 24.9193C110.098 24.0876 109.684 23.1662 109.465 22.1541C109.247 21.142 109.258 20.1129 109.498 19.066L109.681 18.2666C109.926 17.2008 110.366 16.265 111.002 15.4589C111.638 14.6533 112.412 14.0092 113.324 13.5273C114.236 13.0452 115.25 12.7321 116.365 12.5877C117.48 12.4433 118.647 12.5106 119.865 12.7901L120.208 12.8684C121.426 13.1482 122.51 13.5972 123.46 14.2162C124.41 14.8351 125.185 15.559 125.787 16.3883C126.388 17.2177 126.798 18.1338 127.02 19.1356C127.24 20.1384 127.228 21.1723 126.983 22.2381L126.8 23.0376C126.559 24.0847 126.12 25.0154 125.482 25.8311C124.844 26.646 124.074 27.2961 123.171 27.7798C122.269 28.2636 121.255 28.5772 120.13 28.7195C119.005 28.8616 117.834 28.7931 116.616 28.5136L116.274 28.4359ZM117.508 24.6314C117.87 24.7144 118.23 24.6969 118.588 24.5787C118.945 24.4607 119.281 24.2621 119.596 23.9836C119.91 23.7053 120.186 23.3527 120.424 22.9267C120.662 22.5002 120.842 22.021 120.965 21.4879L121.057 21.0886C121.179 20.5558 121.226 20.0455 121.197 19.558C121.169 19.0705 121.074 18.6328 120.913 18.245C120.751 17.8577 120.535 17.5326 120.265 17.27C119.994 17.0082 119.678 16.8349 119.317 16.7518L118.975 16.6732C118.613 16.5904 118.253 16.6081 117.895 16.7259C117.538 16.8441 117.201 17.0427 116.887 17.321C116.573 17.5995 116.297 17.9518 116.059 18.3778C115.82 18.8041 115.64 19.2836 115.518 19.8163L115.426 20.216C115.304 20.7487 115.257 21.2591 115.285 21.7466C115.314 22.2341 115.408 22.672 115.57 23.0595C115.731 23.4474 115.947 23.7725 116.218 24.0348C116.488 24.2973 116.804 24.47 117.166 24.553L117.508 24.6314Z" fill="#3F69FF"/>
<path d="M133.611 29.1933L135.085 30.1496C135.874 29.5438 136.801 28.4989 137.869 27.0147C138.936 25.5308 140.246 23.5925 141.797 21.2L153.398 28.7232L147.325 38.0872L149.143 39.2666L144.887 45.829L140.291 42.8482L142.332 39.7022L135.991 35.5897L133.95 38.7357L129.354 35.7549L133.611 29.1933ZM142.483 34.9475L146.357 28.9754L144.096 27.5091C143.175 28.8213 142.329 29.954 141.559 30.9089C140.788 31.8638 140.097 32.5615 139.485 33.0032L142.483 34.9475Z" fill="#3F69FF"/>
<path d="M158.679 32.9968L161.781 36.4315C161.686 36.6483 161.543 36.8891 161.35 37.1563C161.156 37.4227 160.956 37.6756 160.751 37.914C161.677 37.9195 162.573 38.117 163.438 38.507C164.303 38.8965 165.083 39.4753 165.776 40.2436L165.934 40.4171C166.627 41.1854 167.128 42.023 167.433 42.9307C167.74 43.8381 167.852 44.7562 167.771 45.6856C167.689 46.6144 167.424 47.524 166.978 48.414C166.532 49.3039 165.903 50.1154 165.091 50.8483L164.483 51.3982C163.671 52.1314 162.799 52.6748 161.87 53.0282C160.938 53.3816 160.007 53.5522 159.075 53.5396C158.141 53.5266 157.24 53.322 156.368 52.9249C155.497 52.5281 154.714 51.9457 154.02 51.1773L153.863 51.0036C153.313 50.3949 152.888 49.7338 152.585 49.0202C152.283 48.3066 152.102 47.5818 152.043 46.8459L146.934 51.4598L143.027 47.1334L158.679 32.9968ZM155.956 47.3766C156.204 47.6518 156.509 47.8439 156.87 47.9521C157.231 48.0605 157.62 48.0903 158.037 48.0425C158.454 47.9948 158.883 47.8641 159.322 47.6521C159.762 47.4389 160.184 47.15 160.59 46.7832L160.895 46.5084C161.301 46.1423 161.631 45.7505 161.888 45.3354C162.144 44.9194 162.317 44.5072 162.408 44.0968C162.497 43.6867 162.507 43.2968 162.436 42.9265C162.365 42.5565 162.205 42.2332 161.957 41.9581L161.721 41.6973C161.472 41.4217 161.167 41.23 160.806 41.1218C160.445 41.0137 160.056 40.9834 159.639 41.0314C159.221 41.0792 158.793 41.2094 158.354 41.4223C157.915 41.635 157.492 41.9246 157.086 42.2912L156.782 42.5665C156.376 42.9329 156.045 43.3241 155.789 43.7394C155.532 44.1549 155.359 44.5679 155.269 44.978C155.179 45.3882 155.17 45.7788 155.241 46.1483C155.312 46.5184 155.472 46.8411 155.72 47.1168L155.956 47.3766Z" fill="#3F69FF"/>
<path d="M162.949 64.5056C162.376 63.3946 162.022 62.2811 161.886 61.1649C161.75 60.0486 161.802 58.9884 162.043 57.9859C162.284 56.9829 162.72 56.0709 163.351 55.2511C163.983 54.431 164.776 53.7747 165.731 53.2825L166.46 52.9064C167.432 52.4052 168.431 52.1374 169.456 52.1027C170.482 52.0679 171.473 52.2432 172.43 52.6286C173.387 53.0136 174.281 53.5862 175.112 54.3444C175.942 55.1028 176.644 56.0369 177.217 57.148L177.378 57.4605C177.951 58.571 178.307 59.6895 178.448 60.8141C178.588 61.9393 178.536 62.9988 178.291 63.9931C178.046 64.9875 177.612 65.8928 176.989 66.7082C176.366 67.524 175.568 68.1825 174.596 68.6836L173.867 69.0597C172.913 69.5517 171.918 69.818 170.884 69.8566C169.849 69.8961 168.856 69.7269 167.903 69.3501C166.951 68.9731 166.057 68.4012 165.222 67.6341C164.387 66.867 163.683 65.9283 163.11 64.8177L162.949 64.5056ZM166.651 62.9923C166.821 63.3221 167.067 63.5851 167.388 63.7824C167.709 63.9796 168.078 64.1076 168.493 64.1681C168.908 64.2284 169.356 64.2116 169.836 64.1184C170.315 64.0247 170.797 63.8531 171.283 63.6029L171.648 63.4147C172.134 63.1642 172.554 62.8704 172.908 62.5344C173.262 62.1982 173.534 61.843 173.726 61.4697C173.918 61.096 174.027 60.7214 174.053 60.3455C174.078 59.9701 174.007 59.6165 173.837 59.2871L173.676 58.9746C173.506 58.6448 173.26 58.3812 172.939 58.1845C172.618 57.9875 172.249 57.8588 171.834 57.7988C171.418 57.7386 170.97 57.7548 170.491 57.8485C170.012 57.9417 169.529 58.114 169.044 58.3645L168.679 58.5526C168.193 58.8034 167.773 59.0962 167.42 59.4329C167.065 59.7686 166.792 60.1241 166.601 60.4976C166.409 60.8712 166.3 61.2462 166.274 61.6218C166.248 61.9977 166.32 62.3503 166.491 62.6807L166.651 62.9923Z" fill="#3F69FF"/>
<path d="M182.588 70.1053L186.046 85.3007L171.193 88.6814L169.9 82.9972L180.611 80.5594L179.74 76.7319L169.028 79.1697L167.735 73.4855L182.588 70.1053Z" fill="#3F69FF"/>
<path d="M186.625 90.9612L186.472 96.6128L179.298 96.4193L179.292 96.6245L186.375 100.244L186.195 106.891L170.968 106.481L171.12 100.83L180.11 101.071L180.116 100.867L171.246 96.1732L171.398 90.5509L186.625 90.9612Z" fill="#3F69FF"/>
<path d="M166.429 120.999C167.041 119.331 167.863 118.015 168.892 117.051C169.922 116.088 171.228 115.407 172.808 115.01L173.723 119.745C172.731 119.839 171.978 120.12 171.465 120.586C170.951 121.052 170.602 121.533 170.42 122.028L170.36 122.193C170.212 122.596 170.21 122.97 170.354 123.314C170.498 123.658 170.699 123.877 170.955 123.971L171.12 124.032C171.853 124.301 172.409 123.922 172.786 122.896L173.351 121.356L176.265 122.425L175.862 123.525C175.485 124.552 175.682 125.207 176.452 125.49L176.507 125.51C176.745 125.597 177.015 125.556 177.317 125.386C177.618 125.215 177.847 124.92 178.001 124.498L178.042 124.388C178.237 123.856 178.243 123.271 178.062 122.633C177.88 121.994 177.612 121.422 177.256 120.917L181.6 118.86C181.945 119.902 182.146 121.083 182.203 122.405C182.259 123.725 182.011 125.138 181.459 126.641L181.368 126.889C181.106 127.604 180.756 128.26 180.318 128.859C179.88 129.457 179.39 129.954 178.851 130.349C178.311 130.744 177.748 131.015 177.163 131.165C176.578 131.314 176.019 131.291 175.488 131.096L175.24 131.005C174.653 130.79 174.179 130.382 173.817 129.78C173.455 129.18 173.218 128.463 173.108 127.632C172.479 128.379 171.755 128.894 170.934 129.175C170.114 129.456 169.318 129.456 168.548 129.173L168.356 129.103C167.787 128.894 167.302 128.529 166.901 128.007C166.5 127.485 166.2 126.871 166.002 126.164C165.804 125.457 165.73 124.68 165.78 123.836C165.83 122.991 166.013 122.137 166.329 121.276L166.429 120.999Z" fill="#3F69FF"/>
<path d="M152.753 144.4L160.672 134.68L172.482 144.303L168.8 148.822L160.147 141.772L157.612 144.883L166.264 151.933L162.582 156.452L153.93 149.402L152.45 151.219L146.386 146.278L149.847 142.031L152.753 144.4Z" fill="#3F69FF"/>
<path d="M157.988 160.505L153.513 164.241L143.75 152.548L148.225 148.812L157.988 160.505ZM156.745 163.451C157.48 162.837 158.228 162.53 158.991 162.53C159.753 162.529 160.404 162.851 160.943 163.495C161.468 164.125 161.672 164.826 161.554 165.599C161.436 166.371 161.01 167.065 160.275 167.678C159.511 168.316 158.726 168.634 157.923 168.631C157.118 168.628 156.454 168.312 155.928 167.682C155.39 167.037 155.2 166.331 155.36 165.562C155.519 164.793 155.981 164.089 156.745 163.451Z" fill="#3F69FF"/>
<path d="M149.649 167.501L144.555 170.333L142.107 165.93L138.292 168.051L140.74 172.455L135.645 175.287L128.243 161.973L133.338 159.141L136.227 164.338L140.042 162.217L137.153 157.02L142.248 154.187L149.649 167.501Z" fill="#3F69FF"/>
<path d="M118.724 164.356C119.933 164.038 121.097 163.935 122.216 164.044C123.335 164.154 124.358 164.435 125.285 164.889C126.212 165.342 127.006 165.965 127.67 166.761C128.332 167.555 128.801 168.472 129.074 169.511L129.283 170.305C129.561 171.362 129.605 172.395 129.416 173.404C129.227 174.413 128.84 175.343 128.256 176.193C127.672 177.043 126.919 177.791 125.998 178.437C125.077 179.082 124.013 179.564 122.804 179.882L122.464 179.972C121.256 180.289 120.087 180.394 118.958 180.287C117.829 180.18 116.806 179.899 115.889 179.443C114.971 178.987 114.182 178.367 113.522 177.581C112.861 176.796 112.391 175.874 112.113 174.816L111.905 174.023C111.631 172.984 111.588 171.956 111.775 170.937C111.962 169.919 112.343 168.986 112.918 168.139C113.493 167.291 114.245 166.543 115.175 165.895C116.106 165.246 117.175 164.763 118.383 164.446L118.724 164.356ZM119.396 168.298C119.038 168.393 118.727 168.575 118.465 168.846C118.203 169.117 117.997 169.448 117.848 169.841C117.699 170.233 117.618 170.674 117.605 171.162C117.592 171.65 117.654 172.158 117.793 172.688L117.898 173.084C118.037 173.613 118.232 174.087 118.483 174.505C118.735 174.924 119.022 175.267 119.345 175.535C119.668 175.804 120.009 175.992 120.371 176.099C120.732 176.205 121.093 176.212 121.451 176.118L121.791 176.028C122.15 175.934 122.461 175.751 122.722 175.481C122.984 175.209 123.19 174.878 123.34 174.486C123.489 174.093 123.57 173.653 123.583 173.165C123.596 172.677 123.533 172.168 123.394 171.639L123.29 171.243C123.151 170.714 122.956 170.24 122.704 169.822C122.453 169.403 122.166 169.059 121.843 168.792C121.52 168.523 121.178 168.335 120.817 168.228C120.455 168.121 120.095 168.115 119.737 168.209L119.396 168.298Z" fill="#3F69FF"/>
<path d="M94.1266 166.454C95.1606 166.5 96.1202 166.694 97.0042 167.035C97.8883 167.377 98.6694 167.841 99.3473 168.428C100.025 169.015 100.577 169.699 101.002 170.48C101.426 171.261 101.698 172.104 101.814 173.008L103.043 173.062L103.297 167.267L109.15 167.524L108.482 182.742L102.629 182.485L102.856 177.305L101.481 177.245C101.23 178.074 100.85 178.82 100.342 179.482C99.8335 180.143 99.2324 180.703 98.5376 181.162C97.8435 181.62 97.0608 181.967 96.19 182.203C95.3201 182.438 94.3972 182.534 93.4212 182.491L93.1289 182.478C91.958 182.427 90.8837 182.189 89.9054 181.765C88.9271 181.341 88.0922 180.772 87.4003 180.057C86.7085 179.342 86.1777 178.512 85.8092 177.568C85.4401 176.623 85.2796 175.605 85.3274 174.512L85.3632 173.693C85.4103 172.619 85.6597 171.624 86.1104 170.706C86.5612 169.787 87.1626 169.007 87.9137 168.366C88.6657 167.724 89.5466 167.23 90.559 166.884C91.5707 166.537 92.6623 166.39 93.8333 166.441L94.1266 166.454ZM93.659 170.422C93.0151 170.393 92.4881 170.712 92.0777 171.378C91.6673 172.044 91.4354 172.982 91.3821 174.192L91.3555 174.806C91.3059 175.938 91.4571 176.829 91.8099 177.48C92.1625 178.131 92.661 178.47 93.3044 178.499L93.5679 178.51C94.2119 178.538 94.7381 178.243 95.1464 177.626C95.5548 177.009 95.7835 176.134 95.8331 175.003L95.8602 174.388C95.9135 173.178 95.765 172.224 95.4141 171.525C95.0639 170.824 94.5662 170.461 93.9227 170.432L93.659 170.422Z" fill="#3F69FF"/>
<path d="M72.0885 177.667L63.566 173.834C62.9249 173.545 62.3733 173.19 61.9099 172.768C61.447 172.345 61.0878 171.895 60.8317 171.415C60.5764 170.936 60.4332 170.433 60.4027 169.905C60.3725 169.378 60.4694 168.865 60.6938 168.366L60.9459 167.805C61.4184 166.754 62.3366 166.117 63.6997 165.896C63.1238 165.272 62.7625 164.612 62.6149 163.914C62.4685 163.217 62.5436 162.538 62.8396 161.879L63.1162 161.265C63.6049 160.178 64.4296 159.5 65.5899 159.23C66.7505 158.959 68.034 159.14 69.4406 159.773L78.3373 163.774L72.0885 177.667ZM68.4875 169.463C67.1878 168.878 66.3973 168.897 66.1169 169.521L65.9484 169.895C65.8045 170.216 65.8611 170.53 66.1188 170.839C66.3764 171.147 66.8165 171.442 67.4398 171.722L68.5617 172.227L69.5831 169.956L68.4875 169.463ZM70.1894 163.965C69.5844 163.693 69.0787 163.567 68.6728 163.588C68.2674 163.609 67.9845 163.797 67.824 164.154L67.6555 164.528C67.4954 164.884 67.5362 165.234 67.777 165.579C68.0192 165.923 68.4246 166.223 68.9936 166.479L70.7839 167.284L71.9254 164.746L70.1894 163.965Z" fill="#3F69FF"/>
<path d="M51.9325 168.794C52.7247 169.331 53.2262 169.966 53.4372 170.699C53.6482 171.432 53.518 172.146 53.0466 172.841C52.5859 173.52 51.9682 173.909 51.1927 174.008C50.4177 174.108 49.6339 173.889 48.8419 173.352C48.0177 172.793 47.4963 172.127 47.2773 171.353C47.0587 170.579 47.1795 169.853 47.6398 169.174C48.1112 168.479 48.7383 168.102 49.5218 168.044C50.3045 167.985 51.1078 168.235 51.9325 168.794ZM55.1062 169.177L50.2818 165.905L58.831 153.298L63.6554 156.57L55.1062 169.177Z" fill="#3F69FF"/>
<path d="M54.8179 156.014L53.5729 154.773C52.6765 155.203 51.5522 156.033 50.2008 157.265C48.8495 158.496 47.1682 160.122 45.1552 162.142L35.3612 152.383L43.2391 144.477L41.7033 142.947L47.224 137.406L51.1045 141.272L48.4581 143.929L53.8115 149.263L56.4582 146.607L60.3386 150.473L54.8179 156.014ZM47.3267 148.55L42.3022 153.592L44.2115 155.494C45.3835 154.401 46.4453 153.467 47.3963 152.692C48.3477 151.917 49.1682 151.377 49.8582 151.072L47.3267 148.55Z" fill="#3F69FF"/>
<path d="M18.3491 135.202L36.4899 125.643L39.1119 130.618L28.0979 136.422C28.5598 136.797 29.0113 137.255 29.4505 137.796C29.8903 138.337 30.3146 138.996 30.7243 139.773L26.889 141.795C26.1284 140.519 25.2235 139.692 24.176 139.317C23.1285 138.943 21.9828 139.083 20.7385 139.738L18.3491 135.202Z" fill="#3F69FF"/>
<path d="M33.745 116.567C34.3381 118.611 34.3675 120.428 33.8317 122.017C33.2967 123.606 32.2011 124.946 30.5448 126.036L28.0984 121.286C29.0099 120.432 29.275 119.349 28.8933 118.036C28.6429 117.173 28.2281 116.531 27.648 116.109C27.0683 115.688 26.3844 115.592 25.5963 115.82C24.8648 116.032 24.361 116.433 24.0847 117.021C23.8083 117.61 23.7921 118.327 24.0373 119.17C24.2442 119.883 24.4773 120.441 24.7365 120.844C24.9957 121.246 25.4119 121.629 25.9846 121.992L26.0145 126.192L15.2097 127.956L11.5594 115.38L16.3418 113.992L18.8489 122.629L21.4224 122.248C20.935 121.759 20.566 121.276 20.3158 120.8C20.0657 120.323 19.8451 119.757 19.6551 119.1C19.0019 116.85 19.0679 114.975 19.8528 113.476C20.638 111.978 22.006 110.945 23.9563 110.379C25.0814 110.052 26.1567 109.954 27.1803 110.084C28.2044 110.213 29.1416 110.551 29.9916 111.098C30.8418 111.644 31.5887 112.379 32.2319 113.3C32.8758 114.221 33.3802 115.31 33.745 116.567Z" fill="#3F69FF"/>
<path d="M30.8961 98.8052C30.9361 100.172 30.723 101.419 30.2578 102.546C29.7926 103.673 29.1033 104.645 28.1889 105.463C27.2748 106.281 26.1653 106.92 24.8599 107.378C23.5544 107.836 22.082 108.089 20.4425 108.137C18.8025 108.185 17.3179 108.018 15.9877 107.637C14.6579 107.256 13.5132 106.683 12.5527 105.921C11.5926 105.157 10.847 104.227 10.3168 103.128C9.78649 102.03 9.50137 100.798 9.46181 99.4314C9.42136 98.0459 9.63359 96.7888 10.0988 95.6618C10.5641 94.5348 11.2538 93.5618 12.1675 92.7438C13.0815 91.9256 14.1909 91.2882 15.4963 90.83C16.8018 90.3717 18.2747 90.1185 19.9142 90.0708C21.5541 90.0228 23.0387 90.1895 24.3685 90.5706C25.6985 90.9523 26.8435 91.5241 27.8035 92.2873C28.7635 93.0504 29.5087 93.9812 30.0389 95.0796C30.5692 96.178 30.8556 97.4196 30.8961 98.8052ZM25.8305 98.9531C25.7998 97.8991 25.2882 97.1077 24.2957 96.5804C23.3035 96.0523 21.9001 95.815 20.084 95.8683C18.2684 95.9213 16.8813 96.2401 15.9213 96.8248C14.9616 97.41 14.4972 98.2292 14.5279 99.2833C14.5582 100.318 15.0697 101.104 16.0622 101.641C17.055 102.179 18.4588 102.421 20.2739 102.368C22.0895 102.315 23.4771 101.992 24.4362 101.397C25.3965 100.802 25.8607 99.9881 25.8305 98.9531Z" fill="#3F69FF"/>
<path d="M31.0243 83.3018C30.5885 84.4249 30.0633 85.477 29.4493 86.4585C28.8352 87.4407 28.1757 88.2917 27.4711 89.0127L23.5769 85.6627C23.939 85.305 24.2988 84.8659 24.6576 84.3464C25.0164 83.827 25.3504 83.2828 25.6603 82.712C25.9704 82.1416 26.2487 81.5592 26.4934 80.9639C26.7391 80.3692 26.9206 79.8141 27.0375 79.3C27.3319 78.0054 27.2508 77.3057 26.794 77.2019C26.6795 77.1759 26.5546 77.1977 26.4185 77.2669C26.2824 77.3361 26.1246 77.4807 25.9444 77.6998C25.7645 77.9194 25.5507 78.2213 25.3027 78.6052C25.055 78.9896 24.7692 79.4955 24.4466 80.1228C23.8089 81.34 23.195 82.3669 22.6037 83.2034C22.013 84.0408 21.4085 84.694 20.7904 85.1641C20.1726 85.6346 19.5434 85.9369 18.9013 86.0712C18.2599 86.2058 17.5674 86.1882 16.8248 86.0192C15.3395 85.6812 14.1972 84.9157 13.3971 83.7217C12.5976 82.5287 12.205 81.0622 12.2203 79.3229L9.42087 78.6856L10.4679 74.0864L13.1528 74.6978C13.5306 73.7426 13.9813 72.8187 14.5048 71.9262C15.0285 71.0341 15.6139 70.2209 16.2621 69.4871L20.1109 72.3762C19.4011 73.2961 18.8022 74.2315 18.3155 75.1824C17.8289 76.1334 17.4813 77.0655 17.2734 77.9799C17.1085 78.7039 17.0552 79.2473 17.1125 79.6104C17.17 79.9741 17.3414 80.188 17.6272 80.2531C17.8751 80.3097 18.1129 80.2539 18.3414 80.0852C18.5703 79.917 18.7844 79.6802 18.984 79.3753C19.1839 79.0707 19.3774 78.7239 19.566 78.3363C19.7547 77.9488 19.9437 77.5566 20.1344 77.1585C20.734 75.9334 21.3197 74.8998 21.8914 74.0584C22.4633 73.2175 23.0499 72.5548 23.6505 72.0706C24.2513 71.5868 24.8728 71.2778 25.5139 71.1428C26.1556 71.0087 26.8475 71.0253 27.5897 71.1946C29.2088 71.563 30.4122 72.4127 31.2007 73.7439C31.9895 75.0756 32.2982 76.733 32.1267 78.7167L34.8114 79.3276L33.7648 83.9265L31.0243 83.3018Z" fill="#3F69FF"/>
</g>
<defs>
<clipPath id="clip0_8597_54265">
<rect width="200.001" height="200" fill="white" transform="translate(-0.000244141 0.200012)"/>
</clipPath>
</defs>
</svg>
