<svg width="360" height="276" viewBox="0 0 360 276" fill="none" xmlns="http://www.w3.org/2000/svg">
<path d="M5.05896 275.523C23.9309 271.717 41.2276 265.558 58.2229 256.608C58.2388 256.603 58.2547 256.598 58.2705 256.592C58.63 256.402 58.9894 256.249 59.3489 256.059C64.0008 253.574 60.1049 245.957 55.2626 247.828C44.0822 252.147 32.9282 254.975 21.3618 256.487C63.3136 216.782 102.384 174.217 137.771 128.517C155.585 105.511 171.661 81.1995 189.687 58.3734C199.979 45.3375 211.16 32.0795 224.185 21.655C236.079 12.1397 238.506 7.64111 251.674 17.0824C264.562 26.3228 264.646 30.7262 266.914 47.2141C270.657 74.4595 265.069 100.368 262.22 127.253C260.624 142.33 260.301 159.484 270.8 171.759C295.418 200.542 337.317 179.455 359.651 159.51C360.671 158.601 359.191 157.264 358.16 157.829C344.469 165.304 332.094 174.682 316.536 177.954C283.291 184.942 266.639 157.533 270.017 128.691C272.597 106.658 277.508 85.3968 276.842 63.0412C276.096 37.9684 268.712 -14.4872 232.442 4.45878C188.075 27.6285 160.375 84.4188 130.835 122.538C95.729 167.852 57.0071 210.068 15.4359 249.482C17.8253 240.845 20.2411 232.212 22.5829 223.559C24.1477 217.77 15.05 216.168 13.443 221.878C8.92322 237.9 4.54091 253.965 0.116301 270.02C-0.61849 272.689 2.23081 276.094 5.05896 275.523Z" fill="black"/>
</svg>
