<svg width="119" height="129" viewBox="0 0 119 129" fill="none" xmlns="http://www.w3.org/2000/svg">
<g clip-path="url(#clip0_8597_54312)">
<path d="M59.4081 121.756C22.9061 90.924 34.825 42.8732 63.6771 11.9757C65.4015 21.7492 67.0836 31.5378 69.1764 41.2425C70.0121 45.1076 75.5382 43.4668 74.998 39.7281C73.3567 28.3476 71.1608 17.0507 69.1257 5.73514C68.7415 3.59991 66.0914 2.80074 64.3742 3.74581C62.8328 4.59396 61.2969 5.44358 59.759 6.28972C48.9847 9.10465 40.8643 13.6491 32.5976 21.4099C29.8965 23.9438 33.3734 28.191 36.5068 26.47C40.9063 24.0506 45.3058 21.6312 49.7068 19.2063C26.5407 52.0732 20.036 97.8797 57.343 124.484C58.9221 125.604 60.8966 123.017 59.4081 121.756Z" fill="black"/>
</g>
<defs>
<clipPath id="clip0_8597_54312">
<rect width="104.325" height="75.7989" fill="white" transform="translate(66) rotate(60)"/>
</clipPath>
</defs>
</svg>
