<svg width="171" height="361" viewBox="0 0 171 361" fill="none" xmlns="http://www.w3.org/2000/svg">
<path d="M148.345 357.877C158.138 335.255 165.557 312.316 170.66 288.174C171.853 282.527 164.047 278.645 160.991 284.101C156.276 292.514 152.182 300.928 148.554 309.526C144.788 192.497 93.2825 78.3008 4.2076 1.1384C1.86211 -0.888895 -1.53378 2.40248 0.763962 4.57884C90.7639 89.8862 141.231 205.955 138.318 329.781C134.493 321.123 130.667 312.465 126.841 303.802C124.066 297.523 114.845 302.955 117.603 309.198C124.77 325.422 131.938 341.647 139.106 357.871C140.646 361.359 146.823 361.395 148.345 357.877Z" fill="black"/>
</svg>
