<svg width="41" height="41" viewBox="0 0 41 41" fill="none" xmlns="http://www.w3.org/2000/svg">
<path d="M20.5 0.500488C15 0.500488 10 2.75049 6.37 6.38049C2.75 10.0005 0.5 15.0005 0.5 20.5005C0.5 26.0005 2.75 31.0005 6.37 34.6205C10 38.2505 15 40.5005 20.5 40.5005C26 40.5005 31 38.2505 34.63 34.6205C38.25 31.0005 40.5 26.0005 40.5 20.5005C40.5 9.50049 31.5 0.500488 20.5 0.500488ZM29.3 26.0005C29.2 26.7005 28.8 27.3005 28.3 27.8005C27.7 28.3005 27 28.5005 26.3 28.5005H14.8C14 28.5005 13.3 28.3005 12.8 27.8005C12.3 27.3005 11.9 26.7005 11.8 26.0005L10.5 18.9005C10.5 18.5005 10.5 18.2005 10.7 17.7005C10.9 17.4005 11.1 17.1005 11.4 16.9005C11.7 16.7005 12 16.5005 12.4 16.5005C12.8 16.5005 13.2 16.5005 13.5 16.7005L16.3 18.1005L18.9 13.5005C19 13.1005 19.3 12.9005 19.6 12.7005C19.9 12.5005 20.2 12.4005 20.6 12.4005C20.9 12.4005 21.3 12.5005 21.6 12.7005C21.9 12.9005 22.1 13.2005 22.3 13.5005L24.8 18.1005L27.6 16.8005C28 16.6005 28.3 16.6005 28.7 16.6005C29.1 16.6005 29.4 16.8005 29.7 17.0005C30 17.2005 30.2 17.5005 30.4 17.9005C30.5 18.2005 30.5 18.5005 30.5 18.9005L29.3 26.0005Z" fill="#3F69FF"/>
</svg>
