<svg width="104" height="33" viewBox="0 0 104 33" fill="none" xmlns="http://www.w3.org/2000/svg">
<path d="M10.0546 16.3167V16.6843C10.0546 17.1714 9.99024 17.6309 9.87077 18.0444C9.7513 18.458 9.58588 18.8256 9.36532 19.1289C9.14476 19.4321 8.89663 19.6711 8.60255 19.8457C8.31766 20.0203 8.0052 20.1122 7.68355 20.1122H7.3619C7.03106 20.1122 6.72779 20.0203 6.43372 19.8457C6.14883 19.6711 5.9007 19.4321 5.68014 19.1289C5.45958 18.8256 5.29416 18.458 5.17469 18.0444C5.04603 17.6309 4.99089 17.1714 4.99089 16.6843V16.3167C4.99089 15.8297 5.04603 15.3794 5.17469 14.9658C5.29416 14.5431 5.45958 14.1847 5.68014 13.8814C5.9007 13.5781 6.14883 13.33 6.43372 13.1646C6.72779 12.99 7.03106 12.8981 7.3619 12.8981H7.68355C8.0052 12.8981 8.31766 12.99 8.60255 13.1646C8.89663 13.33 9.14476 13.5781 9.36532 13.8814C9.58588 14.1847 9.7513 14.5431 9.87077 14.9658C9.99024 15.3794 10.0546 15.8297 10.0546 16.3167ZM27.5799 14.9658C27.4604 14.5431 27.295 14.1847 27.0744 13.8814C26.8538 13.5781 26.6057 13.33 26.3208 13.1646C26.0267 12.99 25.7235 12.8981 25.3926 12.8981H25.071C24.7493 12.8981 24.4369 12.99 24.152 13.1646C23.8579 13.33 23.6098 13.5781 23.3892 13.8814C23.1687 14.1847 23.0032 14.5431 22.8838 14.9658C22.7643 15.3794 22.7 15.8297 22.7 16.3167V16.6843C22.7 17.1714 22.7643 17.6309 22.8838 18.0444C23.0032 18.458 23.1687 18.8256 23.3892 19.1289C23.6098 19.4321 23.8579 19.6711 24.152 19.8457C24.4369 20.0203 24.7493 20.1122 25.071 20.1122H25.3926C25.7235 20.1122 26.0267 20.0203 26.3208 19.8457C26.6057 19.6711 26.8538 19.4321 27.0744 19.1289C27.295 18.8256 27.4604 18.458 27.5799 18.0444C27.7085 17.6309 27.7636 17.1714 27.7636 16.6843V16.3167C27.7636 15.8297 27.7085 15.3794 27.5799 14.9658ZM74.5498 16.3167V16.6843C74.5498 17.1714 74.4855 17.6309 74.366 18.0444C74.2466 18.458 74.0811 18.8256 73.8606 19.1289C73.64 19.4321 73.3919 19.6711 73.0978 19.8457C72.8129 20.0203 72.5005 20.1122 72.1788 20.1122H71.8572C71.5263 20.1122 71.223 20.0203 70.929 19.8457C70.6441 19.6711 70.396 19.4321 70.1754 19.1289C69.9548 18.8256 69.7894 18.458 69.6699 18.0444C69.5413 17.6309 69.4861 17.1714 69.4861 16.6843V16.3167C69.4861 15.8297 69.5413 15.3794 69.6699 14.9658C69.7894 14.5431 69.9548 14.1847 70.1754 13.8814C70.396 13.5781 70.6441 13.33 70.929 13.1646C71.223 12.99 71.5263 12.8981 71.8572 12.8981H72.1788C72.5005 12.8981 72.8129 12.99 73.0978 13.1646C73.3919 13.33 73.64 13.5781 73.8606 13.8814C74.0811 14.1847 74.2466 14.5431 74.366 14.9658C74.4855 15.3794 74.5498 15.8297 74.5498 16.3167ZM74.5498 16.3167V16.6843C74.5498 17.1714 74.4855 17.6309 74.366 18.0444C74.2466 18.458 74.0811 18.8256 73.8606 19.1289C73.64 19.4321 73.3919 19.6711 73.0978 19.8457C72.8129 20.0203 72.5005 20.1122 72.1788 20.1122H71.8572C71.5263 20.1122 71.223 20.0203 70.929 19.8457C70.6441 19.6711 70.396 19.4321 70.1754 19.1289C69.9548 18.8256 69.7894 18.458 69.6699 18.0444C69.5413 17.6309 69.4861 17.1714 69.4861 16.6843V16.3167C69.4861 15.8297 69.5413 15.3794 69.6699 14.9658C69.7894 14.5431 69.9548 14.1847 70.1754 13.8814C70.396 13.5781 70.6441 13.33 70.929 13.1646C71.223 12.99 71.5263 12.8981 71.8572 12.8981H72.1788C72.5005 12.8981 72.8129 12.99 73.0978 13.1646C73.3919 13.33 73.64 13.5781 73.8606 13.8814C74.0811 14.1847 74.2466 14.5431 74.366 14.9658C74.4855 15.3794 74.5498 15.8297 74.5498 16.3167ZM74.5498 16.3167V16.6843C74.5498 17.1714 74.4855 17.6309 74.366 18.0444C74.2466 18.458 74.0811 18.8256 73.8606 19.1289C73.64 19.4321 73.3919 19.6711 73.0978 19.8457C72.8129 20.0203 72.5005 20.1122 72.1788 20.1122H71.8572C71.5263 20.1122 71.223 20.0203 70.929 19.8457C70.6441 19.6711 70.396 19.4321 70.1754 19.1289C69.9548 18.8256 69.7894 18.458 69.6699 18.0444C69.5413 17.6309 69.4861 17.1714 69.4861 16.6843V16.3167C69.4861 15.8297 69.5413 15.3794 69.6699 14.9658C69.7894 14.5431 69.9548 14.1847 70.1754 13.8814C70.396 13.5781 70.6441 13.33 70.929 13.1646C71.223 12.99 71.5263 12.8981 71.8572 12.8981H72.1788C72.5005 12.8981 72.8129 12.99 73.0978 13.1646C73.3919 13.33 73.64 13.5781 73.8606 13.8814C74.0811 14.1847 74.2466 14.5431 74.366 14.9658C74.4855 15.3794 74.5498 15.8297 74.5498 16.3167ZM99.9969 23.2919H103.011C102.239 24.4315 100.953 25.3137 99.3719 25.7181C86.7909 28.8702 49.0844 36.6541 5.38606 29.6881C4.28326 29.5135 3.29993 29.1 2.49122 28.521H4.99089V22.3821C5.51472 22.7865 6.10288 23.0989 6.75536 23.3195C7.40785 23.5492 8.0971 23.6595 8.8323 23.6595H9.03448C9.96267 23.6595 10.8173 23.4941 11.5985 23.1541C12.3796 22.814 13.0597 22.3362 13.6203 21.7296C14.1901 21.1231 14.6312 20.3971 14.9528 19.57C15.2745 18.7429 15.4399 17.8423 15.4399 16.8681V16.1421C15.4399 15.1588 15.2745 14.2582 14.9528 13.4311C14.6312 12.604 14.1901 11.8872 13.6203 11.2806C13.0597 10.6741 12.3796 10.1962 11.5985 9.85618C10.8173 9.51615 9.96267 9.34154 9.03448 9.34154H8.8323C7.90411 9.34154 7.05863 9.51615 6.28668 9.85618C5.50553 10.1962 4.84385 10.6741 4.28326 11.2806C4.2465 11.0049 4.20055 10.72 4.13622 10.426C4.08108 10.1411 4.00756 9.90213 3.91566 9.70914H0.304001V8.98313C0.304001 5.73907 3.80538 3.26696 7.6376 3.81836C10.2567 4.19515 13.5559 4.59951 17.4984 4.93954V23.2919H21.6247C21.6983 23.1081 21.7718 22.8692 21.8361 22.5935C21.9096 22.3086 21.9556 22.0329 21.9923 21.7572C22.5529 22.3637 23.2146 22.8324 23.9958 23.1633C24.7677 23.4941 25.6132 23.6595 26.5414 23.6595H26.7436C27.6718 23.6595 28.5172 23.4941 29.2984 23.1541C30.0703 22.814 30.7412 22.3362 31.3018 21.7296C31.8716 21.1231 32.3127 20.3971 32.6343 19.57C32.956 18.7429 33.1214 17.8423 33.1214 16.8681V16.1421C33.1214 15.1588 32.956 14.2582 32.6343 13.4311C32.3127 12.604 31.8716 11.8872 31.3018 11.2806C30.7412 10.6741 30.0703 10.1962 29.2984 9.85618C28.5172 9.51615 27.6718 9.34154 26.7436 9.34154H26.5414C25.0618 9.34154 23.7752 9.76428 22.7 10.6006V5.32552C33.2041 5.99639 47.2096 6.15262 64.2846 4.73736V23.2919H68.4109C68.4844 23.1081 68.5488 22.8692 68.6223 22.5935C68.6866 22.3086 68.7418 22.0329 68.7785 21.7572C69.3391 22.3637 70.0008 22.8324 70.7819 23.1633C71.5539 23.4941 72.3994 23.6595 73.3276 23.6595H73.5297C74.4579 23.6595 75.3034 23.4941 76.0754 23.1541C76.8565 22.814 77.5274 22.3362 78.088 21.7296C78.6577 21.1231 79.0989 20.3971 79.4205 19.57C79.7422 18.7429 79.9076 17.8423 79.9076 16.8681V16.1421C79.9076 15.1588 79.7422 14.2582 79.4205 13.4311C79.0989 12.604 78.6577 11.8872 78.088 11.2806C77.5274 10.6741 76.8565 10.1962 76.0754 9.85618C75.3034 9.51615 74.4579 9.34154 73.5297 9.34154H73.3276C71.8388 9.34154 70.5614 9.76428 69.4861 10.6006V4.48923H67.1519C76.0754 3.67132 85.7984 2.43068 96.2749 0.611062C99.8774 -0.0138567 103.287 2.07227 103.765 5.01306H100.438C100.438 6.2629 100.07 7.22784 99.3444 7.89871C98.6092 8.56958 97.5799 8.93718 96.2565 9.0107V12.8705C97.0377 12.8705 97.7361 12.8153 98.3427 12.6867C98.9584 12.5672 99.5098 12.4018 99.9969 12.1904V23.2919ZM49.7645 14.6717C49.7645 13.0175 49.3417 11.7217 48.4962 10.7844C47.6508 9.84699 46.4836 9.36911 45.004 9.36911H44.9305C44.0942 9.36911 43.212 9.58048 42.2746 10.0032C41.3464 10.4168 40.5101 11.0876 39.7566 12.0066C39.7566 11.8688 39.7474 11.7034 39.7198 11.5012C39.6922 11.299 39.6555 11.0968 39.6095 10.8763C39.5728 10.6557 39.5176 10.4443 39.4717 10.2513C39.4165 10.0492 39.3614 9.86537 39.3155 9.70914H35.1892V23.2919H40.3815V16.427C40.3815 15.6275 40.5837 14.9382 40.9972 14.3776C41.4016 13.8079 41.9622 13.523 42.6514 13.523H42.7341C43.9564 13.523 44.5629 14.3041 44.5629 15.848V23.2919H49.7645V14.6717ZM61.1233 15.3058H52.7696V19.377H61.1233V15.3058ZM95.264 18.9083H88.8402C89.557 18.4396 90.2739 17.8974 91.0091 17.3001C91.7351 16.7027 92.3968 16.0502 92.9757 15.3426C93.5639 14.635 94.0418 13.8722 94.4186 13.0451C94.7862 12.218 94.9791 11.345 94.9791 10.4168C94.9791 9.5621 94.8045 8.78095 94.4553 8.06413C94.1061 7.3565 93.619 6.74078 92.9941 6.22614C92.3692 5.7115 91.6156 5.30714 90.7609 5.02225C89.8971 4.73736 88.9597 4.59032 87.9488 4.59032C86.9563 4.59032 86.0465 4.72817 85.2194 5.01306C84.3923 5.28876 83.6663 5.69312 83.0506 6.22614C82.4348 6.75916 81.9294 7.40245 81.5342 8.17441C81.1482 8.93718 80.9001 9.80104 80.7898 10.7568L85.8903 11.5655C85.973 10.6465 86.2395 10.0032 86.6806 9.63562C87.1309 9.26802 87.618 9.08422 88.1602 9.08422C88.6656 9.08422 89.07 9.21288 89.3733 9.47939C89.6765 9.73671 89.8327 10.1043 89.8327 10.573C89.8327 11.2163 89.6214 11.878 89.217 12.558C88.8035 13.2381 88.2888 13.9365 87.6639 14.6533C87.2136 15.168 86.7173 15.6734 86.1843 16.1605C85.6605 16.6568 85.0999 17.1163 84.5301 17.5666C83.9512 18.0077 83.3722 18.4212 82.7748 18.8164C82.1867 19.2116 81.5985 19.5608 81.0287 19.8733V23.2919H95.264V18.9083ZM70.1754 19.1289C69.9548 18.8256 69.7894 18.458 69.6699 18.0444C69.5413 17.6309 69.4861 17.1714 69.4861 16.6843V16.3167C69.4861 15.8297 69.5413 15.3794 69.6699 14.9658C69.7894 14.5431 69.9548 14.1847 70.1754 13.8814C70.396 13.5781 70.6441 13.33 70.929 13.1646C71.223 12.99 71.5263 12.8981 71.8572 12.8981H72.1788C72.5005 12.8981 72.8129 12.99 73.0978 13.1646C73.3919 13.33 73.64 13.5781 73.8606 13.8814C74.0811 14.1847 74.2466 14.5431 74.366 14.9658C74.4855 15.3794 74.5498 15.8297 74.5498 16.3167V16.6843C74.5498 17.1714 74.4855 17.6309 74.366 18.0444C74.2466 18.458 74.0811 18.8256 73.8606 19.1289C73.64 19.4321 73.3919 19.6711 73.0978 19.8457C72.8129 20.0203 72.5005 20.1122 72.1788 20.1122H71.8572C71.5263 20.1122 71.223 20.0203 70.929 19.8457C70.6441 19.6711 70.396 19.4321 70.1754 19.1289ZM74.5498 16.3167V16.6843C74.5498 17.1714 74.4855 17.6309 74.366 18.0444C74.2466 18.458 74.0811 18.8256 73.8606 19.1289C73.64 19.4321 73.3919 19.6711 73.0978 19.8457C72.8129 20.0203 72.5005 20.1122 72.1788 20.1122H71.8572C71.5263 20.1122 71.223 20.0203 70.929 19.8457C70.6441 19.6711 70.396 19.4321 70.1754 19.1289C69.9548 18.8256 69.7894 18.458 69.6699 18.0444C69.5413 17.6309 69.4861 17.1714 69.4861 16.6843V16.3167C69.4861 15.8297 69.5413 15.3794 69.6699 14.9658C69.7894 14.5431 69.9548 14.1847 70.1754 13.8814C70.396 13.5781 70.6441 13.33 70.929 13.1646C71.223 12.99 71.5263 12.8981 71.8572 12.8981H72.1788C72.5005 12.8981 72.8129 12.99 73.0978 13.1646C73.3919 13.33 73.64 13.5781 73.8606 13.8814C74.0811 14.1847 74.2466 14.5431 74.366 14.9658C74.4855 15.3794 74.5498 15.8297 74.5498 16.3167ZM74.5498 16.3167V16.6843C74.5498 17.1714 74.4855 17.6309 74.366 18.0444C74.2466 18.458 74.0811 18.8256 73.8606 19.1289C73.64 19.4321 73.3919 19.6711 73.0978 19.8457C72.8129 20.0203 72.5005 20.1122 72.1788 20.1122H71.8572C71.5263 20.1122 71.223 20.0203 70.929 19.8457C70.6441 19.6711 70.396 19.4321 70.1754 19.1289C69.9548 18.8256 69.7894 18.458 69.6699 18.0444C69.5413 17.6309 69.4861 17.1714 69.4861 16.6843V16.3167C69.4861 15.8297 69.5413 15.3794 69.6699 14.9658C69.7894 14.5431 69.9548 14.1847 70.1754 13.8814C70.396 13.5781 70.6441 13.33 70.929 13.1646C71.223 12.99 71.5263 12.8981 71.8572 12.8981H72.1788C72.5005 12.8981 72.8129 12.99 73.0978 13.1646C73.3919 13.33 73.64 13.5781 73.8606 13.8814C74.0811 14.1847 74.2466 14.5431 74.366 14.9658C74.4855 15.3794 74.5498 15.8297 74.5498 16.3167ZM74.5498 16.3167V16.6843C74.5498 17.1714 74.4855 17.6309 74.366 18.0444C74.2466 18.458 74.0811 18.8256 73.8606 19.1289C73.64 19.4321 73.3919 19.6711 73.0978 19.8457C72.8129 20.0203 72.5005 20.1122 72.1788 20.1122H71.8572C71.5263 20.1122 71.223 20.0203 70.929 19.8457C70.6441 19.6711 70.396 19.4321 70.1754 19.1289C69.9548 18.8256 69.7894 18.458 69.6699 18.0444C69.5413 17.6309 69.4861 17.1714 69.4861 16.6843V16.3167C69.4861 15.8297 69.5413 15.3794 69.6699 14.9658C69.7894 14.5431 69.9548 14.1847 70.1754 13.8814C70.396 13.5781 70.6441 13.33 70.929 13.1646C71.223 12.99 71.5263 12.8981 71.8572 12.8981H72.1788C72.5005 12.8981 72.8129 12.99 73.0978 13.1646C73.3919 13.33 73.64 13.5781 73.8606 13.8814C74.0811 14.1847 74.2466 14.5431 74.366 14.9658C74.4855 15.3794 74.5498 15.8297 74.5498 16.3167Z" fill="white"/>
</svg>
