<svg width="518" height="161" viewBox="0 0 518 161" fill="none" xmlns="http://www.w3.org/2000/svg">
<path d="M49.1037 79.2826V81.1206C49.1037 83.5559 48.782 85.8534 48.1847 87.9211C47.5873 89.9888 46.7602 91.8268 45.6575 93.3431C44.5547 94.8594 43.314 96.0541 41.8437 96.9272C40.4192 97.8002 38.857 98.2597 37.2487 98.2597H35.6405C33.9863 98.2597 32.47 97.8002 30.9996 96.9272C29.5752 96.0541 28.3346 94.8594 27.2318 93.3431C26.129 91.8268 25.3019 89.9888 24.7046 87.9211C24.0613 85.8534 23.7856 83.5559 23.7856 81.1206V79.2826C23.7856 76.8473 24.0613 74.5958 24.7046 72.5281C25.3019 70.4144 26.129 68.6224 27.2318 67.1061C28.3346 65.5897 29.5752 64.3491 30.9996 63.522C32.47 62.649 33.9863 62.1895 35.6405 62.1895H37.2487C38.857 62.1895 40.4192 62.649 41.8437 63.522C43.314 64.3491 44.5547 65.5897 45.6575 67.1061C46.7602 68.6224 47.5873 70.4144 48.1847 72.5281C48.782 74.5958 49.1037 76.8473 49.1037 79.2826ZM136.729 72.5281C136.132 70.4144 135.305 68.6224 134.202 67.1061C133.099 65.5897 131.858 64.3491 130.434 63.522C128.964 62.649 127.447 62.1895 125.793 62.1895H124.185C122.577 62.1895 121.014 62.649 119.59 63.522C118.119 64.3491 116.879 65.5897 115.776 67.1061C114.673 68.6224 113.846 70.4144 113.249 72.5281C112.652 74.5958 112.33 76.8473 112.33 79.2826V81.1206C112.33 83.5559 112.652 85.8534 113.249 87.9211C113.846 89.9888 114.673 91.8268 115.776 93.3431C116.879 94.8594 118.119 96.0541 119.59 96.9272C121.014 97.8002 122.577 98.2597 124.185 98.2597H125.793C127.447 98.2597 128.964 97.8002 130.434 96.9272C131.858 96.0541 133.099 94.8594 134.202 93.3431C135.305 91.8268 136.132 89.9888 136.729 87.9211C137.372 85.8534 137.648 83.5559 137.648 81.1206V79.2826C137.648 76.8473 137.372 74.5958 136.729 72.5281ZM371.576 79.2826V81.1206C371.576 83.5559 371.254 85.8534 370.657 87.9211C370.059 89.9888 369.232 91.8268 368.13 93.3431C367.027 94.8594 365.786 96.0541 364.316 96.9272C362.891 97.8002 361.329 98.2597 359.721 98.2597H358.113C356.458 98.2597 354.942 97.8002 353.472 96.9272C352.047 96.0541 350.807 94.8594 349.704 93.3431C348.601 91.8268 347.774 89.9888 347.177 87.9211C346.533 85.8534 346.258 83.5559 346.258 81.1206V79.2826C346.258 76.8473 346.533 74.5958 347.177 72.5281C347.774 70.4144 348.601 68.6224 349.704 67.1061C350.807 65.5897 352.047 64.3491 353.472 63.522C354.942 62.649 356.458 62.1895 358.113 62.1895H359.721C361.329 62.1895 362.891 62.649 364.316 63.522C365.786 64.3491 367.027 65.5897 368.13 67.1061C369.232 68.6224 370.059 70.4144 370.657 72.5281C371.254 74.5958 371.576 76.8473 371.576 79.2826ZM371.576 79.2826V81.1206C371.576 83.5559 371.254 85.8534 370.657 87.9211C370.059 89.9888 369.232 91.8268 368.13 93.3431C367.027 94.8594 365.786 96.0541 364.316 96.9272C362.891 97.8002 361.329 98.2597 359.721 98.2597H358.113C356.458 98.2597 354.942 97.8002 353.472 96.9272C352.047 96.0541 350.807 94.8594 349.704 93.3431C348.601 91.8268 347.774 89.9888 347.177 87.9211C346.533 85.8534 346.258 83.5559 346.258 81.1206V79.2826C346.258 76.8473 346.533 74.5958 347.177 72.5281C347.774 70.4144 348.601 68.6224 349.704 67.1061C350.807 65.5897 352.047 64.3491 353.472 63.522C354.942 62.649 356.458 62.1895 358.113 62.1895H359.721C361.329 62.1895 362.891 62.649 364.316 63.522C365.786 64.3491 367.027 65.5897 368.13 67.1061C369.232 68.6224 370.059 70.4144 370.657 72.5281C371.254 74.5958 371.576 76.8473 371.576 79.2826ZM371.576 79.2826V81.1206C371.576 83.5559 371.254 85.8534 370.657 87.9211C370.059 89.9888 369.232 91.8268 368.13 93.3431C367.027 94.8594 365.786 96.0541 364.316 96.9272C362.891 97.8002 361.329 98.2597 359.721 98.2597H358.113C356.458 98.2597 354.942 97.8002 353.472 96.9272C352.047 96.0541 350.807 94.8594 349.704 93.3431C348.601 91.8268 347.774 89.9888 347.177 87.9211C346.533 85.8534 346.258 83.5559 346.258 81.1206V79.2826C346.258 76.8473 346.533 74.5958 347.177 72.5281C347.774 70.4144 348.601 68.6224 349.704 67.1061C350.807 65.5897 352.047 64.3491 353.472 63.522C354.942 62.649 356.458 62.1895 358.113 62.1895H359.721C361.329 62.1895 362.891 62.649 364.316 63.522C365.786 64.3491 367.027 65.5897 368.13 67.1061C369.232 68.6224 370.059 70.4144 370.657 72.5281C371.254 74.5958 371.576 76.8473 371.576 79.2826ZM498.809 114.158H513.881C510.021 119.856 503.588 124.267 495.685 126.289C432.78 142.049 244.25 180.968 25.7614 146.139C20.2475 145.266 15.3309 143.198 11.2874 140.303H23.7856V109.609C26.4047 111.631 29.3455 113.193 32.6079 114.296C35.8703 115.445 39.3165 115.996 42.9924 115.996H44.0033C48.6442 115.996 52.9174 115.169 56.8231 113.469C60.7288 111.769 64.1291 109.379 66.932 106.347C69.7808 103.314 71.9864 99.6841 73.5946 95.5487C75.2029 91.4132 76.0299 86.9102 76.0299 82.0396V78.4096C76.0299 73.493 75.2029 68.99 73.5946 64.8546C71.9864 60.7191 69.7808 57.1351 66.932 54.1024C64.1291 51.0698 60.7288 48.6804 56.8231 46.9803C52.9174 45.2802 48.6442 44.4071 44.0033 44.4071H42.9924C38.3515 44.4071 34.1242 45.2802 30.2645 46.9803C26.3588 48.6804 23.0504 51.0698 20.2475 54.1024C20.0637 52.7239 19.834 51.2995 19.5123 49.8291C19.2366 48.4047 18.869 47.21 18.4095 46.2451H0.351471V42.6151C0.351471 26.395 17.8581 14.0346 37.019 16.7916C50.1145 18.6755 66.6103 20.6973 86.3226 22.3974V114.158H106.954C107.321 113.239 107.689 112.044 108.011 110.666C108.378 109.242 108.608 107.863 108.792 106.485C111.595 109.517 114.903 111.861 118.809 113.515C122.668 115.169 126.896 115.996 131.537 115.996H132.548C137.188 115.996 141.416 115.169 145.321 113.469C149.181 111.769 152.535 109.379 155.338 106.347C158.187 103.314 160.393 99.6841 162.001 95.5487C163.609 91.4132 164.436 86.9102 164.436 82.0396V78.4096C164.436 73.493 163.609 68.99 162.001 64.8546C160.393 60.7191 158.187 57.1351 155.338 54.1024C152.535 51.0698 149.181 48.6804 145.321 46.9803C141.416 45.2802 137.188 44.4071 132.548 44.4071H131.537C124.139 44.4071 117.706 46.5208 112.33 50.7022V24.3273C164.85 27.6816 234.877 28.4627 320.25 21.3865V114.158H340.882C341.249 113.239 341.571 112.044 341.938 110.666C342.26 109.242 342.536 107.863 342.72 106.485C345.522 109.517 348.831 111.861 352.737 113.515C356.596 115.169 360.824 115.996 365.464 115.996H366.475C371.116 115.996 375.344 115.169 379.203 113.469C383.109 111.769 386.463 109.379 389.266 106.347C392.115 103.314 394.321 99.6841 395.929 95.5487C397.537 91.4132 398.364 86.9102 398.364 82.0396V78.4096C398.364 73.493 397.537 68.99 395.929 64.8546C394.321 60.7191 392.115 57.1351 389.266 54.1024C386.463 51.0698 383.109 48.6804 379.203 46.9803C375.344 45.2802 371.116 44.4071 366.475 44.4071H365.464C358.021 44.4071 351.634 46.5208 346.258 50.7022V20.1459H334.587C379.203 16.0564 427.818 9.85326 480.2 0.755298C498.212 -2.36925 515.259 8.06123 517.649 22.765H501.015C501.015 29.0141 499.177 33.8388 495.547 37.1931C491.871 40.5474 486.725 42.3853 480.108 42.7529V62.0516C484.014 62.0516 487.506 61.7759 490.538 61.1327C493.617 60.5353 496.374 59.7082 498.809 58.6514V114.158ZM247.651 71.0577C247.651 62.7868 245.537 56.308 241.31 51.6212C237.082 46.9343 231.247 44.545 223.849 44.545H223.481C219.3 44.545 214.889 45.6018 210.202 47.7155C205.561 49.7832 201.38 53.1375 197.612 57.7324C197.612 57.0432 197.566 56.2161 197.428 55.2052C197.29 54.1943 197.106 53.1834 196.877 52.0807C196.693 50.9779 196.417 49.921 196.187 48.9561C195.912 47.9452 195.636 47.0262 195.406 46.2451H174.775V114.158H200.736V79.834C200.736 75.8364 201.747 72.3902 203.815 69.5873C205.837 66.7385 208.64 65.314 212.086 65.314H212.499C218.611 65.314 221.643 69.2197 221.643 76.9392V114.158H247.651V71.0577ZM304.444 74.2282H262.676V94.5837H304.444V74.2282ZM475.145 92.2403H443.027C446.611 89.8969 450.195 87.1859 453.871 84.1992C457.501 81.2125 460.809 77.9501 463.704 74.412C466.645 70.8739 469.034 67.0601 470.918 62.9247C472.756 58.7892 473.721 54.4241 473.721 49.7832C473.721 45.5099 472.848 41.6042 471.102 38.0202C469.356 34.4821 466.921 31.4035 463.796 28.8303C460.671 26.2571 456.904 24.2354 452.63 22.811C448.311 21.3865 443.624 20.6513 438.57 20.6513C433.607 20.6513 429.058 21.3406 424.923 22.765C420.787 24.1435 417.157 26.1653 414.079 28.8303C411 31.4954 408.473 34.7118 406.497 38.5716C404.567 42.3853 403.327 46.7046 402.775 51.4833L428.277 55.5268C428.691 50.9319 430.023 47.7155 432.229 45.8775C434.48 44.0395 436.916 43.1205 439.627 43.1205C442.154 43.1205 444.176 43.7638 445.692 45.0964C447.208 46.3829 447.989 48.2209 447.989 50.5643C447.989 53.7808 446.933 57.0891 444.911 60.4894C442.843 63.8896 440.27 67.3818 437.145 70.9658C434.894 73.539 432.413 76.0662 429.747 78.5015C427.128 80.9827 424.326 83.2802 421.477 85.5317C418.582 87.7373 415.687 89.805 412.7 91.7808C409.76 93.7566 406.819 95.5027 403.97 97.065V114.158H475.145V92.2403ZM349.704 93.3431C348.601 91.8268 347.774 89.9888 347.177 87.9211C346.533 85.8534 346.258 83.5559 346.258 81.1206V79.2826C346.258 76.8473 346.533 74.5958 347.177 72.5281C347.774 70.4144 348.601 68.6224 349.704 67.1061C350.807 65.5897 352.047 64.3491 353.472 63.522C354.942 62.649 356.458 62.1895 358.113 62.1895H359.721C361.329 62.1895 362.891 62.649 364.316 63.522C365.786 64.3491 367.027 65.5897 368.13 67.1061C369.232 68.6224 370.059 70.4144 370.657 72.5281C371.254 74.5958 371.576 76.8473 371.576 79.2826V81.1206C371.576 83.5559 371.254 85.8534 370.657 87.9211C370.059 89.9888 369.232 91.8268 368.13 93.3431C367.027 94.8594 365.786 96.0541 364.316 96.9272C362.891 97.8002 361.329 98.2597 359.721 98.2597H358.113C356.458 98.2597 354.942 97.8002 353.472 96.9272C352.047 96.0541 350.807 94.8594 349.704 93.3431ZM371.576 79.2826V81.1206C371.576 83.5559 371.254 85.8534 370.657 87.9211C370.059 89.9888 369.232 91.8268 368.13 93.3431C367.027 94.8594 365.786 96.0541 364.316 96.9272C362.891 97.8002 361.329 98.2597 359.721 98.2597H358.113C356.458 98.2597 354.942 97.8002 353.472 96.9272C352.047 96.0541 350.807 94.8594 349.704 93.3431C348.601 91.8268 347.774 89.9888 347.177 87.9211C346.533 85.8534 346.258 83.5559 346.258 81.1206V79.2826C346.258 76.8473 346.533 74.5958 347.177 72.5281C347.774 70.4144 348.601 68.6224 349.704 67.1061C350.807 65.5897 352.047 64.3491 353.472 63.522C354.942 62.649 356.458 62.1895 358.113 62.1895H359.721C361.329 62.1895 362.891 62.649 364.316 63.522C365.786 64.3491 367.027 65.5897 368.13 67.1061C369.232 68.6224 370.059 70.4144 370.657 72.5281C371.254 74.5958 371.576 76.8473 371.576 79.2826ZM371.576 79.2826V81.1206C371.576 83.5559 371.254 85.8534 370.657 87.9211C370.059 89.9888 369.232 91.8268 368.13 93.3431C367.027 94.8594 365.786 96.0541 364.316 96.9272C362.891 97.8002 361.329 98.2597 359.721 98.2597H358.113C356.458 98.2597 354.942 97.8002 353.472 96.9272C352.047 96.0541 350.807 94.8594 349.704 93.3431C348.601 91.8268 347.774 89.9888 347.177 87.9211C346.533 85.8534 346.258 83.5559 346.258 81.1206V79.2826C346.258 76.8473 346.533 74.5958 347.177 72.5281C347.774 70.4144 348.601 68.6224 349.704 67.1061C350.807 65.5897 352.047 64.3491 353.472 63.522C354.942 62.649 356.458 62.1895 358.113 62.1895H359.721C361.329 62.1895 362.891 62.649 364.316 63.522C365.786 64.3491 367.027 65.5897 368.13 67.1061C369.232 68.6224 370.059 70.4144 370.657 72.5281C371.254 74.5958 371.576 76.8473 371.576 79.2826ZM371.576 79.2826V81.1206C371.576 83.5559 371.254 85.8534 370.657 87.9211C370.059 89.9888 369.232 91.8268 368.13 93.3431C367.027 94.8594 365.786 96.0541 364.316 96.9272C362.891 97.8002 361.329 98.2597 359.721 98.2597H358.113C356.458 98.2597 354.942 97.8002 353.472 96.9272C352.047 96.0541 350.807 94.8594 349.704 93.3431C348.601 91.8268 347.774 89.9888 347.177 87.9211C346.533 85.8534 346.258 83.5559 346.258 81.1206V79.2826C346.258 76.8473 346.533 74.5958 347.177 72.5281C347.774 70.4144 348.601 68.6224 349.704 67.1061C350.807 65.5897 352.047 64.3491 353.472 63.522C354.942 62.649 356.458 62.1895 358.113 62.1895H359.721C361.329 62.1895 362.891 62.649 364.316 63.522C365.786 64.3491 367.027 65.5897 368.13 67.1061C369.232 68.6224 370.059 70.4144 370.657 72.5281C371.254 74.5958 371.576 76.8473 371.576 79.2826Z" fill="#3F69FF"/>
</svg>
