<svg width="240" height="68" viewBox="0 0 240 68" fill="none" xmlns="http://www.w3.org/2000/svg">
<path d="M228.121 67.5005H11.2168C5.02231 67.5005 0 62.4782 0 56.2838L0 11.4167C0 5.22226 5.02231 0.199951 11.2168 0.199951L228.121 0.199951C234.315 0.199951 239.338 5.22226 239.338 11.4167V56.2838C239.338 62.4782 234.315 67.5005 228.121 67.5005Z" fill="url(#paint0_linear_8591_61872)"/>
<path d="M44.8671 19.361H56.9223C59.976 19.361 62.4493 20.292 64.3478 22.1539C66.2434 24.0159 67.1912 26.464 67.1912 29.5037C67.1912 32.5322 66.2126 34.9775 64.2552 36.8479C62.2979 38.7155 59.7517 39.6521 56.6138 39.6521H51.0671V48.9956H44.8671V19.361ZM51.0699 24.2683V34.8064H55.2594C57.0401 34.8064 58.4225 34.3466 59.4068 33.4296C60.3911 32.5126 60.8846 31.2115 60.8846 29.5262C60.8846 27.8408 60.3939 26.5453 59.418 25.6339C58.4365 24.7226 57.0597 24.2683 55.279 24.2683H51.0699Z" fill="white"/>
<path d="M83.9715 48.9956H70.8479V19.361H83.7472C86.5261 19.361 88.7302 20.0228 90.3595 21.3519C91.9887 22.6811 92.8047 24.4814 92.8047 26.7556C92.8047 28.3708 92.2747 29.7869 91.2119 31.0068C90.1492 32.2266 88.8256 32.9501 87.2384 33.1828V33.3483C89.2658 33.4997 90.9343 34.2456 92.2495 35.586C93.5647 36.9292 94.2208 38.5725 94.2208 40.5158C94.2208 43.1349 93.3039 45.1988 91.4699 46.7215C89.6332 48.2357 87.1346 48.9956 83.9715 48.9956ZM77.0508 23.9795V31.6826H81.5066C83.1639 31.6826 84.4426 31.3349 85.3484 30.645C86.2513 29.9524 86.7028 28.9765 86.7028 27.7174C86.7028 26.5257 86.3046 25.6059 85.511 24.9553C84.7174 24.3076 83.5929 23.9795 82.1432 23.9795H77.0508ZM77.0508 44.3743H82.39C84.1846 44.3743 85.5475 44.0014 86.4869 43.2583C87.4235 42.5096 87.8946 41.4356 87.8946 40.0222C87.8946 38.6426 87.4123 37.5882 86.4448 36.8619C85.4802 36.1356 84.0809 35.7711 82.2441 35.7711H77.048L77.0508 44.3743Z" fill="white"/>
<path d="M103.691 48.9956H97.7541V19.361H102.931L116.775 38.6678H116.94V19.361H122.877V48.9956H117.742L103.878 29.585H103.693L103.691 48.9956Z" fill="white"/>
<path d="M141.379 39.5709H127.885V34.3326H141.379V39.5709Z" fill="white"/>
<path d="M159.514 48.9956H146.387V19.361H159.286C162.065 19.361 164.27 20.0228 165.899 21.3519C167.528 22.6811 168.344 24.4814 168.344 26.7556C168.344 28.3708 167.814 29.7869 166.751 31.0068C165.691 32.2266 164.365 32.9501 162.778 33.1828V33.3483C164.805 33.4997 166.474 34.2456 167.789 35.586C169.104 36.9292 169.76 38.5725 169.76 40.5158C169.76 43.1349 168.843 45.1988 167.009 46.7215C165.175 48.2357 162.677 48.9956 159.514 48.9956ZM152.593 23.9795V31.6826H157.052C158.709 31.6826 159.988 31.3349 160.89 30.645C161.793 29.9524 162.245 28.9765 162.245 27.7174C162.245 26.5257 161.847 25.6059 161.053 24.9553C160.26 24.3076 159.138 23.9795 157.685 23.9795H152.593ZM152.593 44.3743H157.932C159.727 44.3743 161.092 44.0014 162.029 43.2583C162.968 42.5096 163.437 41.4356 163.437 40.0222C163.437 38.6426 162.954 37.5882 161.987 36.8619C161.022 36.1356 159.623 35.7711 157.789 35.7711H152.59L152.593 44.3743Z" fill="white"/>
<path d="M172.576 28.2727C172.576 25.4685 173.591 23.1719 175.624 21.3828C177.66 19.5966 180.29 18.7048 183.52 18.7048C186.627 18.7048 189.162 19.5068 191.12 21.1164C193.077 22.7232 194.058 24.7759 194.058 27.266C194.058 28.155 193.924 29.0158 193.655 29.8431C193.388 30.6731 192.965 31.5004 192.382 32.3304C191.801 33.1576 191.215 33.9064 190.626 34.5681C190.037 35.2327 189.272 36.0375 188.327 36.9797L181.1 43.9454V44.0687H194.473V48.9985H172.926V44.8315L184.098 34.069C185.604 32.5631 186.633 31.3489 187.191 30.432C187.743 29.515 188.024 28.5419 188.024 27.5156C188.024 26.3939 187.578 25.4489 186.686 24.6806C185.794 23.9122 184.673 23.5308 183.318 23.5308C181.88 23.5308 180.688 23.9795 179.746 24.8741C178.801 25.7714 178.33 26.9071 178.33 28.2727V28.3765H172.578L172.576 28.2727Z" fill="white"/>
<defs>
<linearGradient id="paint0_linear_8591_61872" x1="46.2947" y1="107.225" x2="193.043" y2="-39.5242" gradientUnits="userSpaceOnUse">
<stop stop-color="#4CE49B"/>
<stop offset="0.25" stop-color="#4EB5FF"/>
<stop offset="0.5" stop-color="#933FFF"/>
<stop offset="0.75" stop-color="#F20056"/>
<stop offset="1" stop-color="#FFDA44"/>
</linearGradient>
</defs>
</svg>
