<svg width="48" height="49" viewBox="0 0 48 49" fill="none" xmlns="http://www.w3.org/2000/svg">
<path fill-rule="evenodd" clip-rule="evenodd" d="M20.9997 42.233C18.9927 42.233 16.9857 42.2 14.9817 42.2C14.3487 42.191 13.7217 42.161 13.0947 42.08C11.7417 41.909 10.4157 41.549 9.1617 41.018C7.2747 40.22 5.5557 39.032 4.1427 37.547C2.6427 35.972 1.4877 34.073 0.788704 32.009C0.305704 30.584 0.0417036 29.09 0.00570356 27.587C-0.0332964 26.111 0.146704 24.632 0.536704 23.213C1.2267 20.717 2.5707 18.416 4.4007 16.589C4.8807 16.109 5.3937 15.662 5.9307 15.254C6.2907 14.981 6.6567 14.693 7.0647 14.504C7.3587 14.366 7.6647 14.288 7.9827 14.24C8.1447 14.228 8.3007 14.222 8.4627 14.222C8.9457 14.255 9.4077 14.375 9.8307 14.618C10.1067 14.777 10.3587 14.981 10.5717 15.218C11.2917 16.022 11.5257 17.183 11.1717 18.206C10.9947 18.71 10.6857 19.163 10.2777 19.508C10.0197 19.727 9.7257 19.904 9.4557 20.114C9.2787 20.255 9.1047 20.399 8.9367 20.552C8.3037 21.14 7.7487 21.803 7.2987 22.541C6.1287 24.467 5.7297 26.807 6.1827 29.015C6.3297 29.735 6.5667 30.434 6.8847 31.097C7.2957 31.946 7.8387 32.726 8.4867 33.407C9.2337 34.193 10.1247 34.841 11.1027 35.312C12.2517 35.867 13.4937 36.149 14.7657 36.197C16.8447 36.224 18.9207 36.215 20.9997 36.209V29.825C20.9997 28.376 22.0437 27.2 23.3337 27.2C23.9007 27.2 24.4197 27.428 24.8247 27.806L34.0347 35.576C34.6197 36.053 35.0007 36.827 35.0007 37.7C35.0007 38.573 34.6197 39.347 34.0347 39.824L24.8247 47.594C24.4197 47.972 23.9007 48.2 23.3337 48.2C22.0437 48.2 20.9997 47.024 20.9997 45.575V42.233ZM26.9998 12.191V18.575C26.9998 20.024 25.9558 21.2 24.6658 21.2C24.0988 21.2 23.5798 20.972 23.1748 20.594L13.9648 12.824C13.3798 12.347 12.9988 11.573 12.9988 10.7C12.9988 9.82695 13.3798 9.05295 13.9648 8.57595L23.1748 0.805951C23.5798 0.427951 24.0988 0.199951 24.6658 0.199951C25.9558 0.199951 26.9998 1.37595 26.9998 2.82495V6.15795C29.1268 6.14895 31.2568 6.17895 33.3838 6.20595C34.0198 6.22995 34.6498 6.27495 35.2798 6.37395C36.8638 6.61395 38.4028 7.11195 39.8278 7.84395C41.4358 8.66595 42.8878 9.77895 44.0998 11.114C45.2368 12.365 46.1608 13.805 46.8208 15.362C47.3488 16.616 47.7088 17.9419 47.8798 19.295C48.0988 21.0289 48.0178 22.799 47.6338 24.506C46.9468 27.56 45.2818 30.356 42.9418 32.429C42.6028 32.729 42.2518 33.014 41.8858 33.281C41.6278 33.473 41.3638 33.674 41.0758 33.824C40.6528 34.052 40.1758 34.175 39.6988 34.178C38.4478 34.193 37.2898 33.401 36.8518 32.2309C36.7408 31.931 36.6778 31.613 36.6658 31.295C36.6508 30.923 36.7048 30.548 36.8278 30.194C37.0048 29.69 37.3138 29.237 37.7218 28.892C37.9798 28.673 38.2738 28.496 38.5438 28.286C38.7208 28.145 38.8948 28.0009 39.0628 27.8479C39.6958 27.26 40.2508 26.597 40.7008 25.859C41.8708 23.933 42.2698 21.593 41.8168 19.385C41.6698 18.665 41.4328 17.966 41.1148 17.303C40.7038 16.454 40.1608 15.674 39.5128 14.993C38.7658 14.207 37.8748 13.559 36.8968 13.088C35.7478 12.533 34.5058 12.251 33.2338 12.203C31.1548 12.176 29.0788 12.185 26.9998 12.191Z" fill="white"/>
</svg>
