<svg width="48" height="49" viewBox="0 0 48 49" fill="none" xmlns="http://www.w3.org/2000/svg">
<path fill-rule="evenodd" clip-rule="evenodd" d="M14.6765 29.0035L17.8256 32.1527C19.0645 33.3955 21.0787 33.3955 22.3215 32.1527C23.5604 30.9138 23.5604 28.8996 22.3215 27.6608L19.616 24.9553C17.7457 23.085 17.7457 20.0478 19.616 18.1735L29.5789 8.2146C31.4492 6.34432 34.4864 6.34432 36.3607 8.2146L39.9973 11.8553C41.8716 13.7256 41.8716 16.7628 39.9973 18.6371L39.8535 18.7809L39.8095 18.8249L38.3508 20.1836C37.06 21.4745 37.06 23.5685 38.3508 24.8593C39.6416 26.1502 41.7357 26.1502 43.0225 24.8593L44.2055 23.7763L44.8409 23.1409C49.053 18.9288 49.053 12.0911 44.8409 7.87891L40.321 3.35906C36.1089 -0.853084 29.2712 -0.853084 25.059 3.35906L14.6765 13.7455C10.4644 17.9537 10.4644 24.7914 14.6765 29.0035ZM33.3235 19.3962L30.1544 16.2271C28.9155 14.9843 26.9013 14.9843 25.6625 16.2271C24.4196 17.466 24.4196 19.4802 25.6625 20.723L28.384 23.4445C30.2543 25.3148 30.2543 28.352 28.384 30.2263L18.4211 40.1852C16.5508 42.0555 13.5136 42.0555 11.6393 40.1852L8.00266 36.5445C6.12838 34.6742 6.12838 31.637 8.00266 29.7627L8.14653 29.6189L8.19049 29.5749L9.56923 28.1962C10.86 26.9054 10.86 24.8113 9.56923 23.5245C8.27841 22.2336 6.18433 22.2336 4.89751 23.5245L3.1591 25.2589C-1.05303 29.471 -1.05303 36.3087 3.1591 40.5209L7.67896 45.0407C11.8911 49.2529 18.7288 49.2529 22.941 45.0407L33.3235 34.6543C37.5356 30.4461 37.5356 23.6084 33.3235 19.3962Z" fill="white"/>
</svg>
