<svg width="65" height="64" viewBox="0 0 65 64" fill="none" xmlns="http://www.w3.org/2000/svg">
<path d="M41.9593 32C41.9566 34.5522 40.9416 36.999 39.1369 38.8037C37.3323 40.6083 34.8854 41.6234 32.3333 41.626C29.7811 41.6234 27.3342 40.6083 25.5296 38.8037C23.7249 36.999 22.7099 34.5522 22.7073 32C22.7099 29.4478 23.7249 27.001 25.5296 25.1963C27.3342 23.3917 29.7811 22.3766 32.3333 22.374C34.8854 22.3766 37.3323 23.3917 39.1369 25.1963C40.9416 27.001 41.9566 29.4478 41.9593 32ZM32.3333 0C14.6893 0 0.333252 14.356 0.333252 32C0.333252 49.644 14.6893 64 32.3333 64C38.7973 64 45.0313 62.076 50.3593 58.434L50.4513 58.37L46.1393 53.358L46.0673 53.406C41.972 56.0424 37.2038 57.4429 32.3333 57.44C18.3053 57.44 6.89325 46.028 6.89325 32C6.89325 17.972 18.3053 6.56 32.3333 6.56C46.3613 6.56 57.7733 17.972 57.7733 32C57.7733 33.818 57.5713 35.658 57.1733 37.468C56.3693 40.77 54.0573 41.782 52.3213 41.648C50.5753 41.506 48.5333 40.262 48.5193 37.218V32C48.5193 23.074 41.2593 15.814 32.3333 15.814C23.4073 15.814 16.1473 23.074 16.1473 32C16.1473 40.926 23.4073 48.186 32.3333 48.186C34.4663 48.1911 36.579 47.7712 38.548 46.9508C40.517 46.1305 42.3028 44.9261 43.8013 43.408C44.6705 44.7711 45.8456 45.9128 47.2333 46.7422C48.621 47.5717 50.183 48.066 51.7953 48.186C54.4284 48.3911 57.0454 47.6241 59.1513 46.03C61.0693 44.574 62.5013 42.468 63.2933 39.938C63.4193 39.53 63.6513 38.594 63.6533 38.588L63.6593 38.554C64.1253 36.524 64.3333 34.5 64.3333 32C64.3333 14.356 49.9773 0 32.3333 0Z" fill="white"/>
</svg>
