<svg width="161" height="155" viewBox="0 0 161 155" fill="none" xmlns="http://www.w3.org/2000/svg">
<g clip-path="url(#clip0_8597_54208)">
<path d="M48.2218 114.905L47.3607 134.605L39.3334 113.482L22.4128 126.283L36.4043 101.154L34.8526 99.4241L36.0622 89.0011L3.37231 56.9168L35.72 54.2715L30.8176 38.2014L50.2898 48.1736L57.3841 18.9714L75.7503 33.1554L91.5372 6.5119L93.9158 28.1145L118.991 4.30859L111.903 34.3959L129.994 25.4107L126.71 43.1849L153.085 44.698L135.921 59.6257L150.818 66.7145L138.495 77.121L157.582 90.7459L128.958 98.567L128.679 106.149L113.803 111.244L113.202 124.907L90.9792 115.883L80.6982 134.58L69.9211 122.406L57.1884 136.418L48.2218 114.905Z" fill="#3F69FF"/>
<path d="M116.789 8.1485L110.056 36.7342L128.292 27.6777L125.207 44.3758L149.896 45.7907L133.623 59.9416L148.493 67.0177L136.428 77.2064L154.666 90.225L127.732 97.5838L127.452 105.225L112.581 110.32L112.019 123.056L90.416 114.282L80.4558 132.395L69.935 120.508L57.5898 134.094L47.2092 109.189L46.367 128.434L39.9142 111.453L26.4466 121.642L37.9497 100.982L36.1732 99.0013L37.3891 88.5299L6.24585 57.9637L37.3891 55.4165L32.8995 40.7002L51.1369 50.0394L58.1504 21.171L76.1063 35.0391L90.6963 10.4129L92.9411 30.7904L116.789 8.1485ZM121.193 0.46875L115.058 6.29288L94.8918 25.4388L93.2063 10.1302L92.378 2.60966L88.5298 9.10497L75.393 31.2756L59.6856 19.1447L56.6177 16.7758L55.6985 20.5609L49.4426 46.3104L34.0433 38.4243L28.7369 35.7065L30.4867 41.444L34.0509 53.1292L6.04132 55.4204L0.5 55.8738L4.4846 59.785L34.7352 89.4762L33.6646 98.702L33.5307 99.8496L34.2996 100.707L34.8577 101.329L24.2434 120.393L18.3777 130.926L27.9591 123.677L38.7514 115.512L44.0073 129.343L48.353 140.779L48.8884 128.545L49.2343 120.623L55.2604 135.08L56.7868 138.742L59.4496 135.813L69.9085 124.304L78.5708 134.09L80.9381 136.765L82.6627 133.629L91.541 117.484L111.075 125.417L114.382 126.761L114.54 123.168L115.024 112.17L128.26 107.635L129.906 107.071L129.97 105.317L130.182 99.5503L155.322 92.6818L160.497 91.2681L156.121 88.144L140.561 77.0345L150.112 68.9688L153.139 66.4114L149.568 64.7125L138.214 59.3099L151.542 47.719L156.274 43.604L150.037 43.2461L128.213 41.9954L130.773 28.1426L131.698 23.145L127.176 25.3904L113.752 32.0576L119.245 8.73563L121.193 0.46875Z" fill="#2B2B42"/>
<path d="M92.8212 105.792L63.342 97.2414C61.7486 96.7791 60.8295 95.103 61.2878 93.4958L73.4436 50.8509C73.734 49.8333 74.5294 49.0436 75.542 48.766L92.8666 44.0257C93.936 43.7328 95.0786 44.0588 95.8374 44.8726L108.047 57.9651C108.773 58.7433 109.039 59.8488 108.746 60.8753L96.5343 103.718C96.0773 105.326 94.4145 106.255 92.8212 105.792Z" fill="#2B2B42"/>
<path d="M90.0903 65.3304C93.3431 65.3304 95.9801 62.6703 95.9801 59.3891C95.9801 56.1078 93.3431 53.4478 90.0903 53.4478C86.8374 53.4478 84.2005 56.1078 84.2005 59.3891C84.2005 62.6703 86.8374 65.3304 90.0903 65.3304Z" fill="white"/>
<path d="M89.3416 61.0625C88.8846 60.93 88.4957 60.5798 88.3328 60.0894C88.069 59.2973 88.4919 58.4389 89.2772 58.1727C89.6699 58.0377 99.0216 54.655 101.869 41.6682C102.658 38.0716 102.206 36.7229 101.855 36.5115C100.821 35.8798 97.1227 38.0028 94.4852 40.2915C93.859 40.8378 92.9121 40.7665 92.3705 40.1323C91.8301 39.4993 91.9008 38.5428 92.5295 37.9977C94.2251 36.5255 100.014 31.868 103.396 33.9133C106.264 35.6429 105.161 40.6697 104.799 42.3216C101.572 57.0443 90.6951 60.8854 90.2342 61.0421C89.9325 61.144 89.6232 61.144 89.3416 61.0625Z" fill="#2B2B42"/>
<path d="M90.0171 89.335C89.5651 90.9206 88.6131 92.0337 87.165 92.6782C85.7143 93.3213 84.0225 93.4678 82.087 93.1227L81.409 95.5017L79.3082 94.893L79.9786 92.5406C78.2552 91.9242 76.8714 91.0645 75.8311 89.9629C74.787 88.8612 74.1746 87.6004 73.9916 86.1816L78.2501 85.3983C78.5102 87.0349 79.4332 88.19 81.0265 88.8663L82.3585 84.191L82.3282 84.1821L82.2751 84.1362C81.6098 83.6892 81.0732 83.3097 80.6654 82.9964C80.2576 82.6831 79.7942 82.2653 79.2753 81.7444C78.759 81.2248 78.3777 80.7281 78.139 80.2581C77.9004 79.7894 77.7312 79.2291 77.6353 78.5757C77.5368 77.9236 77.586 77.255 77.7817 76.5698C78.2337 74.9842 79.1971 73.8889 80.6704 73.2814C82.1438 72.6752 83.7763 72.5542 85.5717 72.9184L86.2421 70.5674L88.3429 71.1762L87.6574 73.5807C90.4148 74.6938 92.0574 76.5456 92.5851 79.1374L88.4288 79.9219C88.2344 78.6954 87.6296 77.8077 86.6095 77.2588L85.3229 81.7724C87.0753 83.0027 88.2268 83.9121 88.7848 84.503C90.108 85.9562 90.5208 87.5698 90.0171 89.335ZM82.0681 77.8409C81.9545 78.2382 82.0012 78.6267 82.2095 79.0087C82.4153 79.3908 82.8319 79.8378 83.4531 80.3511L84.5313 76.5673C83.8761 76.4934 83.3319 76.5711 82.9064 76.7978C82.4809 77.0245 82.2007 77.3722 82.0681 77.8409ZM83.1425 89.4178C84.5503 89.5528 85.3987 89.1159 85.6853 88.1073C85.8141 87.6564 85.761 87.231 85.5249 86.8311C85.2888 86.4312 84.8634 85.9957 84.2523 85.5257L83.1425 89.4178Z" fill="white"/>
<path d="M65.5275 100.399C65.5275 100.399 67.0956 107.608 74.9638 115.688C84.4859 125.467 61.4381 136.242 54.7365 141.763C48.0349 147.285 34.1305 152.244 34.1305 152.244L25.5515 153.149L21.2045 150.044L18.1163 144.087L15.5104 134.626V127.899L7.3645 125.002L3.36096 117.551L6.90493 106.612L15.5092 99.7528L19.0304 96.7523L13.883 83.2993L12.8541 74.8134L14.455 66.6382L16.7806 63.6274H22.5757L29.0121 64.6285L31.1938 67.2584L36.4144 73.9843L37.1013 81.6424L38.5885 91.2669L41.0682 95.8314L44.7649 101.407L47.5097 103.374C47.5135 103.374 55.4903 104.745 65.5275 100.399Z" fill="white"/>
<path d="M60.5202 132.83C60.6856 131.285 60.0367 129.793 59.6024 128.333C59.1276 126.869 58.5178 125.447 57.7426 124.106C56.9371 122.78 56.066 121.493 54.9006 120.409L54.657 120.582C55.3791 121.87 55.9233 123.235 56.3071 124.618C56.7099 125.996 56.9876 127.39 57.1833 128.782C57.3361 130.19 57.1543 131.595 57.4371 132.97C57.5936 133.661 57.7022 134.36 57.9345 135.071C58.1277 135.767 58.3373 136.477 58.7236 137.219C55.8993 138.994 53.1596 140.817 50.411 142.589C50.5322 142.017 50.589 141.423 50.5524 140.818C50.5461 140.294 50.4729 139.761 50.3845 139.216C50.2355 138.691 50.0032 138.172 49.5878 137.776C49.098 137.261 48.4717 136.883 47.7622 136.656C47.7634 136.649 47.7647 136.641 47.7672 136.633C47.8102 136.161 47.7786 135.67 47.7041 135.218C47.463 134.32 47.0577 133.544 46.5236 132.89C45.756 131.925 44.7977 131.215 43.7801 130.624C43.8799 130.314 43.9607 129.998 43.996 129.669C44.2144 127.704 43.4127 125.99 42.4166 124.637C41.6351 123.524 40.6427 122.614 39.5695 121.812C39.9811 121.251 40.3637 120.669 40.6705 120.036C41.0972 119.064 41.3623 118.002 41.3118 116.908C41.255 115.808 40.7879 114.757 40.1465 113.881C38.7779 112.15 36.8235 111.113 34.8754 110.378C30.9097 108.98 26.7686 108.442 22.6552 108.202L22.6198 108.479C26.6486 109.13 30.7165 109.916 34.2933 111.526C36.0622 112.314 37.7136 113.367 38.6592 114.748C39.0935 115.443 39.3738 116.19 39.3612 116.963C39.3397 117.736 39.1011 118.508 38.7236 119.247C37.0015 122.187 33.5926 124.394 30.079 125.776C28.2925 126.451 26.4138 126.916 24.5541 127.062C24.0857 127.09 23.6589 127.102 23.1741 127.094L21.6767 127.01C20.6768 126.973 19.6844 126.886 18.6971 126.768C16.7099 126.595 14.7807 126.243 12.9083 125.796C11.0802 125.278 9.3189 124.608 7.92632 123.625C6.54004 122.642 5.56409 121.386 5.18785 119.889C4.7851 118.401 4.99089 116.714 5.5098 115.078C6.55771 111.777 8.68006 108.633 11.1004 105.775C13.5434 102.926 16.3513 100.229 19.4748 98.0868L20.2639 97.5468L19.9079 96.7393C18.3549 93.2267 16.8109 89.6964 15.7099 86.0615C14.5837 82.4433 13.6987 78.7397 13.5888 75.0399C13.479 73.1881 13.7277 71.3592 14.2163 69.6297C14.7239 67.9091 15.7023 66.312 17.2123 65.3084C18.711 64.2959 20.6692 63.9202 22.6097 64.0908C24.5578 64.2551 26.4794 64.9085 28.2091 65.8382C31.6597 67.7078 34.4991 70.6715 35.7743 74.1662C36.4321 75.9238 36.5722 77.7373 36.4876 79.6274L36.4245 82.5311L36.6568 85.4298C37.552 93.1198 42.2057 100.538 49.5601 104.532L49.7052 104.285C42.5921 100.193 38.2451 92.8256 37.5873 85.342L37.4383 82.5171L37.5772 79.691C37.7224 77.7679 37.6252 75.7187 36.9636 73.8236C35.6771 70.0067 32.7328 66.7565 29.0172 64.6334C27.1461 63.5865 25.0376 62.8147 22.7802 62.5829C20.5442 62.3435 18.0873 62.7383 16.1531 64.0017C14.2062 65.2523 13.0055 67.1997 12.3894 69.1342C11.7872 71.0841 11.4943 73.0938 11.565 75.0615C11.6029 79.0135 12.4525 82.8572 13.532 86.6028C14.5105 90.0861 15.8753 93.442 17.2603 96.7864C14.1052 98.9592 11.3832 101.473 8.90984 104.213C6.28248 107.195 3.88869 110.45 2.56428 114.301C1.93048 116.216 1.58202 118.348 2.1085 120.506C2.59963 122.659 4.07681 124.654 5.96558 125.911C8.80379 127.792 11.9677 128.659 15.1216 129.139C14.9549 131.343 14.9044 133.551 15.0332 135.765C15.2036 138.439 15.5483 141.128 16.3513 143.759C17.1783 146.367 18.4206 148.977 20.5682 151.119C22.7461 153.237 26.0375 154.481 29.2432 154.475C35.6885 154.379 41.3724 151.723 46.1954 148.573C51.0221 145.341 55.2908 141.567 59.0064 137.381L58.9004 137.279L59.0544 137.29C60.0102 135.887 60.4091 134.361 60.5202 132.83ZM18.3789 129.522C19.4357 129.616 20.4924 129.673 21.5505 129.682L23.135 129.72C23.6766 129.714 24.2801 129.682 24.8331 129.629C27.0678 129.383 29.1762 128.778 31.1534 127.959C33.1242 127.127 34.9663 126.068 36.6265 124.785C37.5141 124.108 38.3335 123.336 39.0531 122.479C39.5885 123.51 40.1175 124.5 40.4697 125.507C40.9684 126.839 41.2525 128.174 40.9406 129.246C40.4584 131.303 37.9017 133.108 34.9069 134.147C31.921 135.213 28.6371 135.807 25.3558 136.249C22.3269 136.675 19.2488 136.911 16.1644 137.054C15.7213 134.464 15.5268 131.822 15.5104 129.188C16.4712 129.327 17.432 129.435 18.3789 129.522ZM44.448 146.26C43.2461 146.975 42.0378 147.671 40.7967 148.293C39.591 148.992 38.3385 149.568 37.076 150.135C34.5661 151.236 31.9033 152.134 29.2204 152.233C26.5476 152.347 23.9594 151.518 21.9923 149.838C20.067 148.112 18.7451 145.78 17.8222 143.341C17.1101 141.433 16.5937 139.458 16.2288 137.447C19.3056 137.689 22.3976 137.727 25.5048 137.641C28.8997 137.465 32.3162 137.154 35.7061 136.264C37.3967 135.814 39.1024 135.246 40.721 134.278C41.76 133.665 42.7385 132.726 43.3572 131.601C43.8622 132.357 44.3306 133.093 44.6235 133.843C45.1071 135.043 45.1449 136.075 44.5679 136.841C44.0528 137.647 43.039 138.425 41.8623 139.13C40.6881 139.852 39.3233 140.436 37.9156 140.941C35.0749 141.919 32.0548 142.622 29.0071 143.191C25.9631 143.806 22.8635 144.251 19.7551 144.635L19.769 144.914C22.9292 144.974 26.0817 144.822 29.2432 144.572C32.3957 144.268 35.5496 143.835 38.687 143.065C40.2551 142.671 41.8244 142.209 43.3837 141.529C44.6349 140.955 45.9252 140.122 46.8292 138.857C46.8797 138.993 46.9314 139.128 46.9718 139.261C47.2067 139.946 47.8417 140.441 48.1132 141.181C48.3985 141.967 48.5273 142.862 48.5185 143.793C47.1726 144.64 45.8204 145.471 44.448 146.26Z" fill="#2B2B42"/>
</g>
<defs>
<clipPath id="clip0_8597_54208">
<rect width="160" height="154" fill="white" transform="translate(0.5 0.46875)"/>
</clipPath>
</defs>
</svg>
