<svg width="538" height="539" viewBox="0 0 538 539" fill="none" xmlns="http://www.w3.org/2000/svg">
<g clip-path="url(#clip0_8591_61886)">
<path d="M82.1667 434.675L88.3744 441.155L69.0465 459.673L77.5745 468.574L96.9005 450.057L103.073 456.499L78.2337 480.297L57.3264 458.474L82.1667 434.675Z" fill="#EB4F42"/>
<path d="M53.7082 415.662C56.4007 413.694 59.3913 412.979 62.6781 413.515C66.2546 414.096 69.3092 416.123 71.844 419.593C74.3592 423.036 75.3499 426.549 74.816 430.133C74.3276 433.428 72.7371 436.059 70.0437 438.026C67.3511 439.993 64.3744 440.698 61.1146 440.141C57.5195 439.533 54.4742 437.52 51.9794 434.105C49.505 430.719 48.505 427.191 48.9776 423.525C49.4382 420.251 51.0147 417.629 53.7082 415.662ZM57.6133 429.926C58.4452 431.065 59.578 431.77 61.0106 432.042C62.4451 432.315 63.7728 432.005 64.9937 431.112C66.1042 430.301 66.7764 429.151 67.0076 427.661C67.2323 426.219 66.9184 424.916 66.0661 423.75C65.2342 422.611 64.0987 421.93 62.6568 421.706C61.2241 421.434 59.9234 421.723 58.7572 422.575C57.591 423.427 56.8928 424.598 56.6607 426.086C56.4843 427.536 56.8018 428.816 57.6133 429.926Z" fill="#EB4F42"/>
<path d="M45.9787 394.127L51.9515 390.65C53.5754 391.733 54.9078 393.166 55.9458 394.95C57.7795 398.1 58.2911 401.303 57.4806 404.559C56.6839 407.768 54.7982 410.237 51.8271 411.968C48.7669 413.748 45.5739 414.176 42.2481 413.247C39.0003 412.313 36.4331 410.227 34.5483 406.988C33.6134 405.383 33.0869 403.622 32.9644 401.705L38.9372 398.227C38.7849 399.949 39.0718 401.432 39.7979 402.68C40.6112 404.077 41.7467 404.967 43.2035 405.352C44.6603 405.737 46.0734 405.531 47.4401 404.736C48.7474 403.976 49.6201 402.911 50.0556 401.543C50.5133 400.005 50.3091 398.492 49.4437 397.005C48.6304 395.606 47.4763 394.648 45.9787 394.127Z" fill="#EB4F42"/>
<path d="M29.4984 396.563L26.0937 389.047L36.8983 384.152L22.3269 380.731L19.3688 374.202L40.367 364.688L43.7717 372.206L32.6858 377.228L47.4967 380.426L50.4966 387.05L29.4984 396.563Z" fill="#EB4F42"/>
<path d="M9.43787 344.412L31.4017 337.411L33.9067 345.274L18.379 350.222L20.1645 355.824L26.4539 353.819C29.7955 352.755 32.514 352.737 34.6096 353.764C36.4563 354.691 37.8184 356.531 38.6948 359.282C39.0189 360.298 39.2547 361.377 39.4023 362.52L33.7025 364.337C33.4286 362.909 32.8213 361.965 31.8808 361.507C30.9839 361.071 29.6998 361.119 28.0295 361.652L16.1386 365.441L9.43787 344.412Z" fill="#EB4F42"/>
<path d="M6.37949 319.259L4.20131 319.675L2.65448 311.57L25.2989 307.25L26.8457 315.355L24.363 315.828C26.8207 316.969 28.3489 319.11 28.9478 322.252C29.5531 325.427 28.8744 328.374 26.9079 331.094C25.0241 333.694 22.4606 335.303 19.2184 335.921C15.5036 336.631 12.2586 336.042 9.48429 334.156C6.9505 332.435 5.36746 329.919 4.73703 326.608C4.20781 323.839 4.75653 321.39 6.37949 319.259ZM11.2772 323.47C11.5353 324.821 12.2511 325.91 13.4238 326.736C14.6772 327.618 16.0124 327.922 17.4311 327.652C18.9175 327.368 20.0493 326.61 20.8292 325.376C21.6361 324.102 21.9109 322.789 21.6528 321.438C21.3891 320.054 20.6333 318.939 19.3873 318.091C18.1803 317.271 16.8684 316.996 15.4497 317.266C13.9985 317.544 12.8648 318.303 12.0515 319.543C11.2725 320.777 11.0135 322.085 11.2772 323.47Z" fill="#EB4F42"/>
<path d="M24.7595 302.606L1.76131 304.201L1.19123 295.969L8.95973 295.431L8.42772 287.765L0.659221 288.303L0.0891418 280.071L23.0864 278.476L23.6574 286.708L14.9112 287.314L15.4423 294.98L24.1885 294.375L24.7595 302.606Z" fill="#EB4F42"/>
<path d="M23.0297 273.749L0 272.716L0.36953 264.472L8.14917 264.821L8.49363 257.144L0.713992 256.795L1.08259 248.552L24.1123 249.584L23.7437 257.828L14.9846 257.435L14.6401 265.112L23.3993 265.505L23.0297 273.749Z" fill="#EB4F42"/>
<path d="M24.4484 246.238L17.4821 238.682C16.9325 240.197 16.0644 241.419 14.8759 242.347C13.5027 243.352 11.7785 243.692 9.7062 243.37C7.43145 243.016 5.685 242.048 4.46871 240.467C3.10479 238.724 2.70833 236.018 3.27934 232.348L5.15113 220.322L27.9292 223.866L26.661 232.019L19.4245 230.893L19.3223 231.556L25.7808 237.676L24.4484 246.238ZM14.4312 230.117L9.18254 229.3L8.80187 231.746C8.61711 232.936 8.72295 233.822 9.11941 234.406C9.52143 234.955 10.1296 235.293 10.9448 235.421C11.7943 235.552 12.4795 235.398 13.0004 234.957C13.5259 234.483 13.8713 233.719 14.0347 232.665L14.4312 230.117Z" fill="#EB4F42"/>
<path d="M17.0133 201.551L11.0804 202.575C10.813 201.234 10.6802 199.86 10.683 198.457C10.6913 196.336 10.9754 194.373 11.5353 192.565C12.6541 188.952 14.2891 186.58 16.4395 185.446C17.8164 184.721 19.2769 184.597 20.82 185.076C22.1672 185.493 23.1551 186.196 23.7846 187.183C24.2915 187.987 24.6044 188.894 24.7242 189.903L24.8217 189.933C25.3955 188.78 26.22 187.919 27.2951 187.352C28.4566 186.741 29.7268 186.648 31.1056 187.075C33.0108 187.665 34.3951 188.832 35.2586 190.575C36.3598 192.716 36.2892 195.79 35.0478 199.797C34.4165 201.834 33.5474 203.652 32.4398 205.252C31.5122 206.621 30.386 207.874 29.062 209.011L24.4939 204.411C25.4577 203.737 26.3017 202.992 27.024 202.171C27.8188 201.229 28.4046 200.151 28.7816 198.937C29.0871 197.951 29.2003 197.122 29.1196 196.449C29.0054 195.658 28.62 195.16 27.9627 194.957C27.4038 194.784 26.9024 194.953 26.4567 195.463C26.0742 195.885 25.6944 196.704 25.3175 197.918L24.4791 200.627L19.3549 199.041L20.0419 196.823C20.3567 195.806 20.4959 194.949 20.4597 194.253C20.443 193.493 20.1236 193.015 19.4988 192.821C18.9083 192.638 18.3846 192.819 17.9287 193.361C17.5035 193.806 17.1377 194.52 16.8322 195.506C16.5277 196.491 16.4144 197.554 16.4933 198.694C16.5388 199.714 16.7124 200.666 17.0133 201.551Z" fill="#EB4F42"/>
<path d="M42.9741 175.069L22.2312 165.01L32.6496 143.524L53.3925 153.583L49.7919 161.008L34.8965 153.785L31.6784 160.42L46.5747 167.644L42.9741 175.069Z" fill="#EB4F42"/>
<path d="M59.6225 122.98L60.3634 123.451L51.1595 137.951C52.5253 138.817 53.8707 139.101 55.1993 138.804C56.2438 138.571 57.1704 137.816 57.9819 136.538C58.5344 135.668 58.8389 134.803 58.8955 133.942C58.9262 133.188 58.7498 132.506 58.3635 131.894L62.5927 125.232C63.8842 126.663 64.7217 128.294 65.1061 130.126C65.7272 133.126 64.9492 136.339 62.7756 139.764C60.6197 143.161 57.9281 145.22 54.7016 145.94C51.5699 146.64 48.5088 146.041 45.5191 144.142C42.3837 142.152 40.4905 139.587 39.8378 136.444C39.186 133.301 39.9288 130.046 42.0652 126.679C44.0363 123.572 46.507 121.639 49.4744 120.874C52.7565 120.069 56.1398 120.77 59.6225 122.98ZM47.2925 135.19L52.2951 127.309C51.3248 126.979 50.388 126.914 49.4874 127.115C48.3481 127.368 47.3918 128.106 46.6175 129.326C45.8626 130.516 45.6119 131.68 45.8663 132.819C46.1347 133.804 46.611 134.595 47.2925 135.19Z" fill="#EB4F42"/>
<path d="M74.4929 117.936L85.3708 126.794L80.1602 133.193L53.1279 111.178L58.3384 104.779L60.2975 106.375C59.6977 103.626 60.3319 101.105 62.199 98.8111C64.2398 96.3059 66.8321 94.8918 69.9768 94.5696C73.2663 94.2344 76.3099 95.2057 79.1092 97.4852C81.9624 99.8083 83.5398 102.689 83.8435 106.129C84.1285 109.156 83.2938 111.868 81.3403 114.267C79.5372 116.479 77.256 117.703 74.4929 117.936ZM66.3678 104.8C65.4561 105.92 65.0735 107.205 65.223 108.656C65.3762 110.156 66.0261 111.373 67.1728 112.306C68.2396 113.175 69.5228 113.532 71.0222 113.379C72.4734 113.23 73.6554 112.596 74.5662 111.476C75.4993 110.33 75.8707 109.058 75.6785 107.66C75.5253 106.161 74.9153 104.976 73.8485 104.108C72.7028 103.174 71.3797 102.784 69.8802 102.937C68.4717 103.033 67.3009 103.654 66.3678 104.8Z" fill="#EB4F42"/>
<path d="M100.679 77.2676L101.289 77.8981L88.9593 89.8527C90.0846 91.0133 91.3278 91.6039 92.689 91.6243C93.7576 91.642 94.8365 91.1229 95.9219 90.069C96.6628 89.3513 97.1605 88.5806 97.4158 87.758C97.6219 87.0328 97.6089 86.3271 97.3759 85.6428L103.041 80.1497C103.963 81.8415 104.398 83.6233 104.344 85.4952C104.248 88.5584 102.743 91.5008 99.8317 94.3254C96.9441 97.1258 93.8468 98.5 90.5405 98.448C87.3317 98.3988 84.4943 97.1025 82.0302 94.5593C79.4453 91.8936 78.2021 88.9567 78.2996 85.7487C78.3971 82.5407 79.878 79.548 82.7423 76.7718C85.3828 74.2109 88.236 72.9064 91.3009 72.8553C94.6815 72.8349 97.8076 74.3057 100.679 77.2676ZM85.8424 86.2659L92.5441 79.7681C91.6769 79.2194 90.7819 78.938 89.8581 78.9241C88.691 78.9055 87.5898 79.3995 86.5518 80.4051C85.5398 81.3874 85.0245 82.4608 85.0068 83.6279C85.0402 84.6493 85.3188 85.5286 85.8424 86.2659Z" fill="#EB4F42"/>
<path d="M120.362 66.0177L124.66 71.4291C123.821 73.1923 122.593 74.716 120.978 75.9992C118.124 78.2657 115.028 79.2323 111.689 78.8971C108.4 78.5684 105.685 77.0587 103.547 74.365C101.344 71.5925 100.465 68.4931 100.906 65.0678C101.364 61.7196 103.06 58.8793 105.995 56.5487C107.448 55.3936 109.115 54.6193 110.997 54.2228L115.294 59.6351C113.57 59.7317 112.142 60.2275 111.012 61.1254C109.747 62.13 109.028 63.3826 108.856 64.8784C108.685 66.3761 109.09 67.7447 110.075 68.9834C111.016 70.1682 112.193 70.8785 113.611 71.1143C115.2 71.3455 116.667 70.9268 118.013 69.8571C119.278 68.8534 120.061 67.573 120.362 66.0177Z" fill="#EB4F42"/>
<path d="M128.039 69.4755L115.575 50.0816L135.661 37.1707L148.125 56.5645L141.184 61.027L132.232 47.1002L126.028 51.0872L134.979 65.014L128.039 69.4755Z" fill="#EB4F42"/>
<path d="M159.131 27.6692L158.163 25.6748L165.585 22.0693L175.657 42.8068L168.235 46.4122L167.131 44.1392C166.669 46.8096 165.001 48.8431 162.125 50.2405C159.217 51.6527 156.194 51.7642 153.056 50.5738C150.055 49.4327 147.834 47.3769 146.392 44.4075C144.74 41.0055 144.461 37.7195 145.56 34.5486C146.562 31.6544 148.577 29.4705 151.609 27.9979C154.144 26.7667 156.652 26.6571 159.131 27.6692ZM156.343 33.4956C155.105 34.0964 154.241 35.0713 153.749 36.4186C153.225 37.8587 153.278 39.2264 153.909 40.5264C154.571 41.8876 155.597 42.7836 156.992 43.2144C158.432 43.661 159.771 43.5849 161.008 42.9841C162.276 42.3685 163.156 41.3481 163.65 39.9237C164.127 38.5449 164.05 37.206 163.419 35.907C162.774 34.5774 161.745 33.6823 160.336 33.2189C158.942 32.789 157.61 32.88 156.343 33.4956Z" fill="#EB4F42"/>
<path d="M178.151 41.5458L174.332 18.5177L181.133 16.2503L190.462 26.2949L191.896 12.6606L198.696 10.3932L209.462 31.1046L202.124 33.5522L196.561 22.7396L195.226 35.8521L192.389 36.7983L183.451 27.112L185.49 39.0982L178.151 41.5458Z" fill="#EB4F42"/>
<path d="M231.381 3.37183L235.856 25.9867L227.761 27.5893L224.597 11.6013L218.83 12.7424L220.112 19.2188C220.792 22.6589 220.504 25.3628 219.246 27.3284C218.116 29.0592 216.134 30.205 213.302 30.7658C212.256 30.9729 211.157 31.0852 210.004 31.1028L208.842 25.2337C210.292 25.1232 211.298 24.6255 211.859 23.7434C212.394 22.9022 212.491 21.6209 212.149 19.9003L209.727 7.65599L231.381 3.37183Z" fill="#EB4F42"/>
<path d="M264.004 12.5242L264.075 13.397L246.958 14.7916C247.09 16.4026 247.674 17.6487 248.712 18.5298C249.527 19.2225 250.688 19.5066 252.196 19.3841C253.224 19.3005 254.099 19.0219 254.819 18.5503C255.438 18.1204 255.878 17.567 256.133 16.891L263.997 16.2503C263.633 18.1426 262.837 19.7945 261.607 21.2058C259.587 23.5095 256.554 24.8252 252.511 25.1548C248.503 25.4816 245.237 24.5754 242.717 22.4333C240.271 20.3562 238.905 17.553 238.617 14.0228C238.316 10.3218 239.222 7.26416 241.337 4.84909C243.452 2.43403 246.496 1.0654 250.471 0.741344C254.138 0.442363 257.17 1.24831 259.568 3.15734C262.19 5.29014 263.668 8.41181 264.004 12.5242ZM246.831 10.0413L256.135 9.28461C255.813 8.30967 255.301 7.52414 254.597 6.92618C253.708 6.17037 252.543 5.85096 251.104 5.96888C249.699 6.08309 248.619 6.58542 247.864 7.474C247.238 8.2846 246.895 9.14069 246.831 10.0413Z" fill="#EB4F42"/>
<path d="M268.699 23.3135L269.427 0.271484L277.674 0.531469L277.428 8.31521L285.108 8.55848L285.354 0.773811L293.601 1.03472L292.874 24.0758L284.627 23.8158L284.903 15.0525L277.224 14.8092L276.947 23.5726L268.699 23.3135Z" fill="#EB4F42"/>
<path d="M300.936 1.67627L309.098 2.88798L307.357 14.6216L318.128 4.22783L325.219 5.28076L321.835 28.0851L313.673 26.8734L315.459 14.8333L304.746 25.5484L297.553 24.4815L300.936 1.67627Z" fill="#EB4F42"/>
<path d="M323.662 28.1826L338.104 19.1955L331.935 6.55566L342.268 9.43499L344.82 15.0711L350.019 11.5929L360.302 14.4583L348.289 22.0331L356.054 37.2059L345.521 34.2718L341.699 26.087L334.195 31.1177L323.662 28.1826Z" fill="#EB4F42"/>
<path d="M387.509 42.9451L384.645 49.2339C382.693 49.2897 380.779 48.8904 378.9 48.0352C375.584 46.5245 373.314 44.207 372.094 41.0816C370.89 38.0026 371 34.8977 372.425 31.7686C373.892 28.5457 376.252 26.3516 379.502 25.1873C382.693 24.0721 385.993 24.2903 389.403 25.8437C391.093 26.6135 392.542 27.7463 393.75 29.2402L390.886 35.5291C390.016 34.0379 388.925 32.9924 387.611 32.3935C386.14 31.7231 384.699 31.6534 383.287 32.1808C381.875 32.7092 380.842 33.6934 380.186 35.1326C379.56 36.5096 379.463 37.8829 379.898 39.2515C380.414 40.7715 381.455 41.8875 383.019 42.5997C384.49 43.271 385.987 43.3852 387.509 42.9451Z" fill="#EB4F42"/>
<path d="M391.15 53.3528L399.13 39.1428L393.914 36.2143L397.222 30.3229L414.848 40.2227L411.54 46.1141L406.325 43.1847L398.344 57.3947L391.15 53.3528Z" fill="#EB4F42"/>
<path d="M434.27 67.5024C432.349 70.2295 429.744 71.8646 426.459 72.4087C422.885 73.0039 419.343 72.0624 415.829 69.587C412.345 67.1301 410.28 64.1208 409.638 60.5553C409.046 57.2776 409.71 54.2748 411.631 51.5496C413.551 48.8226 416.145 47.2014 419.411 46.6851C423.013 46.1104 426.543 47.0417 429.999 49.4772C433.427 51.8941 435.506 54.9136 436.233 58.5386C436.844 61.7893 436.19 64.7773 434.27 67.5024ZM426.001 55.2405C424.849 54.428 423.549 54.1235 422.104 54.325C420.657 54.5265 419.5 55.2451 418.629 56.481C417.836 57.6054 417.568 58.91 417.827 60.3956C418.076 61.8329 418.79 62.9676 419.971 63.7995C421.124 64.6111 422.419 64.8933 423.856 64.6436C425.302 64.4421 426.44 63.7513 427.272 62.572C428.104 61.3919 428.391 60.0585 428.134 58.5729C427.835 57.1439 427.124 56.0334 426.001 55.2405Z" fill="#EB4F42"/>
<path d="M438.12 83.2278L428.703 93.6244L422.587 88.0849L445.992 62.2452L452.107 67.7857L450.411 69.6585C453.187 69.2054 455.672 69.9705 457.863 71.9566C460.257 74.1256 461.533 76.7895 461.689 79.9455C461.853 83.2482 460.723 86.2371 458.299 88.9131C455.83 91.6402 452.869 93.0645 449.419 93.1861C446.382 93.3124 443.718 92.3356 441.425 90.2585C439.309 88.3421 438.208 85.9985 438.12 83.2278ZM451.664 75.8043C450.594 74.834 449.33 74.3856 447.874 74.458C446.368 74.5323 445.119 75.1182 444.127 76.2138C443.203 77.2333 442.779 78.4952 442.853 80.0003C442.926 81.4571 443.496 82.6707 444.567 83.6401C445.663 84.6317 446.913 85.07 448.319 84.9521C449.824 84.8778 451.04 84.3309 451.963 83.3104C452.954 82.2148 453.414 80.914 453.339 79.4088C453.318 77.9975 452.76 76.796 451.664 75.8043Z" fill="#EB4F42"/>
<path d="M470.004 84.9399L475.609 90.9957L458.691 106.656L453.086 100.601L470.004 84.9399ZM475.217 81.2723C475.266 79.9844 475.758 78.9083 476.692 78.0439C477.625 77.1794 478.736 76.7727 480.024 76.8229C481.311 76.8721 482.387 77.3632 483.252 78.2973C484.115 79.2305 484.522 80.3419 484.473 81.6298C484.423 82.9167 483.932 83.9928 482.999 84.8573C482.064 85.7217 480.953 86.1284 479.666 86.0792C478.378 86.0291 477.302 85.537 476.439 84.6038C475.574 83.6697 475.167 82.5592 475.217 81.2723Z" fill="#EB4F42"/>
<path d="M462.128 110.182L480.304 96.0013L485.38 102.507L479.24 107.298L483.967 113.356L490.107 108.566L495.182 115.073L477.006 129.252L471.931 122.746L478.843 117.353L474.117 111.294L467.204 116.688L462.128 110.182Z" fill="#EB4F42"/>
<path d="M503.428 149.989C500.575 151.715 497.534 152.168 494.306 151.347C490.795 150.458 487.927 148.174 485.702 144.497C483.496 140.848 482.815 137.263 483.658 133.739C484.43 130.499 486.243 128.017 489.097 126.29C491.95 124.565 494.977 124.121 498.175 124.958C501.704 125.877 504.563 128.148 506.752 131.765C508.922 135.355 509.612 138.955 508.823 142.567C508.081 145.789 506.282 148.264 503.428 149.989ZM500.777 135.439C500.047 134.232 498.979 133.432 497.576 133.036C496.171 132.64 494.822 132.833 493.527 133.616C492.35 134.329 491.581 135.416 491.222 136.879C490.873 138.295 491.072 139.622 491.82 140.857C492.55 142.063 493.622 142.841 495.039 143.19C496.444 143.586 497.764 143.41 499 142.664C500.235 141.917 501.033 140.811 501.394 139.347C501.694 137.918 501.489 136.617 500.777 135.439Z" fill="#EB4F42"/>
<path d="M495.203 159.372L516.2 149.855L519.606 157.372L511.01 161.268L522.481 163.712L526.76 173.154L512.957 168.935L506.127 183.47L501.719 173.746L507.911 162.672L498.611 166.888L495.203 159.372Z" fill="#EB4F42"/>
<path d="M272.774 538.272C214.954 538.272 160.005 519.996 113.868 485.421L117.209 480.963C162.375 514.81 216.169 532.701 272.775 532.701C415.949 532.701 532.43 416.214 532.43 273.032C532.43 251.754 529.853 230.604 524.769 210.167L530.175 208.822C535.368 229.697 538.001 251.302 538.001 273.032C538.001 343.881 510.412 410.488 460.319 460.586C410.223 510.682 343.62 538.272 272.774 538.272Z" fill="#EB4F42"/>
<path d="M452.272 381.352L455.002 376.383L436.805 366.382L440.132 360.328L458.329 370.328L461.061 365.359L466.204 368.186L457.416 384.18L452.272 381.352Z" fill="#FBBC03"/>
<path d="M451.566 385.904C452.542 385.696 453.443 385.861 454.269 386.398C455.094 386.934 455.611 387.691 455.818 388.666C456.026 389.641 455.861 390.542 455.324 391.368C454.788 392.195 454.031 392.711 453.056 392.919C452.08 393.125 451.178 392.961 450.353 392.425C449.527 391.888 449.011 391.132 448.804 390.157C448.596 389.181 448.761 388.279 449.297 387.454C449.834 386.627 450.59 386.111 451.566 385.904ZM447.823 382.687L444.344 388.045L429.376 378.322L432.856 372.963L447.823 382.687Z" fill="#FBBC03"/>
<path d="M422.456 401.669L421.919 401.254L430.062 390.741C429.073 389.975 428.054 389.657 427.009 389.791C426.188 389.894 425.419 390.409 424.701 391.336C424.212 391.967 423.914 392.613 423.809 393.272C423.731 393.851 423.818 394.39 424.07 394.889L420.33 399.719C419.438 398.524 418.91 397.205 418.747 395.766C418.484 393.407 419.316 390.987 421.239 388.504C423.146 386.041 425.369 384.649 427.909 384.327C430.374 384.013 432.69 384.696 434.857 386.375C437.13 388.135 438.404 390.25 438.681 392.72C438.957 395.19 438.149 397.645 436.258 400.087C434.514 402.339 432.469 403.652 430.126 404.026C427.538 404.41 424.981 403.626 422.456 401.669ZM432.844 393.148L428.418 398.862C429.142 399.188 429.859 399.305 430.568 399.216C431.464 399.102 432.255 398.602 432.939 397.719C433.608 396.856 433.885 395.977 433.771 395.081C433.635 394.3 433.325 393.656 432.844 393.148Z" fill="#FBBC03"/>
<path d="M413.673 398.703L426.654 410.953L422.27 415.6L420.15 413.599C420.561 414.792 420.586 415.968 420.224 417.128C419.97 418.096 419.386 419.064 418.473 420.033C418.437 420.072 418.386 420.115 418.32 420.164C418.256 420.212 418.151 420.305 418.004 420.441C417.857 420.578 417.701 420.733 417.538 420.906L413.153 416.768C414.047 416.44 414.832 415.919 415.508 415.202C416.367 414.292 416.801 413.366 416.812 412.423C416.83 411.124 416.172 409.843 414.835 408.583L409.288 403.349L413.673 398.703Z" fill="#FBBC03"/>
<path d="M402.747 422.675L397.193 427.045C396.46 426.199 395.626 425.72 394.692 425.608C393.762 425.459 392.837 425.747 391.916 426.472C391.058 427.146 390.584 428.008 390.497 429.06C390.457 429.871 390.7 430.61 391.227 431.281C391.835 432.054 392.593 432.458 393.5 432.49C394.294 432.509 395.12 432.182 395.978 431.507C396.333 431.227 396.604 430.946 396.789 430.665L399.678 434.337C398.658 434.936 398.055 435.697 397.869 436.623C397.721 437.383 397.877 438.055 398.339 438.642C398.833 439.269 399.415 439.624 400.088 439.704C400.761 439.785 401.423 439.569 402.071 439.06C402.72 438.549 403.082 437.976 403.158 437.341C403.294 436.523 403.049 435.716 402.423 434.921L407.477 430.946C408.903 432.975 409.481 435.111 409.213 437.353C408.986 439.734 407.68 441.862 405.295 443.738C403.077 445.482 400.854 446.231 398.629 445.984C396.61 445.742 394.983 444.838 393.749 443.268C392.992 442.305 392.527 441.283 392.352 440.201C392.173 439.155 392.288 438.202 392.694 437.341C391.373 437.77 390.044 437.782 388.709 437.376C387.448 436.979 386.349 436.185 385.41 434.992C383.978 433.171 383.394 431.158 383.658 428.953C383.975 426.298 385.474 423.918 388.152 421.812C390.599 419.886 393.165 419.036 395.85 419.262C398.477 419.463 400.778 420.6 402.747 422.675Z" fill="#FBBC03"/>
<path d="M370.342 435.204L378.923 450.855L362.712 459.744L354.131 444.092L359.732 441.021L365.895 452.26L370.902 449.515L364.739 438.275L370.342 435.204Z" fill="#FBBC03"/>
<path d="M334.991 461.725C334.026 459.329 334.057 456.948 335.085 454.584C336.201 452.011 338.302 450.102 341.389 448.858C344.451 447.624 347.275 447.548 349.864 448.63C352.243 449.622 353.916 451.316 354.881 453.713C355.846 456.107 355.809 458.475 354.771 460.816C353.631 463.399 351.542 465.302 348.505 466.526C345.493 467.74 342.656 467.82 339.994 466.769C337.624 465.801 335.956 464.119 334.991 461.725ZM346.439 461.505C347.452 461.096 348.197 460.379 348.673 459.355C349.151 458.331 349.17 457.275 348.732 456.189C348.333 455.201 347.598 454.478 346.525 454.022C345.485 453.579 344.447 453.567 343.411 453.985C342.399 454.392 341.671 455.116 341.229 456.155C340.753 457.18 340.723 458.21 341.14 459.247C341.557 460.285 342.303 461.032 343.376 461.489C344.43 461.897 345.451 461.902 346.439 461.505Z" fill="#FBBC03"/>
<path d="M317.577 463.496L316.02 458.378C317.125 457.346 318.442 456.597 319.971 456.133C322.671 455.312 325.176 455.496 327.484 456.686C329.76 457.858 331.286 459.717 332.06 462.265C332.858 464.888 332.61 467.37 331.319 469.711C330.037 471.993 328.009 473.556 325.233 474.4C323.857 474.818 322.437 474.902 320.969 474.653L319.413 469.534C320.681 469.954 321.85 470.003 322.919 469.677C324.117 469.313 324.991 468.615 325.539 467.587C326.088 466.557 326.185 465.456 325.829 464.284C325.488 463.163 324.841 462.316 323.888 461.743C322.81 461.125 321.633 461.01 320.361 461.398C319.165 461.761 318.236 462.461 317.577 463.496Z" fill="#FBBC03"/>
<path d="M316.106 476.279L309.821 477.423L308.176 468.387L302.868 478.689L297.407 479.682L294.211 462.121L300.497 460.977L302.184 470.249L307.371 459.726L312.911 458.718L316.106 476.279Z" fill="#FBBC03"/>
<path d="M273.172 481.55L272.035 463.737L278.41 463.33L279.214 475.924L283.757 475.634L283.431 470.533C283.258 467.822 283.754 465.777 284.919 464.396C285.963 463.182 287.6 462.504 289.832 462.362C290.655 462.309 291.51 462.335 292.397 462.438L292.692 467.061C291.567 466.999 290.745 467.278 290.224 467.898C289.728 468.49 289.524 469.464 289.612 470.819L290.226 480.462L273.172 481.55Z" fill="#FBBC03"/>
<path d="M253.728 479.132L253.632 480.846L247.253 480.486L248.256 462.664L254.634 463.024L254.525 464.977C255.843 463.345 257.739 462.599 260.21 462.738C262.709 462.878 264.795 463.942 266.468 465.93C268.068 467.833 268.796 470.061 268.652 472.612C268.488 475.535 267.437 477.862 265.5 479.593C263.731 481.173 261.545 481.89 258.94 481.744C256.76 481.621 255.024 480.75 253.728 479.132ZM257.81 476.241C258.874 476.302 259.825 475.968 260.666 475.242C261.562 474.466 262.042 473.52 262.105 472.404C262.171 471.234 261.813 470.24 261.032 469.424C260.227 468.578 259.293 468.126 258.229 468.067C257.14 468.006 256.16 468.363 255.29 469.142C254.447 469.895 253.995 470.829 253.931 471.945C253.867 473.088 254.226 474.081 255.004 474.925C255.786 475.741 256.721 476.18 257.81 476.241Z" fill="#FBBC03"/>
<path d="M244.672 462.201L241.54 479.774L235.251 478.652L236.308 472.716L230.451 471.673L229.394 477.609L223.104 476.488L226.235 458.915L232.525 460.037L231.334 466.72L237.191 467.764L238.381 461.08L244.672 462.201Z" fill="#FBBC03"/>
<path d="M222.688 458.067L217.547 475.16L211.429 473.32L213.166 467.547L207.469 465.833L205.732 471.606L199.613 469.765L204.755 452.672L210.874 454.513L208.917 461.014L214.614 462.728L216.571 456.227L222.688 458.067Z" fill="#FBBC03"/>
<path d="M202.33 451.79L195.337 455.586C196.371 456.286 197.123 457.169 197.594 458.238C198.088 459.459 198.015 460.818 197.381 462.312C196.684 463.953 195.627 465.081 194.21 465.694C192.642 466.388 190.535 466.171 187.889 465.047L179.216 461.361L186.197 444.932L192.077 447.431L189.86 452.65L190.338 452.853L196.157 449.165L202.33 451.79ZM188.329 456.252L186.721 460.038L188.484 460.787C189.342 461.152 190.027 461.24 190.539 461.053C191.029 460.857 191.397 460.464 191.648 459.876C191.908 459.263 191.922 458.719 191.69 458.246C191.432 457.761 190.925 457.356 190.165 457.034L188.329 456.252Z" fill="#FBBC03"/>
<path d="M467.219 213.613C479.194 255.419 477.771 299.079 463.104 339.873L457.862 337.989C472.132 298.301 473.515 255.823 461.864 215.147C431.43 108.897 320.243 47.2162 214.008 77.6483C107.77 108.082 46.0984 219.281 76.5318 325.531C90.0029 372.562 120.103 412.938 161.286 439.218L158.289 443.914C115.962 416.903 85.0217 375.402 71.1764 327.065C71.1754 327.062 71.1773 327.068 71.1764 327.065C56.0238 274.166 62.3773 218.531 89.0652 170.41C115.753 122.29 159.58 87.4451 212.474 72.2926C265.368 57.1402 320.996 63.495 369.11 90.187C417.224 116.88 452.067 160.712 467.219 213.613Z" fill="#FBBC03"/>
<path d="M467.219 213.613C479.194 255.419 477.771 299.079 463.104 339.873L457.862 337.989C472.132 298.301 473.515 255.823 461.864 215.147C431.43 108.897 320.243 47.2162 214.008 77.6483C107.77 108.082 46.0984 219.281 76.5318 325.531C90.0029 372.562 120.103 412.938 161.286 439.218L158.289 443.914C115.962 416.903 85.0217 375.402 71.1764 327.065C71.1754 327.062 71.1773 327.068 71.1764 327.065C56.0238 274.166 62.3773 218.531 89.0652 170.41C115.753 122.29 159.58 87.4451 212.474 72.2926C265.368 57.1402 320.996 63.495 369.11 90.187C417.224 116.88 452.067 160.712 467.219 213.613Z" fill="#FBBC03"/>
<path d="M275.954 120.213L271.873 120.229L271.932 135.173L266.961 135.192L266.902 120.249L262.822 120.264L262.805 116.041L275.937 115.989L275.954 120.213Z" fill="#34A853"/>
<path d="M279.066 119.068C278.594 118.525 278.385 117.901 278.434 117.194C278.482 116.487 278.778 115.898 279.319 115.427C279.861 114.955 280.487 114.744 281.193 114.794C281.899 114.843 282.489 115.139 282.959 115.68C283.431 116.223 283.642 116.847 283.592 117.554C283.543 118.262 283.247 118.851 282.705 119.321C282.163 119.793 281.539 120.004 280.832 119.954C280.126 119.905 279.537 119.61 279.066 119.068ZM278.347 122.547L282.933 122.867L282.039 135.681L277.452 135.361L278.347 122.547Z" fill="#34A853"/>
<path d="M299.148 131.886L299.074 132.368L289.615 130.914C289.478 131.803 289.634 132.554 290.083 133.165C290.435 133.647 291.027 133.951 291.861 134.079C292.429 134.166 292.939 134.128 293.391 133.965C293.782 133.812 294.092 133.569 294.318 133.236L298.663 133.904C298.221 134.883 297.577 135.676 296.727 136.282C295.335 137.269 293.521 137.591 291.288 137.248C289.073 136.907 287.42 135.994 286.33 134.508C285.273 133.066 284.894 131.37 285.194 129.42C285.509 127.375 286.394 125.835 287.853 124.798C289.311 123.762 291.138 123.413 293.335 123.752C295.361 124.064 296.9 124.891 297.954 126.236C299.098 127.731 299.497 129.613 299.148 131.886ZM290.159 128.323L295.3 129.113C295.252 128.544 295.076 128.051 294.771 127.637C294.387 127.112 293.796 126.789 293.002 126.667C292.225 126.548 291.575 126.68 291.051 127.064C290.608 127.422 290.311 127.842 290.159 128.323Z" fill="#34A853"/>
<path d="M300.346 138.45L303.524 126.004L307.979 127.141L307.46 129.173C308.067 128.498 308.798 128.072 309.654 127.895C310.353 127.718 311.166 127.746 312.094 127.984C312.132 127.993 312.176 128.01 312.23 128.033C312.283 128.057 312.379 128.091 312.515 128.135C312.652 128.181 312.804 128.225 312.971 128.267L311.898 132.472C311.379 132.024 310.776 131.711 310.09 131.536C309.217 131.313 308.483 131.363 307.887 131.686C307.061 132.128 306.486 132.99 306.16 134.27L304.801 139.588L300.346 138.45Z" fill="#34A853"/>
<path d="M332.463 145.038L330.826 148.932L316.653 142.976L323.101 140.168C325.413 139.165 327.25 138.182 328.613 137.216C329.664 136.495 330.368 135.71 330.724 134.863C331.036 134.121 331.096 133.481 330.908 132.944C330.738 132.458 330.379 132.098 329.832 131.868C329.178 131.593 328.566 131.616 327.995 131.938C327.398 132.269 326.882 132.903 326.447 133.843L321.705 131.849C322.554 129.878 323.893 128.52 325.725 127.772C327.532 127.035 329.468 127.101 331.534 127.969C333.636 128.853 335.041 130.161 335.746 131.89C336.412 133.522 336.377 135.211 335.643 136.959C334.856 138.831 333.247 140.213 330.815 141.102L326.69 142.61L332.463 145.038Z" fill="#34A853"/>
<path d="M338.442 152.98L345.295 142.116L356.549 149.216L349.695 160.079L345.805 157.626L350.727 149.824L347.252 147.631L342.33 155.433L338.442 152.98Z" fill="#34A853"/>
<path d="M367.45 165.949C366.28 167.392 364.77 168.205 362.923 168.383C360.915 168.58 358.98 167.924 357.12 166.415C355.275 164.919 354.239 163.168 354.018 161.162C353.811 159.317 354.292 157.673 355.463 156.23C356.633 154.787 358.136 153.982 359.971 153.818C361.994 153.633 363.922 154.283 365.752 155.767C367.569 157.239 368.61 158.996 368.878 161.039C369.096 162.868 368.62 164.506 367.45 165.949ZM363.313 158.822C362.703 158.327 361.992 158.108 361.182 158.166C360.37 158.224 359.699 158.581 359.169 159.235C358.685 159.83 358.488 160.545 358.575 161.381C358.659 162.19 359.014 162.847 359.639 163.354C360.249 163.848 360.96 164.053 361.767 163.969C362.578 163.911 363.238 163.569 363.744 162.945C364.251 162.32 364.46 161.59 364.374 160.754C364.261 159.949 363.909 159.305 363.313 158.822Z" fill="#34A853"/>
<path d="M374.644 176.291L371.966 179.057C370.931 178.723 370 178.155 369.175 177.355C367.715 175.943 366.957 174.302 366.9 172.433C366.842 170.592 367.481 168.983 368.813 167.606C370.185 166.188 371.834 165.477 373.757 165.473C375.641 165.483 377.331 166.214 378.833 167.666C379.576 168.386 380.124 169.25 380.481 170.261L377.802 173.027C377.624 172.082 377.246 171.33 376.668 170.77C376.02 170.143 375.278 169.838 374.438 169.851C373.598 169.864 372.871 170.188 372.259 170.821C371.672 171.427 371.365 172.129 371.338 172.93C371.325 173.824 371.663 174.604 372.351 175.27C372.997 175.897 373.762 176.237 374.644 176.291Z" fill="#34A853"/>
<path d="M383.21 172.762L386.125 176.318L381.013 180.507L389.349 180.252L391.88 183.34L381.946 191.483L379.032 187.927L384.277 183.628L375.844 184.038L373.276 180.904L383.21 172.762Z" fill="#34A853"/>
<path d="M401.518 197.941L390.706 204.876L388.223 201.006L395.867 196.104L394.1 193.346L391.003 195.332C389.357 196.387 387.897 196.789 386.621 196.538C385.493 196.305 384.495 195.511 383.626 194.156C383.305 193.657 383.023 193.109 382.778 192.516L385.584 190.715C385.937 191.445 386.4 191.865 386.973 191.976C387.518 192.081 388.202 191.87 389.025 191.343L394.878 187.589L401.518 197.941Z" fill="#34A853"/>
<path d="M406.79 211.036L407.902 210.498L409.903 214.639L398.338 220.228L396.337 216.088L397.604 215.476C396.117 215.216 394.986 214.285 394.211 212.68C393.426 211.059 393.369 209.375 394.035 207.627C394.673 205.956 395.821 204.721 397.477 203.92C399.374 203.003 401.205 202.852 402.971 203.467C404.583 204.029 405.797 205.154 406.614 206.845C407.298 208.258 407.355 209.655 406.79 211.036ZM403.546 209.476C403.212 208.786 402.67 208.303 401.921 208.028C401.119 207.733 400.356 207.762 399.632 208.112C398.873 208.48 398.372 209.05 398.131 209.827C397.879 210.628 397.921 211.376 398.254 212.066C398.596 212.773 399.163 213.264 399.956 213.541C400.724 213.809 401.47 213.767 402.195 213.416C402.936 213.058 403.437 212.485 403.696 211.702C403.937 210.926 403.887 210.184 403.546 209.476Z" fill="#34A853"/>
<path d="M399.288 222.62L411.438 218.455L412.928 222.804L408.824 224.212L410.212 228.262L414.318 226.854L415.809 231.204L403.657 235.37L402.167 231.02L406.788 229.435L405.399 225.386L400.778 226.97L399.288 222.62Z" fill="#34A853"/>
<path d="M404.364 237.898L416.915 235.165L417.892 239.658L413.653 240.581L414.564 244.765L418.804 243.842L419.782 248.335L407.231 251.068L406.253 246.575L411.026 245.536L410.116 241.352L405.342 242.391L404.364 237.898Z" fill="#34A853"/>
<path d="M407.523 252.903L412.353 255.978C412.432 255.084 412.726 254.301 413.233 253.632C413.829 252.894 414.71 252.465 415.872 252.342C417.149 252.208 418.227 252.479 419.107 253.157C420.09 253.902 420.691 255.303 420.906 257.36L421.616 264.104L408.841 265.448L408.361 260.876L412.419 260.449L412.379 260.076L408.027 257.703L407.523 252.903ZM415.22 260.155L418.164 259.845L418.02 258.474C417.949 257.807 417.766 257.345 417.469 257.087C417.174 256.848 416.799 256.752 416.342 256.801C415.865 256.851 415.517 257.032 415.3 257.344C415.085 257.674 415.008 258.135 415.071 258.726L415.22 260.155Z" fill="#34A853"/>
<path d="M164.626 168.8C186.865 146.559 214.985 132.14 245.941 127.103L246.836 132.602C217.039 137.449 189.974 151.329 168.564 172.738C112.63 228.676 112.628 319.688 168.558 375.622C224.488 431.555 315.496 431.553 371.431 375.615C394.634 352.411 409.279 321.682 412.667 289.089L418.208 289.664C414.689 323.526 399.475 355.449 375.37 379.555C317.264 437.664 222.722 437.667 164.619 379.561C106.517 321.456 106.519 226.91 164.626 168.8Z" fill="#34A853"/>
<path d="M269.189 362.473C218.376 362.473 177.037 321.132 177.037 270.316C177.037 219.5 218.376 178.159 269.189 178.159C320.002 178.159 361.341 219.5 361.341 270.316C361.341 321.132 320.001 362.473 269.189 362.473ZM269.189 183.73C221.448 183.73 182.607 222.573 182.607 270.316C182.607 318.059 221.448 356.902 269.189 356.902C316.93 356.902 355.77 318.059 355.77 270.316C355.77 222.573 316.93 183.73 269.189 183.73Z" fill="#3F69FF"/>
<path d="M242.53 228.392V233.816H255.495C255.099 236.859 254.084 239.086 252.541 240.652C250.645 242.548 247.689 244.621 242.53 244.621C234.548 244.621 228.308 238.182 228.308 230.2C228.308 222.219 234.548 215.78 242.53 215.78C246.83 215.78 249.983 217.478 252.298 219.661L256.112 215.847C252.893 212.716 248.571 210.334 242.53 210.334C231.593 210.334 222.399 219.242 222.399 230.18C222.399 241.117 231.593 250.026 242.53 250.026C248.44 250.026 252.893 248.086 256.377 244.469C259.949 240.897 261.073 235.847 261.073 231.79C261.073 230.533 260.985 229.365 260.786 228.395H242.53V228.392Z" fill="#3F69FF"/>
<path d="M264.33 213.945H266.241C266.306 214.114 266.368 214.329 266.426 214.588C266.484 214.848 266.526 215.089 266.553 215.31C266.982 214.816 267.498 214.435 268.103 214.169C268.707 213.903 269.38 213.77 270.121 213.77H270.219C270.921 213.77 271.57 213.896 272.168 214.15C272.766 214.404 273.283 214.754 273.718 215.202C274.153 215.651 274.491 216.187 274.732 216.811C274.972 217.435 275.092 218.124 275.092 218.878V219.151C275.092 219.905 274.971 220.594 274.732 221.218C274.491 221.842 274.153 222.379 273.718 222.827C273.283 223.276 272.766 223.627 272.168 223.879C271.57 224.134 270.921 224.26 270.219 224.26H270.121C269.445 224.26 268.818 224.143 268.239 223.909C267.661 223.675 267.164 223.343 266.747 222.914V227.984H264.329V213.945H264.33ZM269.731 222.33C270.576 222.33 271.262 222.037 271.789 221.452C272.315 220.867 272.579 220.087 272.579 219.111V218.917C272.579 217.942 272.319 217.162 271.799 216.576C271.279 215.991 270.59 215.699 269.732 215.699H269.596C268.751 215.699 268.065 215.991 267.538 216.576C267.012 217.161 266.748 217.941 266.748 218.917V219.111C266.748 220.086 267.012 220.866 267.538 221.452C268.065 222.037 268.75 222.33 269.596 222.33H269.731Z" fill="#2B2B42"/>
<path d="M280.202 224.279C279.682 224.279 279.203 224.204 278.768 224.055C278.332 223.905 277.959 223.701 277.646 223.44C277.334 223.18 277.091 222.861 276.916 222.484C276.74 222.107 276.652 221.698 276.652 221.256V221.12C276.652 218.923 278.693 217.824 282.774 217.824H283.593V217.376C283.593 216.882 283.41 216.485 283.047 216.186C282.683 215.887 282.163 215.738 281.487 215.738H281.429C280.896 215.738 280.34 215.829 279.762 216.011C279.184 216.193 278.641 216.446 278.134 216.771L277.139 215.016C277.763 214.626 278.452 214.314 279.206 214.08C279.959 213.847 280.746 213.729 281.564 213.729H281.681C282.292 213.729 282.851 213.807 283.358 213.963C283.865 214.119 284.307 214.353 284.684 214.665C285.061 214.977 285.354 215.361 285.562 215.816C285.77 216.271 285.874 216.804 285.874 217.415V221.997C285.874 222.348 285.905 222.699 285.971 223.05C286.036 223.401 286.12 223.745 286.224 224.083H283.926C283.86 223.927 283.805 223.742 283.759 223.528C283.714 223.314 283.678 223.096 283.653 222.874C283.224 223.303 282.717 223.645 282.132 223.899C281.547 224.152 280.903 224.279 280.202 224.279ZM280.689 222.329C281.261 222.329 281.8 222.215 282.307 221.988C282.814 221.761 283.243 221.458 283.594 221.081V219.385H282.912C281.573 219.385 280.585 219.519 279.948 219.784C279.311 220.051 278.993 220.458 278.993 221.003V221.081C278.993 221.445 279.149 221.744 279.461 221.978C279.772 222.212 280.181 222.329 280.689 222.329Z" fill="#2B2B42"/>
<path d="M288.137 217.397C288.137 216.851 288.25 216.354 288.478 215.906C288.705 215.458 289.021 215.077 289.424 214.765C289.827 214.453 290.304 214.21 290.858 214.034C291.41 213.859 292.017 213.77 292.68 213.77H292.973C293.753 213.77 294.441 213.887 295.039 214.121C295.143 213.809 295.25 213.536 295.362 213.302C295.471 213.069 295.598 212.861 295.741 212.678H297.945L296.677 215.194C297.223 215.805 297.496 216.539 297.496 217.397V217.552C297.496 218.073 297.382 218.554 297.154 218.995C296.927 219.437 296.612 219.818 296.209 220.135C295.806 220.454 295.328 220.705 294.776 220.887C294.223 221.069 293.623 221.16 292.973 221.16H292.875C292.654 221.16 292.427 221.14 292.194 221.101V222.193C292.363 222.18 292.521 222.171 292.671 222.164C292.82 222.158 292.979 222.154 293.148 222.154H293.324C293.987 222.154 294.604 222.222 295.176 222.358C295.748 222.495 296.242 222.69 296.658 222.943C297.074 223.197 297.399 223.502 297.633 223.86C297.866 224.217 297.984 224.617 297.984 225.059V225.254C297.984 225.695 297.863 226.096 297.623 226.453C297.383 226.81 297.054 227.117 296.638 227.369C296.222 227.623 295.726 227.818 295.147 227.954C294.569 228.091 293.941 228.16 293.266 228.16H292.779C292.103 228.16 291.472 228.091 290.887 227.954C290.302 227.818 289.802 227.623 289.386 227.369C288.97 227.116 288.642 226.81 288.401 226.453C288.16 226.096 288.041 225.695 288.041 225.254V225.02C288.041 224.448 288.239 223.941 288.635 223.499C289.031 223.057 289.554 222.706 290.205 222.446V220.614C289.568 220.315 289.065 219.896 288.694 219.356C288.324 218.817 288.139 218.216 288.139 217.552V217.397H288.137ZM290.457 225.137C290.457 225.501 290.673 225.797 291.101 226.024C291.53 226.251 292.095 226.366 292.797 226.366H293.246C293.948 226.366 294.517 226.249 294.952 226.015C295.388 225.781 295.605 225.488 295.605 225.137V224.981C295.605 224.63 295.388 224.341 294.952 224.113C294.517 223.887 293.948 223.771 293.246 223.771H292.797C292.095 223.771 291.53 223.886 291.101 224.113C290.672 224.341 290.457 224.629 290.457 224.981V225.137ZM290.535 217.63C290.535 217.903 290.594 218.15 290.711 218.371C290.828 218.593 290.988 218.781 291.189 218.937C291.39 219.093 291.627 219.213 291.901 219.297C292.174 219.382 292.459 219.424 292.759 219.424H292.974C293.273 219.424 293.555 219.379 293.821 219.288C294.088 219.197 294.322 219.073 294.523 218.917C294.725 218.761 294.883 218.573 295 218.352C295.117 218.131 295.176 217.89 295.176 217.63V217.416C295.176 217.156 295.117 216.915 295 216.694C294.883 216.473 294.725 216.285 294.523 216.13C294.322 215.974 294.088 215.85 293.821 215.758C293.555 215.667 293.266 215.622 292.953 215.622H292.778C292.466 215.622 292.176 215.667 291.91 215.758C291.643 215.849 291.405 215.974 291.197 216.13C290.989 216.285 290.827 216.473 290.71 216.694C290.594 216.916 290.534 217.156 290.534 217.416V217.63H290.535Z" fill="#2B2B42"/>
<path d="M304.534 224.26C303.767 224.26 303.061 224.136 302.418 223.889C301.775 223.642 301.222 223.298 300.761 222.856C300.299 222.414 299.942 221.881 299.688 221.257C299.435 220.633 299.308 219.951 299.308 219.21V218.937C299.308 218.196 299.438 217.507 299.697 216.87C299.957 216.233 300.318 215.687 300.779 215.232C301.241 214.777 301.79 214.419 302.427 214.159C303.064 213.899 303.753 213.769 304.494 213.769H304.611C305.313 213.769 305.959 213.886 306.551 214.12C307.143 214.354 307.653 214.676 308.082 215.085C308.511 215.495 308.846 215.986 309.086 216.557C309.327 217.129 309.446 217.759 309.446 218.448V219.755H301.706V219.774C301.797 220.515 302.112 221.109 302.651 221.558C303.19 222.006 303.87 222.231 304.689 222.231H304.786C305.41 222.231 305.986 222.108 306.512 221.861C307.038 221.614 307.451 221.302 307.75 220.925L309.095 222.387C308.615 222.972 307.974 223.43 307.175 223.761C306.376 224.093 305.553 224.258 304.708 224.258H304.534V224.26ZM307.147 218.137C307.095 217.409 306.828 216.814 306.347 216.354C305.866 215.892 305.255 215.661 304.514 215.661H304.495C303.793 215.661 303.199 215.886 302.711 216.334C302.224 216.783 301.908 217.384 301.765 218.138L307.147 218.137Z" fill="#2B2B42"/>
<path d="M264.35 237.344H266.26C266.326 237.538 266.387 237.772 266.444 238.045C266.503 238.318 266.539 238.566 266.552 238.786C266.942 238.332 267.419 237.978 267.985 237.724C268.55 237.471 269.184 237.344 269.885 237.344H270.119V239.683C269.924 239.605 269.71 239.566 269.476 239.566C268.592 239.566 267.92 239.795 267.457 240.249C266.996 240.704 266.766 241.321 266.766 242.101V247.483H264.348V237.344H264.35Z" fill="#2B2B42"/>
<path d="M274.742 247.678C274.222 247.678 273.744 247.603 273.309 247.453C272.873 247.304 272.5 247.099 272.187 246.839C271.875 246.579 271.632 246.26 271.456 245.883C271.281 245.506 271.193 245.097 271.193 244.655V244.518C271.193 242.321 273.233 241.223 277.315 241.223H278.134V240.774C278.134 240.28 277.951 239.884 277.588 239.585C277.224 239.286 276.704 239.137 276.028 239.137H275.97C275.437 239.137 274.88 239.228 274.303 239.41C273.725 239.592 273.181 239.845 272.674 240.17L271.68 238.415C272.304 238.025 272.993 237.713 273.747 237.479C274.5 237.246 275.286 237.128 276.105 237.128H276.222C276.833 237.128 277.392 237.206 277.899 237.362C278.406 237.517 278.848 237.752 279.225 238.064C279.602 238.376 279.894 238.76 280.102 239.215C280.31 239.67 280.414 240.202 280.414 240.813V245.396C280.414 245.747 280.446 246.098 280.512 246.449C280.577 246.8 280.661 247.144 280.765 247.482H278.464C278.398 247.326 278.344 247.14 278.298 246.927C278.253 246.712 278.216 246.495 278.191 246.273C277.762 246.702 277.255 247.044 276.671 247.297C276.087 247.551 275.444 247.678 274.742 247.678ZM275.23 245.728C275.801 245.728 276.341 245.614 276.848 245.386C277.355 245.16 277.784 244.857 278.135 244.48V242.784H277.452C276.113 242.784 275.126 242.917 274.489 243.183C273.852 243.45 273.533 243.856 273.533 244.402V244.48C273.533 244.844 273.689 245.143 274.001 245.377C274.313 245.61 274.723 245.728 275.23 245.728Z" fill="#2B2B42"/>
<path d="M283.341 237.344H285.251C285.316 237.552 285.378 237.805 285.435 238.104C285.494 238.403 285.536 238.663 285.562 238.884C286.043 238.299 286.605 237.864 287.25 237.578C287.893 237.292 288.565 237.149 289.268 237.149H289.327C290.522 237.149 291.432 237.484 292.056 238.152C292.68 238.823 292.992 239.774 292.992 241.009V247.483H290.574V241.516C290.574 240.775 290.412 240.214 290.087 239.829C289.761 239.447 289.242 239.254 288.527 239.254H288.449C287.63 239.254 286.977 239.508 286.489 240.015C286.002 240.522 285.758 241.185 285.758 242.004V247.483H283.341V237.344Z" fill="#2B2B42"/>
<path d="M295.74 233.444H298.158V241.614H298.314L302.409 237.343H305.137L300.458 242.043L305.254 247.483H302.349L298.314 242.686H298.158V247.483H295.74V233.444Z" fill="#2B2B42"/>
<path d="M306.016 245.532C306.392 245.299 306.828 245.019 307.322 244.694C307.815 244.369 308.326 244.001 308.853 243.591C309.379 243.182 309.899 242.747 310.413 242.285C310.926 241.824 311.384 241.35 311.787 240.863C312.19 240.375 312.515 239.877 312.762 239.371C313.009 238.864 313.132 238.37 313.132 237.889C313.132 237.265 312.937 236.768 312.548 236.397C312.158 236.026 311.631 235.841 310.968 235.841C310.318 235.841 309.743 236.057 309.242 236.485C308.742 236.914 308.42 237.57 308.277 238.454L305.899 237.928C305.99 237.239 306.178 236.629 306.464 236.096C306.75 235.563 307.11 235.11 307.546 234.74C307.981 234.369 308.491 234.087 309.077 233.892C309.662 233.697 310.292 233.6 310.968 233.6C311.657 233.6 312.288 233.7 312.859 233.902C313.431 234.104 313.925 234.386 314.341 234.75C314.757 235.114 315.078 235.552 315.306 236.066C315.533 236.58 315.648 237.142 315.648 237.753C315.648 238.52 315.455 239.271 315.073 240.006C314.689 240.74 314.205 241.433 313.621 242.082C313.036 242.732 312.402 243.33 311.72 243.876C311.038 244.422 310.391 244.89 309.78 245.28H315.979V247.483H306.017L306.016 245.532Z" fill="#2B2B42"/>
<path d="M193.868 275.535H201.164V277.63H196.234V288.178H193.867V275.535H193.868Z" fill="#2B2B42"/>
<path d="M205.878 288.34C205.155 288.34 204.49 288.223 203.882 287.989C203.274 287.754 202.751 287.428 202.311 287.013C201.872 286.598 201.529 286.098 201.283 285.514C201.035 284.93 200.912 284.295 200.912 283.609V283.356C200.912 282.67 201.036 282.034 201.283 281.45C201.53 280.866 201.872 280.366 202.311 279.951C202.751 279.536 203.274 279.21 203.882 278.975C204.49 278.741 205.155 278.624 205.878 278.624H206.022C206.744 278.624 207.41 278.741 208.018 278.975C208.625 279.21 209.15 279.536 209.588 279.951C210.028 280.366 210.371 280.866 210.617 281.45C210.863 282.034 210.987 282.669 210.987 283.356V283.609C210.987 284.294 210.863 284.93 210.617 285.514C210.371 286.098 210.027 286.598 209.588 287.013C209.149 287.428 208.625 287.754 208.018 287.989C207.41 288.223 206.744 288.34 206.022 288.34H205.878ZM206.005 286.57C206.389 286.57 206.745 286.495 207.07 286.344C207.395 286.194 207.674 285.986 207.909 285.721C208.144 285.456 208.327 285.141 208.461 284.773C208.593 284.405 208.659 284.006 208.659 283.573V283.391C208.659 282.958 208.593 282.559 208.461 282.191C208.327 281.823 208.144 281.507 207.909 281.243C207.674 280.978 207.394 280.77 207.07 280.62C206.744 280.469 206.389 280.394 206.005 280.394H205.896C205.511 280.394 205.159 280.469 204.84 280.62C204.52 280.77 204.243 280.978 204.009 281.243C203.774 281.507 203.59 281.824 203.457 282.191C203.324 282.558 203.258 282.958 203.258 283.391V283.573C203.258 284.006 203.324 284.405 203.457 284.773C203.59 285.141 203.774 285.456 204.009 285.721C204.243 285.986 204.52 286.194 204.84 286.344C205.159 286.495 205.511 286.57 205.896 286.57H206.005Z" fill="#2B2B42"/>
<path d="M212.813 288.34C212.416 288.34 212.06 288.281 211.748 288.16V286.354C211.856 286.415 211.97 286.454 212.091 286.472C212.212 286.491 212.319 286.499 212.417 286.499C212.657 286.499 212.85 286.439 212.994 286.318C213.139 286.198 213.253 285.982 213.338 285.668C213.421 285.355 213.479 284.924 213.51 284.377C213.54 283.829 213.561 283.128 213.573 282.273L213.591 278.786H220.779V288.178H218.539V280.592H215.686L215.65 282.741C215.638 283.837 215.575 284.745 215.46 285.469C215.346 286.192 215.172 286.764 214.938 287.184C214.703 287.606 214.41 287.904 214.061 288.079C213.71 288.253 213.295 288.34 212.813 288.34Z" fill="#2B2B42"/>
<path d="M227.877 288.34C227.154 288.34 226.49 288.223 225.881 287.989C225.273 287.754 224.75 287.428 224.31 287.013C223.871 286.598 223.528 286.098 223.282 285.514C223.034 284.93 222.911 284.295 222.911 283.609V283.356C222.911 282.67 223.035 282.034 223.282 281.45C223.529 280.866 223.871 280.366 224.31 279.951C224.75 279.536 225.273 279.21 225.881 278.975C226.49 278.741 227.154 278.624 227.877 278.624H228.021C228.743 278.624 229.409 278.741 230.017 278.975C230.624 279.21 231.149 279.536 231.587 279.951C232.027 280.366 232.37 280.866 232.617 281.45C232.863 282.034 232.986 282.669 232.986 283.356V283.609C232.986 284.294 232.863 284.93 232.617 285.514C232.37 286.098 232.026 286.598 231.587 287.013C231.148 287.428 230.624 287.754 230.017 287.989C229.409 288.223 228.743 288.34 228.021 288.34H227.877ZM228.003 286.57C228.387 286.57 228.743 286.495 229.068 286.344C229.393 286.194 229.672 285.986 229.907 285.721C230.142 285.456 230.325 285.141 230.459 284.773C230.592 284.405 230.657 284.006 230.657 283.573V283.391C230.657 282.958 230.592 282.559 230.459 282.191C230.325 281.823 230.142 281.507 229.907 281.243C229.672 280.978 229.392 280.77 229.068 280.62C228.742 280.469 228.387 280.394 228.003 280.394H227.894C227.509 280.394 227.157 280.469 226.838 280.62C226.518 280.77 226.241 280.978 226.007 281.243C225.772 281.507 225.588 281.824 225.455 282.191C225.322 282.558 225.257 282.958 225.257 283.391V283.573C225.257 284.006 225.322 284.405 225.455 284.773C225.588 285.141 225.772 285.456 226.007 285.721C226.241 285.986 226.518 286.194 226.838 286.344C227.157 286.495 227.509 286.57 227.894 286.57H228.003Z" fill="#2B2B42"/>
<path d="M235.136 278.786H239.958C240.392 278.786 240.792 278.846 241.159 278.966C241.527 279.087 241.842 279.253 242.107 279.463C242.372 279.675 242.58 279.923 242.73 280.213C242.881 280.502 242.956 280.82 242.956 281.169V281.477C242.956 282.211 242.583 282.813 241.836 283.283C242.342 283.488 242.73 283.768 243.001 284.122C243.272 284.478 243.408 284.884 243.408 285.341V285.648C243.408 286.021 243.329 286.362 243.173 286.669C243.016 286.976 242.794 287.241 242.505 287.463C242.215 287.686 241.875 287.86 241.483 287.987C241.093 288.113 240.662 288.176 240.192 288.176H235.135L235.136 278.786ZM239.344 282.669C239.789 282.669 240.142 282.572 240.401 282.379C240.66 282.187 240.79 281.935 240.79 281.621V281.458C240.79 281.145 240.66 280.893 240.401 280.701C240.143 280.507 239.796 280.411 239.363 280.411H237.286V282.669H239.344ZM239.67 286.552C240.127 286.552 240.501 286.451 240.79 286.246C241.079 286.04 241.223 285.776 241.223 285.451V285.252C241.223 284.903 241.081 284.626 240.799 284.421C240.515 284.216 240.145 284.114 239.688 284.114H237.286V286.552H239.67Z" fill="#2B2B42"/>
<path d="M245.34 278.786H247.526V282.363H251.842V278.786H254.082V288.178H251.842V284.169H247.526V288.178H245.34V278.786Z" fill="#2B2B42"/>
<path d="M259.409 288.358C258.928 288.358 258.486 288.289 258.082 288.15C257.678 288.013 257.331 287.821 257.044 287.582C256.754 287.34 256.528 287.046 256.367 286.697C256.205 286.348 256.123 285.968 256.123 285.559V285.431C256.123 283.397 258.013 282.379 261.793 282.379H262.551V281.964C262.551 281.507 262.382 281.139 262.045 280.862C261.708 280.585 261.226 280.447 260.601 280.447H260.546C260.052 280.447 259.538 280.532 259.002 280.7C258.466 280.868 257.964 281.104 257.494 281.403L256.573 279.779C257.15 279.416 257.789 279.129 258.487 278.911C259.186 278.694 259.914 278.585 260.673 278.585H260.782C261.347 278.585 261.865 278.658 262.335 278.802C262.805 278.946 263.213 279.163 263.563 279.452C263.912 279.741 264.183 280.096 264.376 280.517C264.568 280.938 264.665 281.432 264.665 281.999V286.243C264.665 286.568 264.695 286.893 264.756 287.218C264.815 287.544 264.894 287.862 264.99 288.175H262.86C262.799 288.031 262.748 287.859 262.705 287.66C262.664 287.461 262.63 287.26 262.607 287.055C262.21 287.453 261.74 287.769 261.198 288.003C260.655 288.241 260.059 288.358 259.409 288.358ZM259.861 286.552C260.39 286.552 260.89 286.447 261.359 286.236C261.829 286.026 262.227 285.746 262.551 285.396V283.826H261.919C260.679 283.826 259.764 283.949 259.174 284.196C258.583 284.442 258.289 284.819 258.289 285.325V285.396C258.289 285.733 258.434 286.011 258.722 286.228C259.012 286.444 259.391 286.552 259.861 286.552Z" fill="#2B2B42"/>
<path d="M276.404 288.322C275.693 288.322 275.047 288.205 274.463 287.97C273.878 287.735 273.375 287.409 272.954 286.994C272.532 286.579 272.205 286.082 271.97 285.505C271.735 284.927 271.617 284.294 271.617 283.609V283.319C271.617 282.633 271.738 282.003 271.979 281.431C272.219 280.86 272.55 280.366 272.972 279.95C273.393 279.534 273.893 279.213 274.471 278.984C275.049 278.755 275.681 278.641 276.367 278.641H276.476C277.39 278.641 278.189 278.833 278.868 279.219C279.548 279.604 280.098 280.128 280.52 280.79L278.859 281.892C278.341 280.917 277.559 280.429 276.511 280.429H276.457C275.673 280.429 275.06 280.688 274.615 281.206C274.17 281.724 273.946 282.453 273.946 283.391V283.572C273.946 284.476 274.187 285.188 274.669 285.713C275.151 286.236 275.775 286.499 276.546 286.499H276.637C277.178 286.499 277.643 286.366 278.028 286.101C278.412 285.836 278.726 285.481 278.967 285.036L280.592 286.247C280.159 286.897 279.603 287.405 278.922 287.773C278.242 288.141 277.443 288.324 276.528 288.324H276.404V288.322Z" fill="#2B2B42"/>
<path d="M284.188 280.628H281.353V278.786H289.263V280.628H286.428V288.178H284.188V280.628Z" fill="#2B2B42"/>
<path d="M294.934 288.34C294.212 288.34 293.547 288.223 292.939 287.989C292.331 287.754 291.807 287.428 291.368 287.013C290.929 286.598 290.586 286.098 290.339 285.514C290.092 284.93 289.969 284.295 289.969 283.609V283.356C289.969 282.67 290.092 282.034 290.339 281.45C290.586 280.866 290.929 280.366 291.368 279.951C291.807 279.536 292.331 279.21 292.939 278.975C293.547 278.741 294.212 278.624 294.934 278.624H295.078C295.801 278.624 296.466 278.741 297.075 278.975C297.682 279.21 298.206 279.536 298.645 279.951C299.085 280.366 299.428 280.866 299.674 281.45C299.92 282.034 300.044 282.669 300.044 283.356V283.609C300.044 284.294 299.92 284.93 299.674 285.514C299.428 286.098 299.084 286.598 298.645 287.013C298.205 287.428 297.682 287.754 297.075 287.989C296.466 288.223 295.801 288.34 295.078 288.34H294.934ZM295.062 286.57C295.446 286.57 295.802 286.495 296.127 286.344C296.452 286.194 296.731 285.986 296.966 285.721C297.201 285.456 297.384 285.141 297.517 284.773C297.65 284.405 297.716 284.006 297.716 283.573V283.391C297.716 282.958 297.65 282.559 297.517 282.191C297.384 281.823 297.201 281.507 296.966 281.243C296.731 280.978 296.451 280.77 296.127 280.62C295.801 280.469 295.446 280.394 295.062 280.394H294.953C294.568 280.394 294.216 280.469 293.896 280.62C293.577 280.77 293.299 280.978 293.065 281.243C292.831 281.507 292.647 281.824 292.514 282.191C292.381 282.558 292.315 282.958 292.315 283.391V283.573C292.315 284.006 292.381 284.405 292.514 284.773C292.647 285.141 292.831 285.456 293.065 285.721C293.299 285.986 293.577 286.194 293.896 286.344C294.216 286.495 294.568 286.57 294.953 286.57H295.062Z" fill="#2B2B42"/>
<path d="M302.176 278.786H303.946C304.006 278.943 304.064 279.142 304.118 279.382C304.173 279.623 304.212 279.846 304.236 280.051C304.633 279.594 305.111 279.242 305.671 278.994C306.232 278.747 306.854 278.624 307.541 278.624H307.632C308.282 278.624 308.884 278.741 309.437 278.976C309.99 279.211 310.47 279.537 310.873 279.952C311.277 280.367 311.589 280.864 311.813 281.442C312.035 282.02 312.146 282.659 312.146 283.357V283.61C312.146 284.308 312.035 284.946 311.813 285.524C311.59 286.102 311.277 286.598 310.873 287.014C310.47 287.429 309.991 287.754 309.437 287.989C308.883 288.224 308.282 288.341 307.632 288.341H307.541C306.914 288.341 306.333 288.234 305.798 288.016C305.263 287.8 304.802 287.493 304.417 287.095V291.792H302.177V278.786H302.176ZM307.18 286.552C307.963 286.552 308.597 286.282 309.085 285.74C309.574 285.197 309.817 284.476 309.817 283.572V283.391C309.817 282.489 309.575 281.767 309.094 281.224C308.613 280.683 307.975 280.412 307.18 280.412H307.053C306.27 280.412 305.635 280.683 305.148 281.224C304.66 281.767 304.416 282.489 304.416 283.391V283.572C304.416 284.476 304.66 285.197 305.148 285.74C305.634 286.282 306.27 286.552 307.053 286.552H307.18Z" fill="#2B2B42"/>
<path d="M315.416 277.323C315.03 277.323 314.714 277.211 314.468 276.988C314.221 276.766 314.098 276.48 314.098 276.13C314.098 275.781 314.222 275.49 314.468 275.255C314.714 275.02 315.03 274.903 315.416 274.903C315.813 274.903 316.138 275.02 316.391 275.255C316.643 275.49 316.77 275.781 316.77 276.13C316.77 276.48 316.643 276.766 316.391 276.988C316.138 277.211 315.813 277.323 315.416 277.323ZM314.313 278.786H316.553V288.178H314.313V278.786Z" fill="#2B2B42"/>
<path d="M319.261 278.786H321.447V282.363H325.763V278.786H328.003V288.178H325.763V284.169H321.447V288.178H319.261V278.786Z" fill="#2B2B42"/>
<path d="M330.712 278.786H332.951V282.741H333.095L336.888 278.786H339.417L335.082 283.139L339.525 288.178H336.834L333.096 283.735H332.952V288.178H330.713L330.712 278.786Z" fill="#2B2B42"/>
<path d="M343.426 288.358C342.945 288.358 342.503 288.289 342.099 288.15C341.695 288.013 341.349 287.821 341.061 287.582C340.771 287.34 340.545 287.046 340.384 286.697C340.222 286.348 340.14 285.968 340.14 285.559V285.431C340.14 283.397 342.03 282.379 345.81 282.379H346.568V281.964C346.568 281.507 346.399 281.139 346.062 280.862C345.725 280.585 345.243 280.447 344.618 280.447H344.563C344.069 280.447 343.555 280.532 343.019 280.7C342.483 280.868 341.981 281.104 341.511 281.403L340.59 279.779C341.168 279.416 341.806 279.129 342.505 278.911C343.203 278.694 343.932 278.585 344.69 278.585H344.799C345.364 278.585 345.882 278.658 346.352 278.802C346.822 278.946 347.23 279.163 347.58 279.452C347.93 279.741 348.2 280.096 348.393 280.517C348.585 280.938 348.683 281.432 348.683 281.999V286.243C348.683 286.568 348.712 286.893 348.773 287.218C348.832 287.544 348.911 287.862 349.008 288.175H346.877C346.816 288.031 346.765 287.859 346.723 287.66C346.681 287.461 346.647 287.26 346.624 287.055C346.227 287.453 345.757 287.769 345.215 288.003C344.673 288.241 344.076 288.358 343.426 288.358ZM343.878 286.552C344.407 286.552 344.907 286.447 345.376 286.236C345.846 286.026 346.244 285.746 346.568 285.396V283.826H345.936C344.696 283.826 343.781 283.949 343.191 284.196C342.6 284.442 342.306 284.819 342.306 285.325V285.396C342.306 285.733 342.451 286.011 342.739 286.228C343.029 286.444 343.408 286.552 343.878 286.552Z" fill="#2B2B42"/>
<path d="M226.503 297.209H231.054C231.74 297.209 232.366 297.307 232.931 297.506C233.497 297.705 233.982 297.985 234.385 298.346C234.789 298.707 235.101 299.143 235.325 299.655C235.547 300.167 235.658 300.736 235.658 301.362V301.47C235.658 302.109 235.547 302.687 235.325 303.204C235.102 303.722 234.792 304.164 234.395 304.532C233.997 304.899 233.515 305.182 232.949 305.38C232.383 305.579 231.758 305.679 231.072 305.679H228.868V309.85H226.502V297.209H226.503ZM230.891 303.729C231.65 303.729 232.234 303.527 232.644 303.124C233.053 302.72 233.258 302.182 233.258 301.508V301.4C233.258 300.75 233.059 300.235 232.662 299.856C232.264 299.477 231.692 299.287 230.945 299.287H228.814V303.73H230.891V303.729Z" fill="#2B2B42"/>
<path d="M237.61 297.209H242.432C243.058 297.209 243.63 297.284 244.148 297.434C244.666 297.585 245.108 297.802 245.476 298.084C245.844 298.366 246.129 298.701 246.334 299.086C246.539 299.471 246.641 299.899 246.641 300.369V300.496C246.641 301.038 246.52 301.524 246.279 301.958C246.038 302.392 245.653 302.778 245.123 303.114C245.821 303.404 246.354 303.819 246.722 304.361C247.09 304.902 247.273 305.523 247.273 306.221V306.329C247.273 306.859 247.171 307.341 246.966 307.774C246.761 308.208 246.473 308.578 246.099 308.885C245.726 309.192 245.271 309.43 244.735 309.599C244.199 309.768 243.606 309.851 242.956 309.851H237.61V297.209ZM242.378 302.519C242.992 302.519 243.468 302.371 243.805 302.076C244.142 301.781 244.311 301.387 244.311 300.893V300.785C244.311 300.315 244.148 299.942 243.823 299.665C243.498 299.388 243.029 299.25 242.415 299.25H239.886V302.52H242.378V302.519ZM242.83 307.81C243.48 307.81 243.988 307.66 244.356 307.359C244.724 307.058 244.907 306.649 244.907 306.132V306.041C244.907 305.499 244.717 305.074 244.338 304.768C243.96 304.46 243.444 304.307 242.794 304.307H239.886V307.81H242.83Z" fill="#2B2B42"/>
<path d="M249.602 297.209H252.256L257.495 306.185H257.639V297.209H259.933V309.851H257.513L252.059 300.441H251.915V309.851H249.603V297.209H249.602Z" fill="#2B2B42"/>
<path d="M271.853 309.996C271.141 309.996 270.495 309.879 269.911 309.644C269.326 309.409 268.824 309.084 268.402 308.668C267.981 308.253 267.653 307.757 267.418 307.179C267.183 306.602 267.065 305.968 267.065 305.283V304.993C267.065 304.307 267.186 303.678 267.428 303.106C267.668 302.535 267.999 302.041 268.42 301.625C268.842 301.209 269.341 300.888 269.92 300.658C270.497 300.43 271.129 300.316 271.816 300.316H271.924C272.839 300.316 273.637 300.508 274.317 300.893C274.996 301.278 275.547 301.802 275.969 302.464L274.308 303.566C273.789 302.591 273.008 302.104 271.959 302.104H271.906C271.122 302.104 270.508 302.362 270.064 302.88C269.619 303.398 269.395 304.127 269.395 305.066V305.247C269.395 306.15 269.636 306.863 270.117 307.387C270.599 307.911 271.224 308.174 271.995 308.174H272.086C272.627 308.174 273.091 308.041 273.477 307.775C273.861 307.511 274.175 307.156 274.415 306.71L276.041 307.921C275.607 308.571 275.051 309.08 274.371 309.447C273.69 309.815 272.892 309.998 271.977 309.998H271.853V309.996Z" fill="#2B2B42"/>
<path d="M280.522 310.032C280.04 310.032 279.598 309.964 279.194 309.824C278.79 309.687 278.444 309.496 278.156 309.256C277.866 309.015 277.641 308.72 277.479 308.371C277.318 308.022 277.235 307.642 277.235 307.233V307.106C277.235 305.071 279.125 304.054 282.905 304.054H283.664V303.639C283.664 303.181 283.495 302.813 283.158 302.536C282.821 302.26 282.339 302.121 281.713 302.121H281.658C281.164 302.121 280.65 302.206 280.114 302.374C279.579 302.542 279.076 302.778 278.606 303.078L277.685 301.453C278.263 301.091 278.902 300.803 279.6 300.586C280.298 300.368 281.027 300.26 281.785 300.26H281.894C282.46 300.26 282.978 300.332 283.447 300.476C283.917 300.62 284.326 300.837 284.676 301.126C285.025 301.416 285.295 301.77 285.488 302.191C285.68 302.613 285.778 303.107 285.778 303.673V307.917C285.778 308.242 285.808 308.567 285.868 308.892C285.927 309.218 286.006 309.537 286.103 309.849H283.972C283.912 309.706 283.861 309.533 283.818 309.334C283.776 309.135 283.743 308.934 283.719 308.73C283.322 309.127 282.852 309.444 282.31 309.678C281.769 309.915 281.172 310.032 280.522 310.032ZM280.973 308.226C281.502 308.226 282.003 308.121 282.472 307.911C282.941 307.7 283.34 307.42 283.664 307.07V305.5H283.031C281.791 305.5 280.877 305.624 280.286 305.87C279.695 306.116 279.401 306.493 279.401 306.999V307.07C279.401 307.407 279.546 307.685 279.835 307.902C280.124 308.118 280.503 308.226 280.973 308.226Z" fill="#2B2B42"/>
<path d="M288.486 300.459H290.672V306.437H290.78L295.024 300.459H297.354V309.851H295.151V303.368H295.06L290.527 309.851H288.486V300.459ZM291.718 296.848C291.718 297.185 291.832 297.453 292.062 297.652C292.29 297.85 292.585 297.949 292.947 297.949C293.296 297.949 293.582 297.848 293.804 297.642C294.027 297.437 294.139 297.173 294.139 296.848H296.016C296.016 297.233 295.944 297.586 295.8 297.905C295.656 298.225 295.448 298.498 295.177 298.727C294.906 298.955 294.577 299.134 294.192 299.26C293.806 299.386 293.379 299.449 292.909 299.449C291.97 299.449 291.224 299.212 290.67 298.735C290.116 298.259 289.839 297.631 289.839 296.848H291.718Z" fill="#2B2B42"/>
<path d="M301.869 302.303H299.034V300.46H306.944V302.303H304.109V309.852H301.869V302.303Z" fill="#2B2B42"/>
<path d="M310.14 313.483C309.887 313.483 309.601 313.459 309.282 313.41C308.963 313.362 308.671 313.272 308.407 313.139V311.225C308.623 311.332 308.837 311.421 309.047 311.486C309.258 311.551 309.478 311.585 309.706 311.585C310.092 311.585 310.435 311.471 310.736 311.242C311.036 311.013 311.307 310.688 311.548 310.266L307.485 300.458H309.869L312.632 307.666H312.759L315.053 300.458H317.328L313.879 310.375C313.745 310.759 313.584 311.135 313.391 311.504C313.198 311.871 312.958 312.202 312.669 312.497C312.38 312.791 312.028 313.03 311.613 313.211C311.197 313.392 310.706 313.483 310.14 313.483Z" fill="#2B2B42"/>
</g>
<defs>
<clipPath id="clip0_8591_61886">
<rect width="538" height="538" fill="white" transform="translate(0 0.271484)"/>
</clipPath>
</defs>
</svg>
