<svg width="41" height="41" viewBox="0 0 41 41" fill="none" xmlns="http://www.w3.org/2000/svg">
<path d="M20.5 0.5C15 0.5 10 2.75 6.37 6.38C2.75 10 0.5 15 0.5 20.5C0.5 26 2.75 31 6.37 34.62C10 38.25 15 40.5 20.5 40.5C26 40.5 31 38.25 34.63 34.62C38.25 31 40.5 26 40.5 20.5C40.5 9.5 31.5 0.5 20.5 0.5ZM29.3 26C29.2 26.7 28.8 27.3 28.3 27.8C27.7 28.3 27 28.5 26.3 28.5H14.8C14 28.5 13.3 28.3 12.8 27.8C12.3 27.3 11.9 26.7 11.8 26L10.5 18.9C10.5 18.5 10.5 18.2 10.7 17.7C10.9 17.4 11.1 17.1 11.4 16.9C11.7 16.7 12 16.5 12.4 16.5C12.8 16.5 13.2 16.5 13.5 16.7L16.3 18.1L18.9 13.5C19 13.1 19.3 12.9 19.6 12.7C19.9 12.5 20.2 12.4 20.6 12.4C20.9 12.4 21.3 12.5 21.6 12.7C21.9 12.9 22.1 13.2 22.3 13.5L24.8 18.1L27.6 16.8C28 16.6 28.3 16.6 28.7 16.6C29.1 16.6 29.4 16.8 29.7 17C30 17.2 30.2 17.5 30.4 17.9C30.5 18.2 30.5 18.5 30.5 18.9L29.3 26Z" fill="white"/>
</svg>
