<svg width="101" height="100" viewBox="0 0 101 100" fill="none" xmlns="http://www.w3.org/2000/svg">
<path d="M50.6666 100C78.2809 100 100.667 77.6142 100.667 50C100.667 22.3858 78.2809 0 50.6666 0C23.0524 0 0.666626 22.3858 0.666626 50C0.666626 77.6142 23.0524 100 50.6666 100Z" fill="url(#paint0_linear_8597_54464)"/>
<path d="M23.1686 49.3748C37.8561 43.1248 47.5436 38.7498 52.2311 36.8748C65.9811 31.2498 69.1061 29.9998 70.9811 29.9998C71.2936 29.9998 72.2311 29.9998 72.8561 30.6248C73.4811 30.9373 73.4811 31.5623 73.4811 31.8748C73.4811 32.1873 73.4811 33.1248 73.4811 33.7498C72.8561 41.5623 69.4186 60.9373 67.8561 69.6873C67.2311 73.4373 65.6686 74.6873 64.4186 74.6873C61.6061 74.9998 59.4186 72.8123 56.6061 70.9373C52.2311 68.1248 49.7311 66.2498 45.3561 63.4373C40.3561 60.3123 43.4811 58.4373 46.2936 55.6248C46.9186 54.9998 59.7311 43.1248 60.0436 42.1873C60.0436 42.1873 60.0436 41.5623 59.7311 41.2498C59.4186 40.9373 59.1061 40.9373 58.7936 41.2498C58.4811 41.2498 51.2936 45.9373 37.8561 55.3123C35.9811 56.5623 34.1061 57.4998 32.5436 57.1873C30.6686 57.1873 27.2311 56.2498 24.7311 55.3123C21.6061 54.3748 19.1061 53.7498 19.4186 51.8748C19.7311 51.2498 20.9811 50.3123 23.1686 49.3748Z" fill="white"/>
<defs>
<linearGradient id="paint0_linear_8597_54464" x1="50.6616" y1="0.0009375" x2="50.6616" y2="99.2809" gradientUnits="userSpaceOnUse">
<stop stop-color="#2AABEE"/>
<stop offset="1" stop-color="#229ED9"/>
</linearGradient>
</defs>
</svg>
