<svg width="24" height="24" viewBox="0 0 24 24" fill="none" xmlns="http://www.w3.org/2000/svg">
<path fill-rule="evenodd" clip-rule="evenodd" d="M23.6179 12.5593L16.9399 15.1593C16.123 15.4774 15.4769 16.1235 15.1588 16.9404L12.5588 23.6184C12.3604 24.1279 11.6396 24.1279 11.4412 23.6184L8.84122 16.9404C8.52312 16.1235 7.87703 15.4774 7.06006 15.1593L0.382107 12.5593C-0.127369 12.3609 -0.127369 11.64 0.382107 11.4417L7.06006 8.84171C7.87703 8.52361 8.52312 7.87751 8.84122 7.06055L11.4412 0.382596C11.6396 -0.126881 12.3604 -0.126881 12.5588 0.382596L15.1588 7.06055C15.4769 7.87751 16.123 8.52361 16.9399 8.84171L23.6179 11.4417C24.1274 11.64 24.1274 12.3609 23.6179 12.5593Z" fill="white"/>
</svg>
