<?xml version="1.0" encoding="utf-8"?><svg viewBox="0 0 24 24" xmlns="http://www.w3.org/2000/svg" xmlns:xlink="http://www.w3.org/1999/xlink"><style>:root>svg{display:none}:root>svg:target{display:block}</style><svg fill="none" viewBox="0 0 24 24" id="star" xmlns="http://www.w3.org/2000/svg"><path fill-rule="evenodd" clip-rule="evenodd" d="M23.618 12.56l-6.678 2.6a3.13 3.13 0 00-1.781 1.78l-2.6 6.678a.6.6 0 01-1.118 0l-2.6-6.678a3.13 3.13 0 00-1.78-1.78l-6.679-2.6a.6.6 0 010-1.118l6.678-2.6A3.13 3.13 0 008.841 7.06l2.6-6.678a.6.6 0 011.118 0l2.6 6.678a3.13 3.13 0 001.78 1.78l6.679 2.6a.6.6 0 010 1.118z" fill="#fff"/></svg></svg>