<svg width="416" height="361" viewBox="0 0 416 361" fill="none" xmlns="http://www.w3.org/2000/svg">
<path d="M388.655 358.673C378.172 341.211 369.142 323.165 361.311 304.381C361.299 304.364 361.29 304.352 361.278 304.335L361.29 304.331C361.165 304.03 361.028 303.743 360.903 303.442C359.183 299.289 365.476 297.337 367.73 300.561C375.852 312.18 383.974 323.803 392.1 335.422C388.018 273.402 381.737 207.837 344.88 155.902C307.743 103.574 248.144 80.2778 189.694 101.426C193.176 154.075 169.472 209.405 131.703 244.617C116.341 258.935 82.3621 280.146 70.9288 249.551C60.1368 220.674 87.7643 179.286 104.013 157.954C124.209 131.433 151.645 109.359 182.03 96.793C181.68 92.8394 181.185 88.9608 180.518 85.1739C174.566 51.3343 154.744 16.4896 119.165 8.01929C73.9902 -2.73231 33.8922 31.5452 3.00334 59.4752C1.3456 60.9724 -1.09101 58.5702 0.537563 57.0062C28.8773 29.8812 60.9949 1.35897 102.488 0.516525C136.638 -0.17578 163.216 21.6277 177.199 51.6221C183.505 65.1513 187.328 79.4728 189.019 94.0822C223.39 81.7166 261.035 81.6791 296.026 101.143C378.218 146.868 392.987 245.068 399.231 331.101L408.415 310.432C410.364 306.045 416.799 309.844 414.863 314.207C410.01 325.125 405.158 336.048 400.305 346.966C400.339 347.462 400.372 347.971 400.405 348.467C400.522 350.282 399.485 351.374 398.156 351.808C397.14 354.098 396.124 356.387 395.107 358.673C393.916 361.342 389.976 360.866 388.655 358.673ZM169.839 110.356C141.911 125.536 118.124 148.624 100.955 175.299C92.2502 188.832 84.6113 203.696 79.813 219.094C77.9137 225.187 76.0727 232.022 76.4892 238.449C77.7388 257.888 95.7323 260.365 110.302 252.212C158.164 225.424 184.617 159.167 182.484 104.242C178.257 106.047 174.037 108.07 169.839 110.356Z" fill="black"/>
</svg>
