<svg width="416" height="259" viewBox="0 0 416 259" fill="none" xmlns="http://www.w3.org/2000/svg">
<path d="M235.273 82.3118C236.209 85.8283 236.595 89.1468 236.538 92.1941L234.072 83.744L233.588 82.0802L232.933 79.8435L230.995 73.2066C231.354 73.0725 231.763 73.2309 231.936 73.5783C233.173 76.0679 234.136 78.4936 234.852 80.843C235.005 81.3367 235.145 81.8273 235.273 82.3118Z" fill="white"/>
<path d="M290.148 184.483C290.145 184.499 290.142 184.517 290.136 184.532L289.414 184.337L288.688 184.139C289.773 178.249 281.476 150.762 269.475 125.263C258.49 101.918 248.498 88.0163 240.255 79.7704C239.877 79.3925 239.506 79.0268 239.134 78.6764C236.023 75.6931 233.173 73.5265 230.632 71.9572L230.306 70.8388H230.303L230.004 69.8089C233.591 71.7957 237.083 74.5504 240.438 77.8262C240.804 78.1827 241.169 78.5484 241.532 78.9171C254.069 91.6699 264.6 111.383 270.832 124.623C283.185 150.875 291.361 178.355 290.148 184.483Z" fill="white"/>
<path d="M297.053 135.045C296.959 135.291 296.721 135.444 296.471 135.444C296.395 135.444 296.319 135.432 296.246 135.401C288.813 132.518 278.044 125.653 268.945 109.335C263.521 99.605 261.227 90.9752 261.205 90.8898C261.117 90.5546 261.318 90.2133 261.65 90.125C261.985 90.0366 262.327 90.2377 262.415 90.5729C262.436 90.6552 264.697 99.1571 270.054 108.753C274.973 117.572 283.59 129.148 296.697 134.237C297.02 134.362 297.178 134.722 297.053 135.045Z" fill="white"/>
<path d="M414.187 218.08L357.48 202.743L337.756 197.41C337.753 197.41 337.753 197.41 337.749 197.41L336.275 197.008C336.272 197.011 336.269 197.008 336.269 197.008L314.63 191.154C322.403 165.566 341.656 109.039 346.267 95.5491L316.129 85.8009C319.548 91.0392 319.944 94.5039 319.963 94.6776C320.005 95.092 319.701 95.4638 319.286 95.5064C318.863 95.5552 318.497 95.2474 318.454 94.833C318.451 94.8117 318.305 93.608 317.479 91.5694C316.775 89.8324 315.581 87.4921 313.554 84.7527L313.582 84.7618L315.928 85.4931L346.44 95.0341L347.175 95.2627L381.825 106.099L409.525 114.762L414.187 218.08Z" fill="white"/>
<path d="M319.478 193.211C319.381 193.537 319.082 193.747 318.759 193.747C318.689 193.747 318.616 193.735 318.546 193.714L314.24 192.434L289.953 185.218L289.234 185.005L288.515 184.791L284.943 183.731C284.547 183.612 284.322 183.194 284.441 182.798C284.556 182.399 284.977 182.174 285.373 182.292L288.774 183.304L289.508 183.521L290.243 183.74L314.676 191.002L318.972 192.278C319.058 192.303 319.134 192.339 319.201 192.391C319.451 192.571 319.573 192.897 319.478 193.211Z" fill="#2B2B42"/>
<path d="M382.59 103.064L382.486 103.475L381.825 106.099L357.48 202.743V202.746L354.397 214.99L319.813 205.442L311.384 203.117C311.586 201.609 312.628 197.791 314.24 192.434C314.365 192.016 314.493 191.59 314.627 191.154H314.63C314.645 191.105 314.66 191.053 314.676 191.001C314.682 190.986 314.685 190.971 314.691 190.956C314.746 190.77 314.803 190.584 314.861 190.395C315.221 189.219 315.602 187.982 316.004 186.69C316.141 186.251 316.281 185.803 316.425 185.349C318.594 178.413 321.297 170.058 324.195 161.242C324.29 160.946 324.387 160.654 324.485 160.358C324.695 159.718 324.905 159.078 325.118 158.435C325.286 157.926 325.454 157.415 325.621 156.903C325.944 155.928 326.267 154.952 326.59 153.971C326.874 153.121 327.154 152.268 327.437 151.415C327.553 151.067 327.666 150.723 327.782 150.375C327.968 149.821 328.15 149.263 328.336 148.709C328.352 148.663 328.367 148.617 328.382 148.574C328.483 148.273 328.58 147.974 328.681 147.672C328.797 147.319 328.915 146.966 329.034 146.612C329.202 146.106 329.369 145.603 329.537 145.098C329.552 145.055 329.567 145.012 329.58 144.97C329.967 143.812 330.354 142.651 330.738 141.499C331.048 140.563 331.362 139.631 331.673 138.701C331.96 137.848 332.243 136.998 332.526 136.151C332.636 135.822 332.746 135.493 332.859 135.163C332.956 134.871 333.054 134.578 333.151 134.286C333.541 133.119 333.931 131.961 334.318 130.812C334.498 130.282 334.675 129.748 334.854 129.221C335.056 128.612 335.26 128.008 335.464 127.405C335.644 126.872 335.824 126.339 336 125.811C336.195 125.229 336.39 124.65 336.585 124.078C336.762 123.553 336.936 123.035 337.109 122.52C337.228 122.167 337.347 121.816 337.466 121.469C337.618 121.015 337.771 120.564 337.923 120.116C338.462 118.513 338.99 116.956 339.502 115.445C339.63 115.064 339.758 114.686 339.886 114.314C340.007 113.945 340.132 113.58 340.254 113.22C340.41 112.763 340.562 112.315 340.711 111.873C340.736 111.803 340.757 111.736 340.781 111.669C340.915 111.27 341.05 110.877 341.184 110.487C341.418 109.789 341.65 109.109 341.875 108.442C342.019 108.018 342.162 107.601 342.302 107.19C342.537 106.495 342.768 105.818 342.991 105.163C343.173 104.624 343.353 104.1 343.527 103.588C343.737 102.966 343.941 102.363 344.139 101.787C344.301 101.314 344.456 100.857 344.606 100.419C344.718 100.086 344.828 99.7665 344.935 99.4556C345.038 99.1479 345.139 98.8523 345.236 98.5658C345.633 97.4048 345.977 96.3931 346.266 95.549C346.327 95.3693 346.385 95.1956 346.44 95.0341C346.556 94.6989 346.66 94.3972 346.751 94.129C347.089 93.1417 347.269 92.6145 347.269 92.6145L353.236 94.3789L382.59 103.064Z" fill="#3F69FF"/>
<path d="M334.915 193.165C335.548 191.574 337.35 190.797 338.94 191.43C340.531 192.062 341.308 193.864 340.676 195.455C340.043 197.046 338.241 197.823 336.65 197.19C335.059 196.558 334.282 194.756 334.915 193.165Z" fill="#2B2B42"/>
<path d="M416 258.227L348.802 237.201L354.396 214.99L357.48 202.746V202.743L381.825 106.099L382.486 103.475L382.59 103.064L395.952 107.315L409.381 111.587L409.525 114.762L414.187 218.079L416 258.227Z" fill="#2B2B42"/>
<path d="M269.82 190.861C269.722 190.803 269.625 190.739 269.524 190.669C269.466 190.63 269.405 190.587 269.344 190.538C269.271 190.487 269.201 190.429 269.125 190.368C269.064 190.319 269.003 190.27 268.942 190.215C268.909 190.188 268.872 190.157 268.839 190.127C268.513 190.072 268.187 190.02 267.86 189.972C268.217 190.328 268.555 190.636 268.878 190.892H268.881C269.089 190.928 269.296 190.965 269.5 191.002C269.628 190.956 269.741 190.913 269.841 190.877C269.835 190.87 269.826 190.867 269.82 190.861ZM243.098 190.13C243.044 190.081 242.986 190.029 242.928 189.975C242.849 189.905 242.766 189.828 242.687 189.752C242.586 189.758 242.486 189.767 242.388 189.773C242.23 189.786 242.071 189.798 241.913 189.81C242.163 190.054 242.407 190.285 242.65 190.505H242.654C242.894 190.487 243.141 190.468 243.385 190.45H243.388C243.412 190.447 243.437 190.447 243.464 190.447C243.342 190.343 243.22 190.24 243.098 190.13ZM178.582 167.288C178.381 167.455 178.176 167.614 177.972 167.763C177.765 167.922 177.552 168.071 177.342 168.214C177.75 168.546 178.158 168.872 178.567 169.192C178.774 169.046 178.978 168.891 179.182 168.729C179.383 168.574 179.581 168.412 179.779 168.242C179.38 167.928 178.981 167.611 178.582 167.288ZM223.968 190.685C223.751 190.493 223.538 190.285 223.322 190.066C223.224 189.972 223.127 189.871 223.035 189.77C222.724 189.722 222.417 189.67 222.109 189.612H222.106C221.804 189.56 221.496 189.502 221.195 189.444H221.192C213.915 188.027 206.309 185.132 198.401 180.772C198.023 180.568 197.642 180.354 197.261 180.141C197.225 180.178 197.185 180.214 197.149 180.248C196.99 180.397 196.829 180.54 196.664 180.677C196.463 180.848 196.259 181.013 196.052 181.168C196.445 181.394 196.838 181.616 197.231 181.832C206.159 186.812 214.728 189.962 222.898 191.267C223.245 191.321 223.59 191.373 223.937 191.422H223.94C224.318 191.477 224.693 191.526 225.065 191.568C224.702 191.312 224.333 191.017 223.968 190.685ZM270.832 124.623C264.6 111.383 254.069 91.6699 241.532 78.9172C241.169 78.5484 240.804 78.1828 240.438 77.8262C237.083 74.5504 233.591 71.7957 230.004 69.8089L230.303 70.8389H230.306L230.632 71.9572C233.173 73.5266 236.023 75.6931 239.134 78.6764C239.506 79.0269 239.877 79.3925 240.255 79.7704C248.498 88.0163 258.49 101.918 269.476 125.263C280.982 149.714 289.085 175.991 288.774 183.304C288.771 183.371 288.768 183.435 288.765 183.499C288.759 183.588 288.752 183.673 288.743 183.755C288.737 183.813 288.731 183.871 288.722 183.926C288.713 183.999 288.701 184.072 288.688 184.139C288.685 184.157 288.682 184.173 288.679 184.191C288.64 184.395 288.585 184.596 288.515 184.791C288.131 185.9 287.305 186.882 286.053 187.714C281.375 190.822 272.706 190.883 270.716 190.474C270.512 190.432 270.307 190.392 270.103 190.352C270.094 190.349 270.082 190.349 270.07 190.346C270.067 190.346 270.067 190.346 270.067 190.346C269.826 190.301 269.579 190.255 269.332 190.212H269.329C269.168 190.182 269.003 190.151 268.839 190.127C268.513 190.072 268.187 190.02 267.86 189.972C268.217 190.328 268.555 190.636 268.878 190.892H268.881C268.982 190.974 269.082 191.05 269.18 191.117C268.851 191.233 268.461 191.367 268.013 191.513C268.421 191.574 268.823 191.641 269.226 191.718C269.594 191.782 269.963 191.852 270.326 191.925H270.329C270.359 191.931 270.384 191.937 270.414 191.943C270.993 192.062 272.047 192.147 273.379 192.147C277.136 192.147 283.109 191.471 286.881 188.963C288.442 187.924 289.475 186.668 289.953 185.218C290.029 184.992 290.09 184.764 290.136 184.532C290.142 184.517 290.145 184.499 290.148 184.483C290.179 184.331 290.203 184.163 290.221 183.981C290.227 183.926 290.233 183.868 290.237 183.81C290.24 183.786 290.24 183.764 290.243 183.74V183.725C290.252 183.615 290.258 183.502 290.261 183.383C290.517 175.564 282.557 149.54 270.832 124.623ZM244.305 190.383H244.302C244.235 190.334 244.165 190.279 244.098 190.221C243.994 190.139 243.891 190.054 243.784 189.965C243.68 189.877 243.574 189.786 243.47 189.694C243.208 189.713 242.946 189.734 242.687 189.752C242.586 189.758 242.486 189.767 242.388 189.773C242.23 189.786 242.071 189.798 241.913 189.81C242.163 190.054 242.407 190.285 242.65 190.505H242.654C242.931 190.755 243.202 190.986 243.473 191.197C243.763 191.175 244.055 191.157 244.348 191.136C244.363 191.133 244.378 191.133 244.393 191.133C244.689 191.111 244.988 191.09 245.289 191.072C244.963 190.874 244.637 190.642 244.305 190.383ZM219.994 44.9707C218.053 44.4648 215.752 43.7975 213.144 43.0387C200.074 39.2418 180.334 33.5069 162.547 35.7527C157.687 34.9299 152.406 33.7537 146.96 32.3489C144.626 31.7516 142.261 31.1087 139.888 30.4383C135.884 29.3047 131.849 28.0858 127.881 26.8273C115.174 22.8079 103.168 18.4168 95.038 15.3208C88.718 12.9165 84.7413 11.2954 84.6042 11.2405C84.2721 11.1034 83.8881 11.2222 83.69 11.527L40.2757 78.6063C40.1538 78.7953 40.1233 79.0299 40.1904 79.2432C40.2605 79.4565 40.422 79.6302 40.6322 79.7125C40.8242 79.7856 49.3047 83.1224 59.5831 88.0163C65.5558 90.8594 72.1379 94.2327 78.0496 97.7949C85.0186 101.994 91.0583 106.461 94.0812 110.645C95.9553 113.242 97.811 115.628 99.6424 117.822C100.569 118.928 101.486 119.982 102.397 120.991C107.456 126.589 112.359 130.788 117.1 134.051C118.182 134.798 119.258 135.496 120.324 136.148C120.05 135.852 119.797 135.547 119.562 135.234C119.355 134.956 119.163 134.67 118.983 134.383C118.706 133.935 118.462 133.478 118.252 133.009C117.56 132.537 116.863 132.046 116.165 131.534C116.165 131.531 116.165 131.531 116.165 131.531C111.944 128.435 107.602 124.553 103.132 119.555C102.205 118.519 101.276 117.441 100.34 116.307C98.6765 114.293 96.9944 112.117 95.2971 109.768C92.518 105.919 87.2096 101.601 79.4452 96.8655C75.1425 94.2418 70.0871 91.4902 64.2912 88.6196C62.9229 87.9431 61.573 87.288 60.2474 86.6572C51.77 82.6257 44.4596 79.6272 42.0309 78.6551L84.6134 12.8617C85.9328 13.3949 89.428 14.7906 94.3768 16.6768C103.473 20.1385 117.481 25.2488 131.913 29.6521C134.357 30.3956 136.81 31.1208 139.254 31.8156C141.609 32.483 143.956 33.1229 146.275 33.7232C151.915 35.1828 157.385 36.4078 162.407 37.2519C162.48 37.2641 162.553 37.2641 162.626 37.255C180.133 35.0061 199.748 40.7075 212.726 44.48C214.713 45.059 216.526 45.5862 218.144 46.0281C218.873 46.2292 219.561 46.412 220.207 46.5735C220.536 46.3876 220.866 46.2109 221.189 46.0402C221.539 45.8544 221.886 45.6807 222.231 45.5131C221.551 45.3638 220.802 45.1809 219.994 44.9707ZM153.619 148.233C153.533 148.468 153.454 148.706 153.378 148.937C153.302 149.178 153.229 149.419 153.158 149.659C153.628 149.863 154.094 150.077 154.557 150.299C154.618 150.052 154.688 149.809 154.761 149.568C154.831 149.327 154.911 149.089 154.993 148.858C154.536 148.642 154.079 148.434 153.619 148.233ZM133.074 141.587C133.053 141.313 133.037 141.039 133.031 140.767C132.934 140.728 132.836 140.688 132.739 140.652C132.312 140.478 131.886 140.304 131.456 140.124C131.124 139.984 130.792 139.841 130.456 139.695C129.954 139.78 129.457 139.832 128.969 139.847C128.256 139.875 127.561 139.829 126.891 139.722C128.025 140.268 129.146 140.774 130.255 141.249C130.682 141.432 131.105 141.608 131.529 141.782C132.074 142.008 132.617 142.224 133.159 142.434C133.123 142.151 133.095 141.867 133.074 141.587ZM243.098 190.13C243.044 190.081 242.986 190.029 242.928 189.975C242.849 189.905 242.766 189.828 242.687 189.752C242.586 189.758 242.486 189.767 242.388 189.773C242.23 189.786 242.071 189.798 241.913 189.81C242.163 190.054 242.407 190.285 242.65 190.505H242.654C242.894 190.487 243.141 190.468 243.385 190.45H243.388C243.412 190.447 243.437 190.447 243.464 190.447C243.342 190.343 243.22 190.24 243.098 190.13ZM269.82 190.861C269.722 190.803 269.625 190.739 269.524 190.669C269.466 190.63 269.405 190.587 269.344 190.538C269.271 190.487 269.201 190.429 269.125 190.368C269.064 190.319 269.003 190.27 268.942 190.215C268.909 190.188 268.872 190.157 268.839 190.127C268.513 190.072 268.187 190.02 267.86 189.972C268.217 190.328 268.555 190.636 268.878 190.892H268.881C269.089 190.928 269.296 190.965 269.5 191.002C269.628 190.956 269.741 190.913 269.841 190.877C269.835 190.87 269.826 190.867 269.82 190.861Z" fill="#2B2B42"/>
<path d="M156.443 100.623C154.612 100.068 152.509 99.9037 150.276 100.184C137.831 101.753 124.996 112.178 119.407 118.8C115.692 123.203 115.187 127.798 116.165 131.531C116.165 131.531 116.165 131.531 116.165 131.534C116.268 131.936 116.393 132.33 116.53 132.711C116.698 133.177 116.89 133.625 117.1 134.051C117.469 134.807 117.896 135.505 118.359 136.126C120.544 139.064 124.249 141.365 128.57 141.365C129.122 141.365 129.685 141.328 130.255 141.249C130.657 141.194 131.066 141.118 131.474 141.017C131.514 141.008 131.553 140.999 131.593 140.987C131.974 140.895 132.355 140.783 132.739 140.652C132.833 140.618 132.931 140.585 133.025 140.548C133.016 140 133.031 139.457 133.071 138.918C132.535 139.146 132.001 139.329 131.474 139.469C131.133 139.561 130.795 139.637 130.456 139.695C129.954 139.78 129.457 139.832 128.969 139.847C128.256 139.875 127.561 139.829 126.891 139.722C124.246 139.299 121.954 137.918 120.324 136.148C120.05 135.852 119.797 135.548 119.562 135.234C119.355 134.956 119.163 134.67 118.983 134.383C118.706 133.935 118.462 133.478 118.252 133.009C116.335 128.783 117.14 123.816 120.553 119.769C125.785 113.571 138.532 103.176 150.465 101.674C151.12 101.592 151.763 101.549 152.387 101.549C153.283 101.549 154.143 101.631 154.95 101.793C155.578 101.918 156.178 102.089 156.739 102.305C157.193 101.948 157.65 101.604 158.113 101.269C157.589 101.013 157.028 100.8 156.443 100.623Z" fill="#2B2B42"/>
<path d="M154.95 101.793C144.209 110.536 136.146 124.282 132.885 132.869C131.998 135.203 131.556 137.412 131.474 139.469C132.001 139.329 132.535 139.146 133.071 138.918C133.211 136.949 133.656 135.063 134.287 133.402C137.447 125.089 145.833 110.855 156.739 102.305C156.178 102.088 155.578 101.918 154.95 101.793ZM179.898 98.1423C176.022 93.9828 169.278 93.416 162.715 96.6979C160.545 97.7827 158.452 99.1113 156.443 100.623C155.941 101.001 155.441 101.391 154.95 101.793C144.209 110.536 136.146 124.282 132.885 132.869C131.998 135.203 131.556 137.412 131.474 139.469C131.462 139.689 131.456 139.908 131.456 140.124C131.456 140.399 131.462 140.667 131.471 140.935C131.471 140.962 131.471 140.99 131.474 141.017C131.486 141.276 131.502 141.529 131.529 141.782C132.041 147.608 135.408 152.015 139.007 154.44C141.609 156.193 144.913 157.314 148.377 157.314C149.718 157.311 151.086 157.143 152.445 156.781C152.954 156.644 153.46 156.482 153.966 156.29C153.929 155.751 153.92 155.211 153.932 154.678C153.414 154.898 152.89 155.083 152.366 155.236C147.841 156.558 143.2 155.458 139.845 153.197C135.597 150.336 133.662 146.39 133.159 142.434C133.123 142.151 133.095 141.867 133.074 141.587C133.053 141.313 133.037 141.039 133.031 140.767C133.028 140.694 133.025 140.621 133.025 140.548C133.016 139.999 133.031 139.457 133.071 138.918C133.211 136.949 133.656 135.063 134.287 133.402C137.447 125.089 145.833 110.855 156.739 102.305C157.193 101.948 157.65 101.604 158.113 101.269C159.817 100.032 161.578 98.9407 163.385 98.0387C166.012 96.7253 168.657 96.0793 171.085 96.0793C174.163 96.0793 176.894 97.1184 178.801 99.1662C181.763 102.341 182.403 107.278 180.809 113.159C180.611 113.894 180.377 114.643 180.108 115.405C180.757 114.963 181.416 114.543 182.08 114.15C182.278 113.467 182.449 112.794 182.592 112.132C183.847 106.346 182.97 101.439 179.898 98.1423Z" fill="#2B2B42"/>
<path d="M198.026 136.833C197.804 137.229 197.575 137.626 197.341 138.025C195.89 140.478 194.388 143.132 192.8 145.939C188.001 154.419 183.04 163.189 179.334 166.629C179.088 166.861 178.835 167.077 178.582 167.288C178.981 167.611 179.38 167.928 179.779 168.241C179.971 168.077 180.163 167.906 180.355 167.73C184.231 164.131 189.25 155.257 194.108 146.676C195.692 143.876 197.188 141.231 198.633 138.79C199.321 137.626 199.943 136.474 200.501 135.34C199.663 135.791 198.837 136.291 198.026 136.833ZM198.026 136.833C197.804 137.229 197.575 137.626 197.341 138.025C195.89 140.478 194.388 143.132 192.8 145.939C188.001 154.419 183.04 163.189 179.334 166.629C179.088 166.861 178.835 167.077 178.582 167.288C178.981 167.611 179.38 167.928 179.779 168.241C179.971 168.077 180.163 167.906 180.355 167.73C184.231 164.131 189.25 155.257 194.108 146.676C195.692 143.876 197.188 141.231 198.633 138.79C199.321 137.626 199.943 136.474 200.501 135.34C199.663 135.791 198.837 136.291 198.026 136.833ZM198.026 136.833C197.804 137.229 197.575 137.626 197.341 138.025C195.89 140.478 194.388 143.132 192.8 145.939C188.001 154.419 183.04 163.189 179.334 166.629C179.088 166.861 178.835 167.077 178.582 167.288C178.981 167.611 179.38 167.928 179.779 168.241C179.971 168.077 180.163 167.906 180.355 167.73C184.231 164.131 189.25 155.257 194.108 146.676C195.692 143.876 197.188 141.231 198.633 138.79C199.321 137.626 199.943 136.474 200.501 135.34C199.663 135.791 198.837 136.291 198.026 136.833ZM200.802 113.037C196.929 108.881 190.186 108.314 183.622 111.593C183.278 111.767 182.933 111.943 182.592 112.132C181.992 112.455 181.397 112.797 180.809 113.159C167.612 121.241 157.537 137.903 153.789 147.767C153.731 147.922 153.673 148.078 153.619 148.233C153.533 148.468 153.454 148.705 153.378 148.937C153.302 149.178 153.229 149.419 153.158 149.659C152.595 151.622 152.351 153.487 152.366 155.236C152.366 155.763 152.394 156.278 152.445 156.781C152.988 162.555 156.337 166.925 159.914 169.339C162.517 171.091 165.817 172.209 169.285 172.209C170.973 172.209 172.701 171.944 174.407 171.353C174.831 171.21 175.251 171.045 175.669 170.856C176.653 170.42 177.622 169.869 178.567 169.192C178.774 169.046 178.978 168.891 179.182 168.729C179.383 168.574 179.581 168.412 179.779 168.241C179.971 168.077 180.163 167.906 180.355 167.73C184.231 164.131 189.25 155.257 194.108 146.676C195.692 143.876 197.188 141.231 198.633 138.79C199.321 137.626 199.943 136.474 200.501 135.34C200.802 134.728 201.086 134.118 201.348 133.512C205.102 124.937 204.971 117.508 200.802 113.037ZM199.169 134.648C198.816 135.368 198.435 136.099 198.026 136.833C197.804 137.229 197.575 137.626 197.341 138.025C195.89 140.478 194.388 143.132 192.8 145.939C188.001 154.419 183.04 163.189 179.334 166.629C179.088 166.861 178.835 167.077 178.582 167.288C178.381 167.455 178.176 167.614 177.972 167.763C177.765 167.922 177.552 168.071 177.342 168.214C176.808 168.574 176.269 168.888 175.723 169.165C175.288 169.387 174.846 169.582 174.404 169.753C169.528 171.633 164.388 170.542 160.752 168.092C156.13 164.975 154.243 160.581 153.966 156.29C153.929 155.751 153.92 155.211 153.932 154.678C153.969 153.161 154.195 151.68 154.557 150.299C154.618 150.052 154.688 149.809 154.761 149.568C154.831 149.327 154.911 149.089 154.993 148.858C155.054 148.669 155.121 148.483 155.191 148.3C158.586 139.369 168.008 123.611 180.108 115.405C180.758 114.963 181.416 114.543 182.08 114.15C182.808 113.714 183.546 113.308 184.292 112.937C186.919 111.623 189.561 110.974 191.99 110.974C195.067 110.974 197.801 112.016 199.705 114.061C203.719 118.367 203.475 125.909 199.169 134.648ZM198.026 136.833C197.804 137.229 197.575 137.626 197.341 138.025C195.89 140.478 194.388 143.132 192.8 145.939C188.001 154.419 183.04 163.189 179.334 166.629C179.088 166.861 178.835 167.077 178.582 167.288C178.981 167.611 179.38 167.928 179.779 168.241C179.971 168.077 180.163 167.906 180.355 167.73C184.231 164.131 189.25 155.257 194.108 146.676C195.692 143.876 197.188 141.231 198.633 138.79C199.321 137.626 199.943 136.474 200.501 135.34C199.663 135.791 198.837 136.291 198.026 136.833ZM198.026 136.833C197.804 137.229 197.575 137.626 197.341 138.025C195.89 140.478 194.388 143.132 192.8 145.939C188.001 154.419 183.04 163.189 179.334 166.629C179.088 166.861 178.835 167.077 178.582 167.288C178.981 167.611 179.38 167.928 179.779 168.241C179.971 168.077 180.163 167.906 180.355 167.73C184.231 164.131 189.25 155.257 194.108 146.676C195.692 143.876 197.188 141.231 198.633 138.79C199.321 137.626 199.943 136.474 200.501 135.34C199.663 135.791 198.837 136.291 198.026 136.833ZM198.026 136.833C197.804 137.229 197.575 137.626 197.341 138.025C195.89 140.478 194.388 143.132 192.8 145.939C188.001 154.419 183.04 163.189 179.334 166.629C179.088 166.861 178.835 167.077 178.582 167.288C178.981 167.611 179.38 167.928 179.779 168.241C179.971 168.077 180.163 167.906 180.355 167.73C184.231 164.131 189.25 155.257 194.108 146.676C195.692 143.876 197.188 141.231 198.633 138.79C199.321 137.626 199.943 136.474 200.501 135.34C199.663 135.791 198.837 136.291 198.026 136.833ZM198.026 136.833C197.804 137.229 197.575 137.626 197.341 138.025C195.89 140.478 194.388 143.132 192.8 145.939C188.001 154.419 183.04 163.189 179.334 166.629C179.088 166.861 178.835 167.077 178.582 167.288C178.981 167.611 179.38 167.928 179.779 168.241C179.971 168.077 180.163 167.906 180.355 167.73C184.231 164.131 189.25 155.257 194.108 146.676C195.692 143.876 197.188 141.231 198.633 138.79C199.321 137.626 199.943 136.474 200.501 135.34C199.663 135.791 198.837 136.291 198.026 136.833Z" fill="#2B2B42"/>
<path d="M215.262 135.005C212.111 131.62 206.699 131.056 201.348 133.512C201.156 133.6 200.961 133.692 200.766 133.789C200.226 134.057 199.696 134.344 199.169 134.649C198.816 135.368 198.435 136.099 198.026 136.833C198.837 136.291 199.663 135.791 200.501 135.34C200.775 135.188 201.049 135.045 201.326 134.908C206.354 132.394 211.465 132.765 214.347 135.858C218.169 139.957 217.422 147.523 212.351 156.098C211.126 158.17 209.859 160.41 208.518 162.781C204.517 169.857 200.379 177.167 197.261 180.141C197.225 180.178 197.185 180.214 197.149 180.248C196.99 180.397 196.829 180.54 196.664 180.677C196.463 180.848 196.259 181.013 196.052 181.168C191.155 184.867 185.301 184.078 181.452 181.485C177.786 179.017 175.769 175.156 175.669 170.856C175.653 170.298 175.672 169.735 175.723 169.165C175.288 169.387 174.846 169.582 174.404 169.753C174.373 170.298 174.377 170.835 174.407 171.353C174.69 176.512 177.616 180.409 180.754 182.521C182.948 183.999 185.734 184.944 188.659 184.944C191.526 184.944 194.525 184.039 197.231 181.832C197.429 181.671 197.624 181.503 197.819 181.326C197.88 181.275 197.938 181.22 197.999 181.165C198.133 181.04 198.267 180.909 198.401 180.772C201.616 177.517 205.675 170.344 209.606 163.396C210.944 161.032 212.208 158.798 213.427 156.735C218.796 147.657 219.482 139.533 215.262 135.005Z" fill="#2B2B42"/>
<path d="M319.286 95.5064C318.862 95.5552 318.497 95.2474 318.454 94.833C318.451 94.8117 318.305 93.608 317.479 91.5694C316.775 89.8324 315.581 87.4921 313.554 84.7526C313.201 84.2742 312.823 83.7836 312.418 83.2839C303.248 71.9541 287.628 63.8606 276.14 59.0642C265.612 54.6701 242.98 46.1255 232.86 43.255C230.364 42.5481 226.537 43.4074 222.231 45.513C221.886 45.6806 221.539 45.8543 221.189 46.0402C220.866 46.2109 220.536 46.3876 220.207 46.5735C218.394 47.5852 216.52 48.798 214.646 50.1906C207.183 55.7336 201.528 62.7758 199.885 68.5686C197.816 75.8638 203.313 86.8278 206.775 92.7121C211.907 101.436 217.757 107.991 219.692 108.85C223.215 110.417 226.957 109.515 229.965 106.373C234.146 102.006 236.471 93.8121 234.072 83.744C233.96 83.2717 233.838 82.7993 233.707 82.3209C233.707 82.3209 233.707 82.3209 233.707 82.3179C233.658 82.1533 233.612 81.9949 233.563 81.8273C233.56 81.8242 233.563 81.8242 233.563 81.8212C233.375 81.1691 233.164 80.5109 232.933 79.8435C232.305 78.0243 231.525 76.1594 230.577 74.2548C230.391 73.88 230.544 73.426 230.918 73.2401C230.943 73.2279 230.97 73.2157 230.995 73.2066C231.354 73.0725 231.763 73.2309 231.936 73.5783C233.173 76.0679 234.136 78.4936 234.853 80.843C235.005 81.3367 235.145 81.8273 235.273 82.3118C236.209 85.8283 236.596 89.1468 236.538 92.1941C236.416 98.7853 234.228 104.112 231.059 107.421C228.74 109.844 225.936 111.108 223.102 111.108C221.749 111.108 220.393 110.822 219.077 110.237C216.322 109.012 210.09 101.339 205.468 93.48C201.884 87.3855 196.204 75.9948 198.429 68.1542C200.184 61.9652 205.907 54.795 213.741 48.9747C215.109 47.957 216.599 46.9544 218.144 46.028C218.443 45.8452 218.745 45.6685 219.049 45.4948C219.36 45.318 219.677 45.1413 219.994 44.9706C224.699 42.417 229.684 40.7807 233.274 41.7984C243.446 44.6811 266.16 53.2592 276.722 57.6655C288.436 62.5533 304.357 70.8236 313.706 82.4702C314.06 82.909 314.392 83.3387 314.706 83.7623C315.151 84.3565 315.556 84.9355 315.928 85.4931C315.995 85.5967 316.062 85.6973 316.129 85.7978V85.8009C319.548 91.0391 319.944 94.5039 319.963 94.6776C320.005 95.092 319.7 95.4638 319.286 95.5064Z" fill="#2B2B42"/>
<path d="M234.853 80.843C235.005 81.3366 235.145 81.8272 235.273 82.3118C235.051 82.4032 234.822 82.4946 234.59 82.583C234.502 82.6165 234.408 82.6317 234.319 82.6317C234.078 82.6317 233.85 82.519 233.707 82.3209C233.707 82.3209 233.707 82.3209 233.707 82.3179C233.667 82.2661 233.637 82.2082 233.612 82.1472C233.603 82.1228 233.594 82.1015 233.588 82.0802C233.567 81.9949 233.557 81.9095 233.563 81.8272C233.56 81.8242 233.563 81.8242 233.563 81.8212C233.582 81.5347 233.765 81.2757 234.045 81.166C234.319 81.0593 234.59 80.9527 234.853 80.843Z" fill="#2B2B42"/>
<path d="M241.532 78.9171C241.334 79.0573 241.13 79.1975 240.917 79.3407C240.703 79.4839 240.484 79.6271 240.255 79.7704C239.877 79.3925 239.506 79.0268 239.134 78.6764C239.369 78.5332 239.594 78.3899 239.813 78.2467C240.03 78.1065 240.237 77.9633 240.438 77.8262C240.804 78.1827 241.169 78.5484 241.532 78.9171Z" fill="#2B2B42"/>
<path d="M347.263 95.0828C347.242 95.1468 347.214 95.2078 347.175 95.2626C347.04 95.4729 346.803 95.6009 346.55 95.6009C346.474 95.6009 346.397 95.5887 346.318 95.5643L346.266 95.5491L316.129 85.8009V85.7978L314.005 85.1122C313.816 85.0512 313.667 84.9233 313.582 84.7617C313.484 84.585 313.457 84.3748 313.524 84.1675C313.649 83.7744 314.072 83.5581 314.468 83.6861L314.706 83.7622L346.751 94.129L346.781 94.1382C347.175 94.2662 347.391 94.6867 347.263 95.0828Z" fill="#2B2B42"/>
<path d="M132.218 29.2468L131.913 29.6521L122.031 42.8955L84.0222 93.8213L79.4452 96.8655L78.7474 97.3317L78.0495 97.7949L43.6459 120.704L43.6429 120.707L36.942 136.611L0 128.301L66.4608 0.172852L71.3577 1.71172L71.891 1.88237L81.95 5.04238L97.6434 9.97285L97.6556 9.97894L97.6587 9.98199L127.881 26.8273L131.136 28.6434H131.139L132.218 29.2468Z" fill="#2B2B42"/>
<path d="M149.858 26.5378C149.858 26.5378 148.792 28.677 146.96 32.3489L146.613 33.0437C146.503 33.2661 146.39 33.4916 146.275 33.7232C137.474 51.3547 114.684 96.957 103.132 119.555C103.01 119.796 102.888 120.034 102.766 120.269C102.641 120.512 102.519 120.753 102.397 120.991C98.9202 127.774 96.6135 132.177 96.2508 132.61L93.1548 131.909L43.646 120.704H43.6429L59.5831 88.0163L59.9183 87.3337L60.2474 86.6572L94.3768 16.6769L94.7028 16.0065L95.038 15.3208L97.6434 9.97592L97.6556 9.97897L97.6587 9.98202L142.725 24.2767L149.858 26.5378Z" fill="#3F69FF"/>
<path d="M245.524 192.291C245.487 192.306 245.402 192.339 245.268 192.388C243.997 192.866 238.506 194.805 232.936 194.805C229.949 194.805 226.939 194.247 224.544 192.614C224.007 192.248 223.459 191.8 222.898 191.267C222.609 190.992 222.316 190.697 222.024 190.38H222.021C221.746 190.087 221.472 189.773 221.195 189.444H221.192C219.028 186.876 216.703 183.188 214.244 178.419C211.447 172.995 209.505 168.104 209.484 168.056C209.368 167.76 209.512 167.425 209.807 167.309C210.103 167.19 210.438 167.336 210.557 167.632C210.624 167.803 216.761 183.182 223.035 189.77C223.127 189.871 223.224 189.972 223.322 190.066C223.538 190.285 223.751 190.493 223.968 190.685C224.333 191.017 224.702 191.312 225.065 191.568C225.107 191.602 225.15 191.629 225.193 191.66C230.87 195.536 240.749 192.708 244.016 191.605C244.683 191.379 245.076 191.227 245.097 191.218C245.393 191.102 245.728 191.245 245.847 191.541C245.963 191.836 245.82 192.172 245.524 192.291Z" fill="#2B2B42"/>
<path d="M271.142 191.209C271.142 191.236 271.139 191.264 271.136 191.294C271.13 191.322 271.124 191.349 271.115 191.379C271.1 191.437 271.072 191.492 271.036 191.541C271.033 191.547 271.03 191.55 271.024 191.556C271.008 191.577 270.99 191.599 270.972 191.617C270.953 191.635 270.932 191.654 270.911 191.669C270.859 191.709 270.804 191.739 270.743 191.757C270.673 191.788 270.533 191.846 270.329 191.925H270.326C269.168 192.376 265.962 193.525 261.891 194.219C260.099 194.527 258.006 194.759 255.799 194.759C252.329 194.759 248.574 194.18 245.268 192.388C245.189 192.345 245.11 192.303 245.03 192.257C244.698 192.071 244.36 191.855 244.016 191.605C243.836 191.48 243.656 191.343 243.473 191.197C243.202 190.986 242.931 190.755 242.653 190.505H242.65C242.407 190.285 242.163 190.054 241.913 189.81C238.171 186.123 233.823 179.385 228.929 169.698C224.251 160.431 220.783 151.759 220.75 151.671C220.631 151.375 220.777 151.043 221.073 150.924C221.368 150.805 221.701 150.951 221.819 151.247C221.947 151.564 233.78 181.074 243.47 189.694C243.574 189.786 243.68 189.877 243.784 189.965C243.888 190.054 243.994 190.142 244.098 190.221C244.165 190.279 244.235 190.334 244.302 190.383H244.305C244.637 190.642 244.963 190.874 245.289 191.072C245.393 191.136 245.494 191.194 245.594 191.251C253.139 195.499 263.454 192.985 268.013 191.513C268.461 191.367 268.851 191.233 269.18 191.117C269.296 191.078 269.402 191.038 269.5 191.002C269.628 190.956 269.741 190.913 269.841 190.877C270.152 190.758 270.326 190.685 270.341 190.679C270.469 190.627 270.606 190.621 270.728 190.657C270.731 190.657 270.734 190.66 270.737 190.66C270.792 190.679 270.841 190.703 270.886 190.733C270.905 190.746 270.923 190.758 270.941 190.776C270.944 190.776 270.947 190.779 270.95 190.782C270.966 190.794 270.981 190.81 270.993 190.825C271.002 190.831 271.008 190.84 271.014 190.849C271.023 190.861 271.036 190.877 271.045 190.889C271.054 190.904 271.063 190.916 271.069 190.931C271.081 190.953 271.091 190.974 271.1 190.995C271.115 191.029 271.124 191.062 271.13 191.099C271.139 191.136 271.142 191.172 271.142 191.209Z" fill="#2B2B42"/>
<path d="M271.142 191.209C271.142 191.236 271.139 191.264 271.136 191.294C271.13 191.322 271.124 191.349 271.115 191.379C271.097 191.437 271.069 191.492 271.036 191.541C271.033 191.547 271.03 191.55 271.024 191.556C271.008 191.577 270.99 191.599 270.972 191.617C270.953 191.635 270.932 191.654 270.911 191.669C270.859 191.708 270.804 191.739 270.743 191.757C270.685 191.776 270.627 191.785 270.566 191.785C270.509 191.785 270.451 191.779 270.396 191.76C270.021 191.645 269.616 191.431 269.18 191.117C269.082 191.05 268.982 190.974 268.881 190.892H268.878C268.555 190.636 268.217 190.328 267.86 189.972C264.228 186.309 258.987 177.347 252.228 163.217C245.914 150.019 240.517 136.961 240.466 136.83C240.344 136.535 240.484 136.2 240.776 136.078C241.072 135.956 241.407 136.096 241.529 136.392C247.276 150.33 263.207 186.184 270.067 190.346C270.067 190.346 270.067 190.346 270.07 190.346C270.298 190.487 270.518 190.59 270.728 190.657C270.731 190.657 270.734 190.66 270.737 190.66C270.792 190.679 270.841 190.703 270.886 190.733C270.905 190.746 270.923 190.758 270.941 190.776C270.944 190.776 270.947 190.779 270.95 190.782C270.966 190.794 270.981 190.81 270.993 190.825C271.002 190.831 271.008 190.84 271.014 190.849C271.023 190.861 271.036 190.877 271.045 190.889C271.054 190.904 271.063 190.916 271.069 190.931C271.081 190.953 271.091 190.974 271.1 190.995C271.115 191.029 271.124 191.062 271.13 191.099C271.139 191.136 271.142 191.172 271.142 191.209Z" fill="#2B2B42"/>
<path d="M80.6288 115.432C80.9504 113.443 79.5986 111.57 77.6096 111.249C75.6205 110.927 73.7474 112.279 73.4258 114.268C73.1042 116.257 74.456 118.13 76.4451 118.452C78.4341 118.773 80.3072 117.421 80.6288 115.432Z" fill="#2B2B42"/>
<path d="M297.053 135.045C296.959 135.291 296.721 135.444 296.471 135.444C296.395 135.444 296.319 135.432 296.246 135.401C288.813 132.518 278.044 125.653 268.945 109.335C263.521 99.605 261.227 90.9752 261.205 90.8898C261.117 90.5546 261.318 90.2133 261.65 90.125C261.985 90.0366 262.327 90.2377 262.415 90.5729C262.436 90.6552 264.697 99.1571 270.054 108.753C274.973 117.572 283.59 129.148 296.697 134.237C297.02 134.362 297.178 134.722 297.053 135.045Z" fill="#2B2B42"/>
</svg>
