<svg width="163" height="25" viewBox="0 0 163 25" fill="none" xmlns="http://www.w3.org/2000/svg">
<path d="M15.604 6.19678H19.704L15.604 18.9968H12.004L10.004 12.1968L8.004 18.9968H4.404L0.304001 6.19678H4.404L6.204 13.0968L8.204 6.19678H11.804L13.804 13.0968L15.604 6.19678Z" fill="#3F69FF"/>
<path d="M31.704 17.3964C30.804 18.3964 29.504 18.9964 28.204 19.2964C26.904 19.5964 25.504 19.3964 24.304 18.8964C23.104 18.3964 22.004 17.4964 21.304 16.3964C20.604 15.2964 20.204 13.9964 20.204 12.5964C20.204 11.6964 20.404 10.7964 20.704 9.99639C21.004 9.19639 21.604 8.39639 22.204 7.79639C23.504 6.49639 25.204 5.79639 27.004 5.79639C28.804 5.79639 30.504 6.49639 31.804 7.79639C32.404 8.39639 33.004 9.19639 33.304 9.99639C33.604 10.7964 33.804 11.6964 33.804 12.5964C33.804 13.4964 33.604 14.3964 33.304 15.1964C32.804 16.0964 32.304 16.7964 31.704 17.3964ZM24.804 14.7964C25.404 15.2964 26.104 15.6964 26.904 15.6964C27.704 15.6964 28.404 15.3964 29.004 14.7964C29.304 14.4964 29.504 14.1964 29.604 13.7964C29.704 13.3964 29.804 12.9964 29.804 12.5964C29.804 11.7964 29.504 10.9964 29.004 10.4964C28.404 9.99639 27.704 9.59639 26.904 9.59639C26.104 9.59639 25.404 9.89639 24.804 10.4964C24.504 10.7964 24.304 11.0964 24.204 11.4964C24.104 11.8964 24.004 12.2964 24.004 12.6964C24.004 13.0964 24.104 13.4964 24.204 13.7964C24.304 14.1964 24.504 14.4964 24.804 14.7964Z" fill="#3F69FF"/>
<path d="M39.604 8.49648C39.804 7.69648 40.304 6.99648 41.004 6.59648C41.704 6.19648 42.504 5.89648 43.404 5.89648V10.2965C42.504 10.0965 41.604 10.2965 40.804 10.7965C40.404 11.0965 40.104 11.3965 39.804 11.7965C39.604 12.1965 39.504 12.6965 39.504 13.1965V18.9965H35.704V6.19648H39.504V8.49648H39.604Z" fill="#3F69FF"/>
<path d="M57.604 18.9967H53.304L49.204 13.3967V18.9967H45.304V1.09668H49.104V11.7967L52.904 6.19668H57.404L52.704 12.5967L57.604 18.9967Z" fill="#3F69FF"/>
<path d="M62.504 4.39658C62.304 4.59658 62.004 4.79658 61.804 4.89658C61.504 4.99658 61.204 5.09658 60.904 5.09658C60.604 5.09658 60.304 4.99658 60.004 4.89658C59.704 4.79658 59.504 4.59658 59.204 4.39658C59.004 4.19658 58.804 3.89658 58.704 3.69658C58.604 3.39658 58.504 3.09658 58.504 2.79658C58.504 2.49658 58.604 2.19658 58.704 1.89658C58.804 1.59658 59.004 1.39658 59.204 1.19658C59.404 0.996582 59.704 0.796582 60.004 0.696582C60.304 0.596582 60.604 0.496582 60.904 0.496582C61.204 0.496582 61.504 0.596582 61.804 0.696582C62.104 0.796582 62.304 0.996582 62.504 1.19658C62.704 1.39658 62.904 1.69658 63.004 1.89658C63.104 2.19658 63.204 2.49658 63.204 2.79658C63.204 3.09658 63.104 3.39658 63.004 3.69658C62.904 3.99658 62.704 4.19658 62.504 4.39658ZM59.004 18.9966V6.19658H62.804V18.9966H59.004Z" fill="#3F69FF"/>
<path d="M73.104 5.89672C73.704 5.89672 74.404 5.99672 75.004 6.19672C75.604 6.39672 76.104 6.79672 76.604 7.29672C77.104 7.79672 77.404 8.39672 77.704 9.09672C77.904 9.79672 78.004 10.4967 78.004 11.1967V19.0967H74.204V11.7967C74.204 11.4967 74.204 11.1967 74.104 10.8967C74.004 10.5967 73.804 10.2967 73.604 10.0967C73.404 9.89672 73.104 9.69672 72.904 9.59672C72.604 9.49672 72.304 9.39672 72.004 9.49672C71.704 9.49672 71.404 9.49672 71.104 9.69672C70.804 9.79672 70.504 9.99672 70.304 10.1967C70.104 10.4967 69.904 10.7967 69.804 11.0967C69.704 11.3967 69.604 11.7967 69.704 12.1967V19.1967H65.904V6.19672H69.704V7.39672C70.104 6.89672 70.704 6.39672 71.304 6.19672C71.904 5.99672 72.404 5.79672 73.104 5.89672Z" fill="#3F69FF"/>
<path d="M89.904 6.19678H93.604V18.2968C93.704 19.1968 93.504 19.9968 93.204 20.7968C92.904 21.5968 92.304 22.2968 91.604 22.7968C90.204 23.7968 88.604 24.3968 86.804 24.2968C83.904 24.2968 81.904 23.2968 80.704 21.1968L84.004 19.2968C84.304 19.6968 84.604 19.9968 85.004 20.2968C85.404 20.5968 85.804 20.6968 86.304 20.7968C86.804 20.8968 87.204 20.8968 87.704 20.7968C88.204 20.6968 88.604 20.4968 89.004 20.1968C89.304 19.8968 89.504 19.5968 89.604 19.2968C89.704 18.9968 89.804 18.5968 89.804 18.1968V16.9968C89.404 17.5968 88.804 17.9968 88.104 18.2968C87.504 18.5968 86.704 18.6968 86.004 18.6968C85.204 18.6968 84.304 18.5968 83.504 18.1968C82.704 17.8968 82.004 17.3968 81.504 16.7968C80.904 16.1968 80.504 15.4968 80.104 14.6968C79.804 13.8968 79.604 13.0968 79.704 12.1968C79.704 11.3968 79.804 10.4968 80.104 9.69678C80.404 8.89678 80.904 8.19678 81.504 7.59678C82.104 6.99678 82.804 6.49678 83.504 6.19678C84.304 5.89678 85.104 5.69678 85.904 5.69678C86.604 5.69678 87.304 5.79678 88.004 6.09678C88.704 6.39678 89.204 6.79678 89.704 7.39678V6.19678H89.904ZM84.604 14.4968C85.204 14.9968 86.004 15.2968 86.804 15.2968C87.604 15.2968 88.404 14.9968 89.004 14.4968C89.304 14.1968 89.504 13.8968 89.704 13.4968C89.904 13.0968 89.904 12.6968 89.904 12.2968C89.904 11.8968 89.804 11.4968 89.704 11.0968C89.604 10.6968 89.304 10.3968 89.004 10.0968C88.404 9.59678 87.604 9.29678 86.804 9.29678C86.004 9.29678 85.204 9.59678 84.604 10.0968C84.304 10.3968 84.104 10.6968 83.904 11.0968C83.804 11.4968 83.704 11.8968 83.704 12.2968C83.704 12.6968 83.804 13.0968 83.904 13.4968C84.104 13.8968 84.304 14.1968 84.604 14.4968Z" fill="#3F69FF"/>
<path d="M105.804 1.09668H109.604V18.9967H105.804V17.7967C105.304 18.2967 104.704 18.6967 104.104 18.9967C103.504 19.2967 102.704 19.3967 102.004 19.3967C101.204 19.3967 100.404 19.1967 99.604 18.8967C98.904 18.5967 98.204 18.0967 97.604 17.4967C96.404 16.1967 95.804 14.4967 95.804 12.6967C95.804 10.8967 96.404 9.19668 97.604 7.89668C98.104 7.29668 98.804 6.79668 99.504 6.39668C100.204 6.09668 101.104 5.89668 101.904 5.89668C102.604 5.89668 103.304 5.99668 104.004 6.29668C104.704 6.59668 105.204 6.99668 105.704 7.49668V1.09668H105.804ZM100.504 14.8967C100.804 15.1967 101.104 15.3967 101.504 15.5967C101.904 15.6967 102.304 15.7967 102.704 15.7967C103.104 15.7967 103.504 15.7967 103.904 15.5967C104.304 15.3967 104.604 15.1967 104.904 14.8967C105.204 14.5967 105.404 14.1967 105.604 13.8967C105.704 13.4967 105.804 13.0967 105.804 12.6967C105.804 12.2967 105.804 11.8967 105.604 11.4967C105.504 11.0967 105.204 10.6967 104.904 10.4967C104.604 10.1967 104.304 9.99668 103.904 9.89668C103.504 9.79668 103.104 9.69668 102.704 9.69668C102.304 9.69668 101.904 9.79668 101.504 9.89668C101.104 9.99668 100.804 10.2967 100.504 10.4967C100.204 10.7967 100.004 11.1967 99.804 11.5967C99.704 11.9967 99.604 12.3967 99.604 12.7967C99.604 13.1967 99.604 13.5967 99.804 13.9967C100.004 14.1967 100.204 14.5967 100.504 14.8967Z" fill="#3F69FF"/>
<path d="M116.304 8.49648C116.504 7.69648 117.004 6.99648 117.704 6.59648C118.404 6.19648 119.304 5.89648 120.104 5.89648V10.2965C119.204 10.0965 118.304 10.2965 117.504 10.7965C117.104 11.0965 116.804 11.3965 116.504 11.7965C116.304 12.1965 116.204 12.6965 116.204 13.1965V18.9965H112.404V6.19648H116.204V8.49648H116.304Z" fill="#3F69FF"/>
<path d="M132.404 17.3964C131.504 18.3964 130.204 18.9964 128.904 19.2964C127.604 19.5964 126.204 19.3964 125.004 18.8964C123.804 18.3964 122.704 17.4964 122.004 16.3964C121.304 15.2964 120.904 13.9964 120.904 12.5964C120.904 11.6964 121.104 10.7964 121.404 9.99639C121.704 9.19639 122.304 8.39639 122.904 7.79639C124.204 6.49639 125.904 5.79639 127.704 5.79639C129.504 5.79639 131.204 6.49639 132.504 7.79639C133.104 8.39639 133.704 9.19639 134.004 9.99639C134.304 10.7964 134.504 11.6964 134.504 12.5964C134.504 13.4964 134.304 14.3964 134.004 15.1964C133.604 16.0964 133.104 16.7964 132.404 17.3964ZM125.504 14.7964C125.804 15.0964 126.104 15.2964 126.504 15.3964C126.904 15.4964 127.204 15.5964 127.604 15.5964C128.004 15.5964 128.404 15.4964 128.704 15.3964C129.104 15.2964 129.404 14.9964 129.704 14.7964C130.004 14.4964 130.204 14.1964 130.304 13.7964C130.404 13.3964 130.504 12.9964 130.504 12.5964C130.504 12.1964 130.404 11.7964 130.304 11.3964C130.204 10.9964 129.904 10.6964 129.704 10.3964C129.404 10.0964 129.104 9.89639 128.704 9.79639C128.304 9.69639 128.004 9.59639 127.604 9.59639C127.204 9.59639 126.804 9.69639 126.504 9.79639C126.104 9.89639 125.804 10.1964 125.504 10.3964C125.204 10.6964 125.004 10.9964 124.904 11.3964C124.804 11.7964 124.704 12.1964 124.704 12.5964C124.704 12.9964 124.804 13.3964 124.904 13.7964C125.004 14.1964 125.304 14.4964 125.504 14.7964Z" fill="#3F69FF"/>
<path d="M144.304 5.89639C145.104 5.89639 145.904 6.09639 146.704 6.39639C147.404 6.69639 148.104 7.19639 148.604 7.89639C149.804 9.19639 150.404 10.8964 150.404 12.6964C150.404 14.4964 149.804 16.1964 148.604 17.4964C148.104 18.0964 147.404 18.5964 146.604 18.8964C145.904 19.1964 145.004 19.3964 144.204 19.3964C143.504 19.3964 142.804 19.2964 142.104 19.0964C141.404 18.7964 140.804 18.3964 140.404 17.8964V24.1964H136.604V6.19639H140.404V7.39639C140.904 6.89639 141.504 6.49639 142.104 6.19639C142.804 5.89639 143.504 5.79639 144.304 5.89639ZM141.304 14.8964C141.904 15.3964 142.704 15.6964 143.504 15.6964C144.304 15.6964 145.104 15.3964 145.704 14.8964C146.004 14.5964 146.204 14.1964 146.404 13.8964C146.504 13.4964 146.604 13.0964 146.604 12.6964C146.604 12.2964 146.604 11.8964 146.404 11.4964C146.304 11.0964 146.004 10.7964 145.704 10.3964C145.104 9.89639 144.304 9.59639 143.504 9.59639C142.704 9.59639 141.904 9.89639 141.304 10.3964C141.004 10.6964 140.804 11.0964 140.604 11.3964C140.504 11.7964 140.404 12.1964 140.404 12.5964C140.404 12.9964 140.404 13.3964 140.604 13.7964C140.704 14.1964 141.004 14.5964 141.304 14.8964Z" fill="#3F69FF"/>
<path d="M155.904 9.99668C155.904 10.2967 156.104 10.4967 156.604 10.5967C157.104 10.7967 157.604 10.9967 158.204 11.0967C158.804 11.2967 159.404 11.4967 160.004 11.6967C160.704 11.9967 161.304 12.4967 161.704 13.0967C162.104 13.6967 162.304 14.4967 162.304 15.1967C162.304 15.7967 162.204 16.3967 161.904 16.9967C161.604 17.4967 161.204 17.9967 160.704 18.3967C159.604 19.0967 158.304 19.4967 156.904 19.4967C154.204 19.4967 152.404 18.4967 151.404 16.4967L154.704 14.5967C154.804 15.0967 155.104 15.4967 155.504 15.6967C155.904 15.9967 156.404 16.0967 156.904 16.0967C157.804 16.0967 158.304 15.7967 158.304 15.2967C158.304 14.9967 158.104 14.7967 157.704 14.6967C157.204 14.4967 156.704 14.2967 156.104 14.1967C155.504 13.9967 154.904 13.7967 154.304 13.5967C153.704 13.2967 153.104 12.8967 152.704 12.3967C152.304 11.7967 152.004 11.0967 152.104 10.2967C152.104 9.69668 152.204 9.09668 152.404 8.59668C152.704 8.09668 153.004 7.59668 153.504 7.19668C154.504 6.39668 155.804 6.09668 157.104 6.09668C158.104 6.09668 159.104 6.29668 160.004 6.79668C160.904 7.29668 161.604 7.99668 162.104 8.79668L158.804 10.5967C158.704 10.2967 158.404 9.99668 158.104 9.79668C157.804 9.59668 157.404 9.49668 157.104 9.49668C156.304 9.29668 155.904 9.49668 155.904 9.99668Z" fill="#3F69FF"/>
</svg>
