<svg width="163" height="25" viewBox="0 0 163 25" fill="none" xmlns="http://www.w3.org/2000/svg">
<path d="M15.604 6.19601H19.704L15.604 18.996H12.004L10.004 12.196L8.004 18.996H4.404L0.304001 6.19601H4.404L6.204 13.096L8.204 6.19601H11.804L13.804 13.096L15.604 6.19601Z" fill="white"/>
<path d="M31.704 17.396C30.804 18.396 29.504 18.996 28.204 19.296C26.904 19.596 25.504 19.396 24.304 18.896C23.104 18.396 22.004 17.496 21.304 16.396C20.604 15.296 20.204 13.996 20.204 12.596C20.204 11.696 20.404 10.796 20.704 9.99599C21.004 9.19599 21.604 8.39599 22.204 7.79599C23.504 6.49599 25.204 5.79599 27.004 5.79599C28.804 5.79599 30.504 6.49599 31.804 7.79599C32.404 8.39599 33.004 9.19599 33.304 9.99599C33.604 10.796 33.804 11.696 33.804 12.596C33.804 13.496 33.604 14.396 33.304 15.196C32.804 16.096 32.304 16.796 31.704 17.396ZM24.804 14.796C25.404 15.296 26.104 15.696 26.904 15.696C27.704 15.696 28.404 15.396 29.004 14.796C29.304 14.496 29.504 14.196 29.604 13.796C29.704 13.396 29.804 12.996 29.804 12.596C29.804 11.796 29.504 10.996 29.004 10.496C28.404 9.99599 27.704 9.59599 26.904 9.59599C26.104 9.59599 25.404 9.89599 24.804 10.496C24.504 10.796 24.304 11.096 24.204 11.496C24.104 11.896 24.004 12.296 24.004 12.696C24.004 13.096 24.104 13.496 24.204 13.796C24.304 14.196 24.504 14.496 24.804 14.796Z" fill="white"/>
<path d="M39.604 8.496C39.804 7.696 40.304 6.996 41.004 6.596C41.704 6.196 42.504 5.896 43.404 5.896V10.296C42.504 10.096 41.604 10.296 40.804 10.796C40.404 11.096 40.104 11.396 39.804 11.796C39.604 12.196 39.504 12.696 39.504 13.196V18.996H35.704V6.196H39.504V8.496H39.604Z" fill="white"/>
<path d="M57.604 18.996H53.304L49.204 13.396V18.996H45.304V1.09601H49.104V11.796L52.904 6.19601H57.404L52.704 12.596L57.604 18.996Z" fill="white"/>
<path d="M62.504 4.396C62.304 4.596 62.004 4.796 61.804 4.896C61.504 4.996 61.204 5.096 60.904 5.096C60.604 5.096 60.304 4.996 60.004 4.896C59.704 4.796 59.504 4.596 59.204 4.396C59.004 4.196 58.804 3.896 58.704 3.696C58.604 3.396 58.504 3.096 58.504 2.796C58.504 2.496 58.604 2.196 58.704 1.896C58.804 1.596 59.004 1.396 59.204 1.196C59.404 0.996002 59.704 0.796002 60.004 0.696002C60.304 0.596002 60.604 0.496002 60.904 0.496002C61.204 0.496002 61.504 0.596002 61.804 0.696002C62.104 0.796002 62.304 0.996002 62.504 1.196C62.704 1.396 62.904 1.696 63.004 1.896C63.104 2.196 63.204 2.496 63.204 2.796C63.204 3.096 63.104 3.396 63.004 3.696C62.904 3.996 62.704 4.196 62.504 4.396ZM59.004 18.996V6.196H62.804V18.996H59.004Z" fill="white"/>
<path d="M73.104 5.89601C73.704 5.89601 74.404 5.99601 75.004 6.19601C75.604 6.39601 76.104 6.79601 76.604 7.29601C77.104 7.79601 77.404 8.39601 77.704 9.09601C77.904 9.79601 78.004 10.496 78.004 11.196V19.096H74.204V11.796C74.204 11.496 74.204 11.196 74.104 10.896C74.004 10.596 73.804 10.296 73.604 10.096C73.404 9.89601 73.104 9.69601 72.904 9.59601C72.604 9.49601 72.304 9.39601 72.004 9.49601C71.704 9.49601 71.404 9.49601 71.104 9.69601C70.804 9.79601 70.504 9.99601 70.304 10.196C70.104 10.496 69.904 10.796 69.804 11.096C69.704 11.396 69.604 11.796 69.704 12.196V19.196H65.904V6.19601H69.704V7.39601C70.104 6.89601 70.704 6.39601 71.304 6.19601C71.904 5.99601 72.404 5.79601 73.104 5.89601Z" fill="white"/>
<path d="M89.904 6.19601H93.604V18.296C93.704 19.196 93.504 19.996 93.204 20.796C92.904 21.596 92.304 22.296 91.604 22.796C90.204 23.796 88.604 24.396 86.804 24.296C83.904 24.296 81.904 23.296 80.704 21.196L84.004 19.296C84.304 19.696 84.604 19.996 85.004 20.296C85.404 20.596 85.804 20.696 86.304 20.796C86.804 20.896 87.204 20.896 87.704 20.796C88.204 20.696 88.604 20.496 89.004 20.196C89.304 19.896 89.504 19.596 89.604 19.296C89.704 18.996 89.804 18.596 89.804 18.196V16.996C89.404 17.596 88.804 17.996 88.104 18.296C87.504 18.596 86.704 18.696 86.004 18.696C85.204 18.696 84.304 18.596 83.504 18.196C82.704 17.896 82.004 17.396 81.504 16.796C80.904 16.196 80.504 15.496 80.104 14.696C79.804 13.896 79.604 13.096 79.704 12.196C79.704 11.396 79.804 10.496 80.104 9.69601C80.404 8.89601 80.904 8.19601 81.504 7.59601C82.104 6.99601 82.804 6.49601 83.504 6.19601C84.304 5.89601 85.104 5.69601 85.904 5.69601C86.604 5.69601 87.304 5.79601 88.004 6.09601C88.704 6.39601 89.204 6.79601 89.704 7.39601V6.19601H89.904ZM84.604 14.496C85.204 14.996 86.004 15.296 86.804 15.296C87.604 15.296 88.404 14.996 89.004 14.496C89.304 14.196 89.504 13.896 89.704 13.496C89.904 13.096 89.904 12.696 89.904 12.296C89.904 11.896 89.804 11.496 89.704 11.096C89.604 10.696 89.304 10.396 89.004 10.096C88.404 9.59601 87.604 9.29601 86.804 9.29601C86.004 9.29601 85.204 9.59601 84.604 10.096C84.304 10.396 84.104 10.696 83.904 11.096C83.804 11.496 83.704 11.896 83.704 12.296C83.704 12.696 83.804 13.096 83.904 13.496C84.104 13.896 84.304 14.196 84.604 14.496Z" fill="white"/>
<path d="M105.804 1.09601H109.604V18.996H105.804V17.796C105.304 18.296 104.704 18.696 104.104 18.996C103.504 19.296 102.704 19.396 102.004 19.396C101.204 19.396 100.404 19.196 99.604 18.896C98.904 18.596 98.204 18.096 97.604 17.496C96.404 16.196 95.804 14.496 95.804 12.696C95.804 10.896 96.404 9.19601 97.604 7.89601C98.104 7.29601 98.804 6.79601 99.504 6.39601C100.204 6.09601 101.104 5.89601 101.904 5.89601C102.604 5.89601 103.304 5.99601 104.004 6.29601C104.704 6.59601 105.204 6.99601 105.704 7.49601V1.09601H105.804ZM100.504 14.896C100.804 15.196 101.104 15.396 101.504 15.596C101.904 15.696 102.304 15.796 102.704 15.796C103.104 15.796 103.504 15.796 103.904 15.596C104.304 15.396 104.604 15.196 104.904 14.896C105.204 14.596 105.404 14.196 105.604 13.896C105.704 13.496 105.804 13.096 105.804 12.696C105.804 12.296 105.804 11.896 105.604 11.496C105.504 11.096 105.204 10.696 104.904 10.496C104.604 10.196 104.304 9.99601 103.904 9.89601C103.504 9.79601 103.104 9.69601 102.704 9.69601C102.304 9.69601 101.904 9.79601 101.504 9.89601C101.104 9.99601 100.804 10.296 100.504 10.496C100.204 10.796 100.004 11.196 99.804 11.596C99.704 11.996 99.604 12.396 99.604 12.796C99.604 13.196 99.604 13.596 99.804 13.996C100.004 14.196 100.204 14.596 100.504 14.896Z" fill="white"/>
<path d="M116.304 8.496C116.504 7.696 117.004 6.996 117.704 6.596C118.404 6.196 119.304 5.896 120.104 5.896V10.296C119.204 10.096 118.304 10.296 117.504 10.796C117.104 11.096 116.804 11.396 116.504 11.796C116.304 12.196 116.204 12.696 116.204 13.196V18.996H112.404V6.196H116.204V8.496H116.304Z" fill="white"/>
<path d="M132.404 17.396C131.504 18.396 130.204 18.996 128.904 19.296C127.604 19.596 126.204 19.396 125.004 18.896C123.804 18.396 122.704 17.496 122.004 16.396C121.304 15.296 120.904 13.996 120.904 12.596C120.904 11.696 121.104 10.796 121.404 9.99599C121.704 9.19599 122.304 8.39599 122.904 7.79599C124.204 6.49599 125.904 5.79599 127.704 5.79599C129.504 5.79599 131.204 6.49599 132.504 7.79599C133.104 8.39599 133.704 9.19599 134.004 9.99599C134.304 10.796 134.504 11.696 134.504 12.596C134.504 13.496 134.304 14.396 134.004 15.196C133.604 16.096 133.104 16.796 132.404 17.396ZM125.504 14.796C125.804 15.096 126.104 15.296 126.504 15.396C126.904 15.496 127.204 15.596 127.604 15.596C128.004 15.596 128.404 15.496 128.704 15.396C129.104 15.296 129.404 14.996 129.704 14.796C130.004 14.496 130.204 14.196 130.304 13.796C130.404 13.396 130.504 12.996 130.504 12.596C130.504 12.196 130.404 11.796 130.304 11.396C130.204 10.996 129.904 10.696 129.704 10.396C129.404 10.096 129.104 9.89599 128.704 9.79599C128.304 9.69599 128.004 9.59599 127.604 9.59599C127.204 9.59599 126.804 9.69599 126.504 9.79599C126.104 9.89599 125.804 10.196 125.504 10.396C125.204 10.696 125.004 10.996 124.904 11.396C124.804 11.796 124.704 12.196 124.704 12.596C124.704 12.996 124.804 13.396 124.904 13.796C125.004 14.196 125.304 14.496 125.504 14.796Z" fill="white"/>
<path d="M144.304 5.89599C145.104 5.89599 145.904 6.09599 146.704 6.39599C147.404 6.69599 148.104 7.19599 148.604 7.89599C149.804 9.19599 150.404 10.896 150.404 12.696C150.404 14.496 149.804 16.196 148.604 17.496C148.104 18.096 147.404 18.596 146.604 18.896C145.904 19.196 145.004 19.396 144.204 19.396C143.504 19.396 142.804 19.296 142.104 19.096C141.404 18.796 140.804 18.396 140.404 17.896V24.196H136.604V6.19599H140.404V7.39599C140.904 6.89599 141.504 6.49599 142.104 6.19599C142.804 5.89599 143.504 5.79599 144.304 5.89599ZM141.304 14.896C141.904 15.396 142.704 15.696 143.504 15.696C144.304 15.696 145.104 15.396 145.704 14.896C146.004 14.596 146.204 14.196 146.404 13.896C146.504 13.496 146.604 13.096 146.604 12.696C146.604 12.296 146.604 11.896 146.404 11.496C146.304 11.096 146.004 10.796 145.704 10.396C145.104 9.89599 144.304 9.59599 143.504 9.59599C142.704 9.59599 141.904 9.89599 141.304 10.396C141.004 10.696 140.804 11.096 140.604 11.396C140.504 11.796 140.404 12.196 140.404 12.596C140.404 12.996 140.404 13.396 140.604 13.796C140.704 14.196 141.004 14.596 141.304 14.896Z" fill="white"/>
<path d="M155.904 9.99601C155.904 10.296 156.104 10.496 156.604 10.596C157.104 10.796 157.604 10.996 158.204 11.096C158.804 11.296 159.404 11.496 160.004 11.696C160.704 11.996 161.304 12.496 161.704 13.096C162.104 13.696 162.304 14.496 162.304 15.196C162.304 15.796 162.204 16.396 161.904 16.996C161.604 17.496 161.204 17.996 160.704 18.396C159.604 19.096 158.304 19.496 156.904 19.496C154.204 19.496 152.404 18.496 151.404 16.496L154.704 14.596C154.804 15.096 155.104 15.496 155.504 15.696C155.904 15.996 156.404 16.096 156.904 16.096C157.804 16.096 158.304 15.796 158.304 15.296C158.304 14.996 158.104 14.796 157.704 14.696C157.204 14.496 156.704 14.296 156.104 14.196C155.504 13.996 154.904 13.796 154.304 13.596C153.704 13.296 153.104 12.896 152.704 12.396C152.304 11.796 152.004 11.096 152.104 10.296C152.104 9.69601 152.204 9.09601 152.404 8.59601C152.704 8.09601 153.004 7.59601 153.504 7.19601C154.504 6.39601 155.804 6.09601 157.104 6.09601C158.104 6.09601 159.104 6.29601 160.004 6.79601C160.904 7.29601 161.604 7.99601 162.104 8.79601L158.804 10.596C158.704 10.296 158.404 9.99601 158.104 9.79601C157.804 9.59601 157.404 9.49601 157.104 9.49601C156.304 9.29601 155.904 9.49601 155.904 9.99601Z" fill="white"/>
</svg>
